<svg width="1440" height="900" viewBox="0 0 1440 900" fill="none" xmlns="http://www.w3.org/2000/svg">
<g id="background_intro">
<mask id="mask0_61:2100" style="mask-type:alpha" maskUnits="userSpaceOnUse" x="0" y="0" width="1440" height="900">
<rect id="Rectangle 42" width="1440" height="900" fill="#C4C4C4"/>
</mask>
<g mask="url(#mask0_61:2100)">
<g id="img_candidates_reached">
<path id="Fill 1 Copy 4" opacity="0.4" fill-rule="evenodd" clip-rule="evenodd" d="M1050.96 390.073C985.094 355.511 916.854 323.65 844.781 297.069C642.287 222.543 417.711 180 180.1 180H-2193.86C-2246 180 -2287.48 217.754 -2277.51 258.823C-2178.07 667.306 -1835.64 1005.68 -1375.99 1174.93C-1173.49 1249.46 -948.839 1292 -711.305 1292H334.137H1761.34H1762.33C1762.26 1291.39 1761.95 1290.77 1761.87 1290.16C1699.54 912.862 1430.95 589.096 1050.96 390.073Z" fill="#F5F2ED"/>
<path id="Fill 4 Copy 2" opacity="0.4" fill-rule="evenodd" clip-rule="evenodd" d="M1044.34 390.073C1110.13 355.511 1178.14 323.65 1250.06 297.069C1452.1 222.543 1676.18 180 1913.26 180H6761.13C6813.22 180 6854.61 217.754 6844.59 258.823C6745.37 667.306 6403.86 1005.68 5945.07 1174.93C5743.1 1249.46 5518.94 1292 5281.94 1292H2002.85H578.894H577.823C577.976 1291.39 334.926 1290.77 335.002 1290.16C397.199 912.862 665.19 589.096 1044.34 390.073Z" fill="#F5F2ED"/>
</g>
<circle id="Ellipse 45" opacity="0.1" cx="149" cy="77" r="50" fill="#3BC47C"/>
<g id="img_star">
<g id="img_footer_01">
<path id="Path 15" fill-rule="evenodd" clip-rule="evenodd" d="M1221.68 147.588C1221.68 147.588 1225.6 147.272 1226.98 147.054C1228.35 146.836 1229.07 146.805 1231.07 144.297C1233.08 141.79 1236.53 137.476 1237.45 136.502C1238.37 135.527 1239.2 135.001 1240.38 135.358C1241.56 135.716 1241.77 137.285 1241.95 139.636C1242.13 141.987 1242.64 147.933 1242.8 149.125C1242.96 150.316 1243.33 151.484 1245.36 153.142C1247.4 154.8 1252.87 159.174 1253.85 160.091C1254.83 161.009 1254.88 161.823 1254.66 162.558C1254.43 163.293 1254.12 163.907 1250.56 164.124C1246.99 164.342 1241.61 164.847 1240.49 164.969C1239.36 165.092 1238.35 165.545 1236.69 167.592C1235.02 169.638 1231.06 174.486 1230.13 175.5C1229.21 176.513 1228.52 177.099 1227.03 176.646C1225.53 176.193 1225.49 170.557 1225.24 167.301C1224.98 164.045 1225.05 161.363 1222.99 159.666C1220.93 157.97 1214.78 152.994 1213.74 152.098C1212.88 151.349 1212.66 150.441 1212.91 149.599C1213.31 148.36 1214.9 148.181 1216.38 148.038C1217.85 147.895 1221.68 147.588 1221.68 147.588Z" fill="#DA542E"/>
<g id="Group 2">
<path id="Combined Shape" opacity="0.2" fill-rule="evenodd" clip-rule="evenodd" d="M1232.69 176.973C1283.87 184.167 1326.5 181.965 1327.89 172.054C1329.29 162.143 1288.92 148.277 1237.73 141.083C1186.54 133.889 1143.91 136.091 1142.52 146.002C1141.13 155.913 1181.5 169.779 1232.69 176.973ZM1233.33 172.279C1267.22 177.041 1295.52 174.937 1296.56 167.58C1297.59 160.223 1270.96 150.399 1237.08 145.637C1203.2 140.876 1174.89 142.979 1173.86 150.336C1172.82 157.693 1199.45 167.517 1233.33 172.279Z" fill="#706C74"/>
<path id="Combined Shape_2" fill-rule="evenodd" clip-rule="evenodd" d="M1227.05 147.023C1225.67 147.238 1221.76 147.543 1221.76 147.543C1221.76 147.543 1217.94 147.839 1216.46 147.978C1214.98 148.117 1213.4 148.292 1213 149.53C1212.83 150.092 1212.87 150.683 1213.18 151.238L1253.78 163.652C1254.48 163.369 1254.62 163.004 1254.74 162.602C1254.97 161.867 1254.92 161.053 1253.93 160.133C1253.19 159.443 1249.94 156.809 1247.5 154.831C1246.68 154.168 1245.95 153.578 1245.44 153.161C1243.4 151.497 1243.03 150.329 1242.86 149.137C1242.7 147.945 1242.17 141.998 1241.99 139.646C1241.8 137.295 1241.59 135.726 1240.41 135.365C1239.23 135.004 1238.4 135.528 1237.48 136.5C1236.56 137.472 1233.13 141.776 1231.13 144.278C1229.21 146.691 1228.47 146.804 1227.19 147.001C1227.14 147.008 1227.1 147.016 1227.05 147.023Z" fill="#DA542E"/>
</g>
</g>
<g id="img_footer_ma">
<ellipse id="Oval Copy 72" opacity="0.6" cx="1178.68" cy="124.727" rx="5.62246" ry="5.62213" transform="rotate(8 1178.68 124.727)" fill="#58B2F1"/>
<ellipse id="Oval Copy 74" opacity="0.6" cx="1296.47" cy="180.387" rx="5.62246" ry="5.62213" transform="rotate(8 1296.47 180.387)" fill="#58B2F1"/>
<ellipse id="Oval Copy 73" opacity="0.6" cx="1162.41" cy="159.266" rx="10.0501" ry="10.0496" transform="rotate(8 1162.41 159.266)" fill="#F92D5E"/>
<ellipse id="Oval Copy 77" opacity="0.6" cx="1278.9" cy="143.842" rx="7.02807" ry="7.02766" transform="rotate(8 1278.9 143.842)" fill="#5DC29A"/>
<ellipse id="Oval Copy 78" opacity="0.6" cx="1213.29" cy="113.175" rx="2.81123" ry="2.81106" transform="rotate(8 1213.29 113.175)" fill="#3BC47C"/>
<ellipse id="Oval Copy 82" opacity="0.6" cx="1199.06" cy="142.495" rx="2.81123" ry="2.81106" transform="rotate(8 1199.06 142.495)" fill="#FFDD50"/>
<ellipse id="Oval Copy 83" opacity="0.6" cx="1305.92" cy="127.089" rx="2.81123" ry="2.81106" transform="rotate(8 1305.92 127.089)" fill="#58B2F1"/>
<ellipse id="Oval Copy 79" opacity="0.6" cx="1259.54" cy="127.652" rx="2.81123" ry="2.81106" transform="rotate(8 1259.54 127.652)" fill="#F92D5E"/>
<ellipse id="Oval Copy 84" opacity="0.6" cx="1310.98" cy="171.224" rx="2.81123" ry="2.81106" transform="rotate(8 1310.98 171.224)" fill="#F92D5E"/>
</g>
</g>
</g>
</g>
</svg>
