<svg width="1440" height="900" viewBox="0 0 1440 900" fill="none" xmlns="http://www.w3.org/2000/svg">
<mask id="mask0_606_7255" style="mask-type:alpha" maskUnits="userSpaceOnUse" x="0" y="0" width="1440" height="900">
<rect width="1440" height="900" fill="#C4C4C4"/>
</mask>
<g mask="url(#mask0_606_7255)">
<path opacity="0.05" fill-rule="evenodd" clip-rule="evenodd" d="M1050.96 390.073C985.094 355.511 916.854 323.65 844.781 297.069C642.287 222.543 417.711 180 180.1 180H-2193.86C-2246 180 -2287.48 217.754 -2277.51 258.823C-2178.07 667.306 -1835.64 1005.68 -1375.99 1174.93C-1173.49 1249.46 -948.839 1292 -711.305 1292H334.137H1761.34H1762.33C1762.26 1291.39 1761.95 1290.77 1761.87 1290.16C1699.54 912.862 1430.95 589.096 1050.96 390.073Z" fill="#F5F2ED"/>
<path opacity="0.05" fill-rule="evenodd" clip-rule="evenodd" d="M1044.34 390.073C1110.13 355.511 1178.14 323.65 1250.06 297.069C1452.1 222.543 1676.18 180 1913.26 180H6761.13C6813.22 180 6854.61 217.754 6844.59 258.823C6745.37 667.306 6403.86 1005.68 5945.07 1174.93C5743.1 1249.46 5518.94 1292 5281.94 1292H2002.85H578.894H577.823C577.976 1291.39 334.926 1290.77 335.002 1290.16C397.199 912.862 665.19 589.096 1044.34 390.073Z" fill="#F5F2ED"/>
</g>
</svg>
