<svg width="375" height="360" viewBox="0 0 375 360" fill="none" xmlns="http://www.w3.org/2000/svg">
<mask id="mask0_107:2506" style="mask-type:alpha" maskUnits="userSpaceOnUse" x="0" y="0" width="375" height="360">
<rect width="375" height="360" fill="white"/>
</mask>
<g mask="url(#mask0_107:2506)">
<path opacity="0.3" fill-rule="evenodd" clip-rule="evenodd" d="M301.956 184.073C236.094 149.511 167.854 117.65 95.7815 91.0688C-106.713 16.5426 -331.289 -26 -568.9 -26H-2942.86C-2995 -26 -3036.48 11.7542 -3026.51 52.8234C-2927.07 461.306 -2584.64 799.682 -2124.99 968.931C-1922.49 1043.46 -1697.84 1086 -1460.3 1086H-414.863H1012.34H1013.33C1013.26 1085.39 1012.95 1084.77 1012.87 1084.16C950.537 706.862 681.95 383.096 301.956 184.073Z" fill="#F5F2ED"/>
<path opacity="0.3" fill-rule="evenodd" clip-rule="evenodd" d="M295.339 184.073C361.132 149.511 429.143 117.65 501.056 91.0688C703.101 16.5426 927.178 -26 1164.26 -26H6012.13C6064.22 -26 6105.61 11.7542 6095.59 52.8234C5996.37 461.306 5654.86 799.682 5196.07 968.931C4994.1 1043.46 4769.94 1086 4532.94 1086H1253.85H-170.106H-171.177C-171.024 1085.39 -414.074 1084.77 -413.998 1084.16C-351.801 706.862 -83.8103 383.096 295.339 184.073Z" fill="#F5F2ED"/>
</g>
</svg>
