<svg width="768" height="480" viewBox="0 0 768 480" fill="none" xmlns="http://www.w3.org/2000/svg">
<mask id="mask0_150:5189" style="mask-type:alpha" maskUnits="userSpaceOnUse" x="0" y="0" width="768" height="480">
<rect width="768" height="479.376" fill="#C4C4C4"/>
</mask>
<g mask="url(#mask0_150:5189)">
<path opacity="0.4" fill-rule="evenodd" clip-rule="evenodd" d="M560.51 207.768C525.383 189.359 488.989 172.389 450.55 158.23C342.553 118.535 222.779 95.875 96.0531 95.875H-1170.06C-1197.87 95.875 -1219.99 115.984 -1214.67 137.86C-1161.64 355.433 -979.01 535.666 -733.86 625.815C-625.863 665.511 -506.048 688.17 -379.363 688.17H178.206H939.378H939.91C939.869 687.844 939.706 687.516 939.665 687.19C906.419 486.226 763.173 313.776 560.51 207.768Z" fill="#F5F2ED"/>
<path opacity="0.4" fill-rule="evenodd" clip-rule="evenodd" d="M556.98 207.768C592.07 189.359 628.342 172.389 666.696 158.23C774.453 118.535 893.961 95.875 1020.41 95.875H3605.93C3633.72 95.875 3655.79 115.984 3650.45 137.86C3597.53 355.433 3415.39 535.666 3170.7 625.815C3062.99 665.511 2943.44 688.17 2817.03 688.17H1068.18H308.743H308.172C308.253 687.844 178.626 687.516 178.667 687.19C211.839 486.226 354.767 313.776 556.98 207.768Z" fill="#F5F2ED"/>
<ellipse opacity="0.1" cx="79.4674" cy="41.0129" rx="26.6667" ry="26.632" fill="#3BC47C"/>
<path fill-rule="evenodd" clip-rule="evenodd" d="M651.563 78.6122C651.563 78.6122 653.653 78.444 654.387 78.3278C655.121 78.2116 655.504 78.1948 656.573 76.8592C657.641 75.5236 659.481 73.2261 659.973 72.707C660.465 72.1879 660.907 71.9077 661.536 72.0981C662.165 72.2886 662.277 73.1243 662.372 74.3765C662.468 75.6286 662.743 78.7957 662.828 79.4305C662.912 80.0654 663.109 80.6871 664.195 81.5702C665.28 82.4533 668.195 84.783 668.719 85.2718C669.243 85.7607 669.27 86.1942 669.15 86.5858C669.029 86.9774 668.866 87.304 666.965 87.42C665.063 87.5359 662.192 87.8049 661.593 87.87C660.994 87.9352 660.453 88.1769 659.566 89.2669C658.68 90.3569 656.564 92.939 656.071 93.479C655.578 94.0189 655.212 94.3306 654.415 94.0894C653.618 93.8482 653.597 90.8465 653.461 89.1121C653.324 87.3777 653.359 85.9493 652.26 85.0455C651.161 84.1417 647.885 81.4913 647.328 81.0145C646.868 80.6153 646.749 80.1317 646.888 79.6833C647.101 79.0235 647.947 78.9281 648.735 78.8518C649.523 78.7755 651.563 78.6122 651.563 78.6122Z" fill="#DA542E"/>
<path opacity="0.2" fill-rule="evenodd" clip-rule="evenodd" d="M657.431 94.2679C684.731 98.097 707.464 96.9194 708.208 91.6377C708.952 86.356 687.424 78.9703 660.124 75.1412C632.824 71.3121 610.091 72.4896 609.347 77.7713C608.603 83.053 630.131 90.4388 657.431 94.2679ZM657.777 91.766C675.847 94.3004 690.943 93.1768 691.496 89.2563C692.048 85.3357 677.847 80.103 659.777 77.5686C641.707 75.0341 626.611 76.1578 626.059 80.0783C625.507 83.9988 639.707 89.2316 657.777 91.766Z" fill="#706C74"/>
<path fill-rule="evenodd" clip-rule="evenodd" d="M654.426 78.3105C653.693 78.425 651.606 78.5882 651.606 78.5882C651.606 78.5882 649.568 78.7465 648.781 78.8209C647.993 78.8953 647.149 78.9887 646.938 79.648C646.846 79.9461 646.869 80.26 647.029 80.5546L668.684 87.1634C669.051 87.0129 669.129 86.8187 669.194 86.605C669.314 86.2137 669.285 85.7801 668.761 85.2899C668.368 84.9228 666.632 83.5198 665.329 82.4664C664.893 82.1133 664.505 81.7994 664.232 81.577C663.145 80.6912 662.946 80.0689 662.861 79.4338C662.775 78.7987 662.492 75.6307 662.394 74.3782C662.295 73.1257 662.182 72.2897 661.553 72.0977C660.924 71.9057 660.483 72.1849 659.993 72.7028C659.502 73.2208 657.67 75.5141 656.606 76.8472C655.58 78.1329 655.187 78.1933 654.503 78.2987C654.478 78.3025 654.452 78.3065 654.426 78.3105Z" fill="#DA542E"/>
<ellipse opacity="0.6" rx="2.99855" ry="2.99464" transform="matrix(0.990293 0.138996 -0.13935 0.990243 628.63 66.4349)" fill="#58B2F1"/>
<ellipse opacity="0.6" rx="2.99853" ry="2.99464" transform="matrix(0.990293 0.138998 -0.139349 0.990243 691.453 96.0795)" fill="#58B2F1"/>
<ellipse opacity="0.6" rx="5.35996" ry="5.35292" transform="matrix(0.990293 0.138995 -0.139351 0.990243 619.953 84.8309)" fill="#F92D5E"/>
<ellipse opacity="0.6" rx="3.74821" ry="3.74331" transform="matrix(0.990293 0.138996 -0.139351 0.990243 682.083 76.6164)" fill="#5DC29A"/>
<ellipse opacity="0.6" rx="1.49926" ry="1.49732" transform="matrix(0.990293 0.138998 -0.139349 0.990243 647.089 60.281)" fill="#3BC47C"/>
<ellipse opacity="0.6" rx="1.49926" ry="1.49732" transform="matrix(0.990293 0.138997 -0.139349 0.990243 639.499 75.8962)" fill="#FFDD50"/>
<ellipse opacity="0.6" rx="1.49924" ry="1.49732" transform="matrix(0.990292 0.139 -0.139347 0.990244 696.493 67.6931)" fill="#58B2F1"/>
<ellipse opacity="0.6" rx="1.49929" ry="1.49732" transform="matrix(0.990293 0.138995 -0.139351 0.990243 671.753 67.9919)" fill="#F92D5E"/>
<ellipse opacity="0.6" rx="1.49929" ry="1.49732" transform="matrix(0.990293 0.138995 -0.139351 0.990243 699.19 91.1989)" fill="#F92D5E"/>
</g>
</svg>
