<svg xmlns="http://www.w3.org/2000/svg" xmlns:xlink="http://www.w3.org/1999/xlink" width="768" height="2060" viewBox="0 0 768 2060">
    <defs>
        <path id="3tvwj3jhta" d="M0 0H768V2060H0z"/>
    </defs>
    <g fill="none" fill-rule="evenodd">
        <g>
            <mask id="krf0jgmqrb" fill="#fff">
                <use xlink:href="#3tvwj3jhta"/>
            </mask>
            <g mask="url(#krf0jgmqrb)" opacity=".08">
                <g transform="translate(-317.844444, -170.666667)">
                    <path d="M583.822 987.022H1045.333V1413.689H583.822z"/>
                    <circle cx="539.733" cy="1388.8" r="170.667" fill="#58B2F1" opacity=".6"/>
                    <circle cx="1132.444" cy="1601.778" r="292.622" fill="#3BC47C" fill-rule="nonzero" opacity=".6"/>
                    <circle cx="1045.333" cy="526.222" r="128" fill="#F92D5E" fill-rule="nonzero" opacity=".6"/>
                    <circle cx="414.222" cy="1931.022" r="131.2" fill="#FFDE03" fill-rule="nonzero" opacity=".6"/>
                    <circle cx="329.244" cy="416.711" r="85.333" fill="#3BC47C" fill-rule="nonzero" opacity=".6"/>
                    <circle cx="231.111" cy="987.022" r="231.111" fill="#F92D5E" fill-rule="nonzero" opacity=".6"/>
                    <circle cx="1045.744" cy="2364.211" r="286.5" fill="#58B2F1" fill-rule="nonzero" opacity=".6"/>
                </g>
            </g>
            <g mask="url(#krf0jgmqrb)">
                <g>
                    <g>
                        <path fill="#DA542E" d="M74.813 21.995c2.286-.906 3.82-1.55 4.604-1.932 1.175-.573 1.81-.798 2.92-3.597 1.11-2.8 3.02-7.615 3.582-8.743.56-1.127 1.159-1.827 2.316-1.83 1.156-.002 1.774 1.348 2.58 3.408.805 2.06 2.9 7.253 3.368 8.279.468 1.026 1.121 1.972 3.402 2.901 2.28.93 8.383 3.354 9.517 3.908 1.133.554 1.402 1.27 1.4 1.992-.001.722-.107 1.356-3.246 2.529-3.138 1.173-7.83 3.103-8.804 3.52-.974.418-1.76 1.104-2.69 3.395-.93 2.292-3.16 7.73-3.71 8.893-.552 1.163-1.008 1.876-2.473 1.88-1.464.004-3.044-5.042-4.167-7.893-1.124-2.851-1.8-5.275-4.114-6.232-2.315-.957-9.19-3.737-10.373-4.254-.98-.435-1.428-1.189-1.426-2.016.02-1.22 1.392-1.816 2.679-2.35.857-.356 2.402-.975 4.635-1.858z" transform="translate(289.000000, 108.000000) translate(5.613462, 16.940956) translate(88.000903, 26.245823) rotate(-343.000000) translate(-88.000903, -26.245823)"/>
                        <g>
                            <path fill="#706C74" d="M89.32 12.055c48.496 0 87.81 7.612 87.81 17.001 0 9.39-39.314 17.001-87.81 17.001-48.495 0-87.808-7.611-87.808-17 0-9.39 39.313-17.002 87.809-17.002zm-.009 4.316c-32.1 0-58.121 5.65-58.121 12.62 0 6.97 26.022 12.62 58.121 12.62 32.1 0 58.122-5.65 58.122-12.62 0-6.97-26.022-12.62-58.122-12.62z" opacity=".2" transform="translate(289.000000, 108.000000) translate(5.613462, 16.940956) translate(89.320566, 29.056259) rotate(-352.000000) translate(-89.320566, -29.056259)"/>
                            <path fill="#DA542E" d="M91.033 6.329c1.158 0 1.78 1.35 2.59 3.408.305.772.792 1.984 1.306 3.252l.259.637c.779 1.913 1.562 3.807 1.827 4.384.472 1.026 1.127 1.971 3.412 2.905 2.284.933 8.398 3.369 9.534 3.925 1.135.556 1.407 1.271 1.407 1.992 0 .394-.032.763-.575 1.206l-39.832.001c-.427-.415-.628-.934-.628-1.486.015-1.113 1.16-1.702 2.338-2.2l.337-.14c.857-.353 2.402-.967 4.634-1.843 2.285-.899 3.82-1.538 4.602-1.917 1.175-.57 1.81-.793 2.913-3.584.335-.846.742-1.877 1.164-2.934l.38-.954c.85-2.118 1.68-4.15 2.02-4.832.558-1.124 1.155-1.82 2.312-1.82z" transform="translate(289.000000, 108.000000) translate(5.613462, 16.940956) translate(90.850240, 17.183791) rotate(-343.000000) translate(-90.850240, -17.183791)"/>
                        </g>
                    </g>
                    <g opacity=".6" transform="translate(289.000000, 108.000000) translate(15.990122, 0.000000)">
                        <ellipse cx="25.915" cy="13.817" fill="#58B2F1" rx="5.275" ry="5.274" transform="translate(25.914508, 13.816940) rotate(-352.000000) translate(-25.914508, -13.816940)"/>
                        <ellipse cx="136.422" cy="66.034" fill="#58B2F1" rx="5.275" ry="5.274" transform="translate(136.421782, 66.034372) rotate(-352.000000) translate(-136.421782, -66.034372)"/>
                        <ellipse cx="10.649" cy="46.219" fill="#F92D5E" rx="9.429" ry="9.428" transform="translate(10.649099, 46.219430) rotate(-352.000000) translate(-10.649099, -46.219430)"/>
                        <ellipse cx="119.938" cy="31.75" fill="#5DC29A" rx="6.594" ry="6.593" transform="translate(119.938000, 31.750200) rotate(-352.000000) translate(-119.938000, -31.750200)"/>
                        <circle cx="58.384" cy="2.979" r="2.637" fill="#3BC47C" transform="translate(58.384045, 2.978637) rotate(-352.000000) translate(-58.384045, -2.978637)"/>
                        <circle cx="45.033" cy="30.486" r="2.637" fill="#FFDD50" transform="translate(45.032807, 30.485796) rotate(-352.000000) translate(-45.032807, -30.485796)"/>
                        <circle cx="145.287" cy="16.033" r="2.637" fill="#58B2F1" transform="translate(145.286543, 16.032995) rotate(-352.000000) translate(-145.286543, -16.032995)"/>
                        <circle cx="101.769" cy="16.56" r="2.637" fill="#F92D5E" transform="translate(101.769359, 16.560444) rotate(-352.000000) translate(-101.769359, -16.560444)"/>
                        <circle cx="150.034" cy="57.438" r="2.637" fill="#F92D5E" transform="translate(150.033872, 57.437726) rotate(-352.000000) translate(-150.033872, -57.437726)"/>
                    </g>
                </g>
            </g>
        </g>
    </g>
</svg>
