<svg xmlns="http://www.w3.org/2000/svg" xmlns:xlink="http://www.w3.org/1999/xlink" width="375" height="1420" viewBox="0 0 375 1420">
    <defs>
        <path id="1yo8kiz76a" d="M0 0H375V1420H0z"/>
    </defs>
    <g fill="none" fill-rule="evenodd">
        <g>
            <mask id="wcz9usq6eb" fill="#fff">
                <use xlink:href="#1yo8kiz76a"/>
            </mask>
            <g mask="url(#wcz9usq6eb)" opacity=".08">
                <g transform="translate(-155.197483, -83.333333)">
                    <path d="M285.069 481.944H510.41600000000005V690.277H285.069z"/>
                    <circle cx="263.542" cy="678.125" r="83.333" fill="#58B2F1" opacity=".6"/>
                    <circle cx="552.951" cy="782.118" r="142.882" fill="#3BC47C" fill-rule="nonzero" opacity=".6"/>
                    <circle cx="173.333" cy="1384.736" r="92.5" fill="#3BC47C" fill-rule="nonzero" opacity=".6"/>
                    <circle cx="510.417" cy="256.944" r="62.5" fill="#F92D5E" fill-rule="nonzero" opacity=".6"/>
                    <circle cx="202.257" cy="942.882" r="64.063" fill="#FFDE03" fill-rule="nonzero" opacity=".6"/>
                    <circle cx="160.764" cy="203.472" r="41.667" fill="#3BC47C" fill-rule="nonzero" opacity=".6"/>
                    <circle cx="112.847" cy="481.944" r="112.847" fill="#F92D5E" fill-rule="nonzero" opacity=".6"/>
                    <circle cx="510.847" cy="1193.944" r="164" fill="#58B2F1" fill-rule="nonzero" opacity=".6"/>
                </g>
            </g>
            <g mask="url(#wcz9usq6eb)">
                <g>
                    <g>
                        <path fill="#DA542E" d="M39.375 11.576c1.203-.476 2.011-.815 2.423-1.016.619-.302.953-.42 1.537-1.894.584-1.473 1.59-4.008 1.885-4.601.295-.594.61-.962 1.22-.963.608-.002.933.71 1.357 1.793.424 1.084 1.526 3.818 1.773 4.358.246.54.59 1.037 1.79 1.526 1.2.49 4.413 1.766 5.01 2.057.596.292.737.669.737 1.049-.001.38-.057.713-1.709 1.33-1.652.618-4.121 1.634-4.634 1.853-.512.22-.926.581-1.415 1.787-.49 1.207-1.664 4.068-1.954 4.68-.29.613-.53.988-1.3.99-.772.002-1.603-2.653-2.194-4.154-.591-1.5-.947-2.776-2.165-3.28s-4.837-1.967-5.46-2.239c-.515-.229-.751-.626-.75-1.06.01-.643.733-.957 1.41-1.238.451-.187 1.264-.513 2.44-.978z" transform="translate(138.000000, 92.000000) translate(2.954464, 9.286055) translate(46.316254, 13.813528) rotate(-343.000000) translate(-46.316254, -13.813528)"/>
                        <g>
                            <path fill="#706C74" d="M47.01 6.345c25.525 0 46.216 4.006 46.216 8.948 0 4.941-20.691 8.948-46.215 8.948-25.524 0-46.215-4.007-46.215-8.948 0-4.942 20.69-8.948 46.215-8.948zm-.004 2.272c-16.895 0-30.59 2.973-30.59 6.642 0 3.668 13.695 6.642 30.59 6.642s30.59-2.974 30.59-6.642c0-3.669-13.695-6.642-30.59-6.642z" opacity=".2" transform="translate(138.000000, 92.000000) translate(2.954464, 9.286055) translate(47.010814, 15.292692) rotate(-352.000000) translate(-47.010814, -15.292692)"/>
                            <path fill="#DA542E" d="M47.912 3.33c.61 0 .937.711 1.364 1.795.167.424.438 1.1.722 1.798l.19.467c.38.93.743 1.807.873 2.089.248.54.593 1.037 1.795 1.529.481.196 1.285.52 2.114.855l.498.202c1.076.437 2.095.856 2.406 1.009.598.292.74.669.74 1.048l-.001.094c-.01.173-.058.343-.3.54l-20.965.001c-.225-.218-.33-.491-.33-.782.008-.641.73-.952 1.407-1.231.451-.186 1.264-.51 2.439-.97 1.203-.473 2.01-.81 2.422-1.01.619-.299.953-.417 1.534-1.886.58-1.47 1.581-3.997 1.875-4.589.294-.592.608-.958 1.217-.958z" transform="translate(138.000000, 92.000000) translate(2.954464, 9.286055) translate(47.815964, 9.043887) rotate(-343.000000) translate(-47.815964, -9.043887)"/>
                        </g>
                    </g>
                    <g opacity=".6" transform="translate(138.000000, 92.000000) translate(6.788711, 0.000000)">
                        <ellipse cx="13.638" cy="7.32" fill="#58B2F1" rx="2.775" ry="2.795" transform="translate(13.637543, 7.319897) rotate(-352.000000) translate(-13.637543, -7.319897)"/>
                        <ellipse cx="71.768" cy="34.989" fill="#58B2F1" rx="2.775" ry="2.795" transform="translate(71.767974, 34.989477) rotate(-352.000000) translate(-71.767974, -34.989477)"/>
                        <ellipse cx="5.607" cy="24.49" fill="#F92D5E" rx="4.961" ry="4.995" transform="translate(5.607439, 24.489705) rotate(-352.000000) translate(-5.607439, -24.489705)"/>
                        <ellipse cx="63.097" cy="16.823" fill="#5DC29A" rx="3.469" ry="3.493" transform="translate(63.096967, 16.822581) rotate(-352.000000) translate(-63.096967, -16.822581)"/>
                        <ellipse cx="30.718" cy="1.577" fill="#3BC47C" rx="1.388" ry="1.397" transform="translate(30.717579, 1.576771) rotate(-352.000000) translate(-30.717579, -1.576771)"/>
                        <ellipse cx="23.694" cy="16.153" fill="#FFDD50" rx="1.388" ry="1.397" transform="translate(23.694392, 16.152584) rotate(-352.000000) translate(-23.694392, -16.152584)"/>
                        <ellipse cx="76.431" cy="8.494" fill="#58B2F1" rx="1.388" ry="1.397" transform="translate(76.431128, 8.494166) rotate(-352.000000) translate(-76.431128, -8.494166)"/>
                        <ellipse cx="53.54" cy="8.774" fill="#F92D5E" rx="1.388" ry="1.397" transform="translate(53.539669, 8.773657) rotate(-352.000000) translate(-53.539669, -8.773657)"/>
                        <ellipse cx="78.928" cy="30.434" fill="#F92D5E" rx="1.388" ry="1.397" transform="translate(78.928378, 30.434186) rotate(-352.000000) translate(-78.928378, -30.434186)"/>
                    </g>
                </g>
            </g>
        </g>
    </g>
</svg>
