<svg xmlns="http://www.w3.org/2000/svg" xmlns:xlink="http://www.w3.org/1999/xlink" width="1024" height="2030" viewBox="0 0 1024 2030">
    <defs>
        <path id="2aqnivjlsa" d="M0 0H1024V2030H0z"/>
    </defs>
    <g fill="none" fill-rule="evenodd">
        <g>
            <mask id="x7i4qmhw5b" fill="#fff">
                <use xlink:href="#2aqnivjlsa"/>
            </mask>
            <g mask="url(#x7i4qmhw5b)" opacity=".08">
                <g transform="translate(-258.844444, -170.666667)">
                    <path d="M583.822 987.022H1045.333V1413.689H583.822z"/>
                    <circle cx="539.733" cy="1388.8" r="170.667" fill="#58B2F1" opacity=".6"/>
                    <circle cx="1342.578" cy="199.111" r="199.111" fill="#58B2F1" opacity=".6"/>
                    <circle cx="1132.444" cy="1601.778" r="292.622" fill="#3BC47C" fill-rule="nonzero" opacity=".6"/>
                    <circle cx="1100.744" cy="2364.211" r="286.5" fill="#58B2F1" fill-rule="nonzero" opacity=".6"/>
                    <circle cx="1045.333" cy="526.222" r="128" fill="#F92D5E" fill-rule="nonzero" opacity=".6"/>
                    <circle cx="414.222" cy="1931.022" r="131.2" fill="#FFDE03" fill-rule="nonzero" opacity=".6"/>
                    <circle cx="329.244" cy="416.711" r="85.333" fill="#3BC47C" fill-rule="nonzero" opacity=".6"/>
                    <circle cx="231.111" cy="987.022" r="231.111" fill="#F92D5E" fill-rule="nonzero" opacity=".6"/>
                </g>
            </g>
            <g mask="url(#x7i4qmhw5b)">
                <g>
                    <g>
                        <path fill="#DA542E" d="M79.744 23.444c2.436-.965 4.072-1.651 4.907-2.058 1.252-.611 1.93-.852 3.112-3.835 1.183-2.984 3.22-8.117 3.818-9.319.598-1.202 1.236-1.947 2.469-1.95 1.233-.003 1.891 1.436 2.75 3.632.858 2.196 3.09 7.731 3.59 8.825.5 1.093 1.195 2.101 3.626 3.092 2.43.99 8.936 3.575 10.144 4.165 1.208.59 1.495 1.354 1.493 2.124-.001.77-.114 1.445-3.46 2.695-3.345 1.25-8.346 3.307-9.384 3.753-1.038.445-1.875 1.176-2.867 3.619-.992 2.443-3.368 8.238-3.956 9.478-.587 1.24-1.073 2-2.635 2.004-1.56.004-3.245-5.374-4.442-8.413-1.197-3.04-1.919-5.623-4.385-6.643-2.467-1.02-9.796-3.983-11.056-4.534-1.045-.464-1.522-1.268-1.52-2.149.02-1.301 1.484-1.936 2.855-2.505.914-.38 2.56-1.04 4.94-1.98z" transform="translate(411.000000, 64.000000) translate(5.983426, 18.057479) translate(93.800751, 27.975599) rotate(-343.000000) translate(-93.800751, -27.975599)"/>
                        <g>
                            <path fill="#706C74" d="M95.207 12.85c51.692 0 93.597 8.113 93.597 18.121 0 10.009-41.905 18.122-93.597 18.122-51.691 0-93.596-8.113-93.596-18.122 0-10.008 41.905-18.121 93.596-18.121zm-.01 4.6c-34.215 0-61.952 6.023-61.952 13.452 0 7.43 27.737 13.452 61.953 13.452 34.215 0 61.952-6.023 61.952-13.452S129.413 17.45 95.198 17.45z" opacity=".2" transform="translate(411.000000, 64.000000) translate(5.983426, 18.057479) translate(95.207389, 30.971261) rotate(-352.000000) translate(-95.207389, -30.971261)"/>
                            <path fill="#DA542E" d="M97.033 6.746c1.234 0 1.896 1.438 2.761 3.632.865 2.195 3.113 7.726 3.615 8.82.503 1.092 1.201 2.1 3.637 3.095 1.025.419 2.774 1.122 4.546 1.84l.664.269c2.208.896 4.315 1.763 4.952 2.075 1.21.592 1.5 1.355 1.5 2.123 0 .42-.034.813-.612 1.285l-42.46.001c-.453-.442-.668-.995-.668-1.583.018-1.299 1.48-1.929 2.851-2.494.914-.376 2.56-1.031 4.94-1.965 2.436-.958 4.071-1.639 4.906-2.043 1.251-.607 1.929-.845 3.105-3.82 1.176-2.976 3.202-8.096 3.797-9.295.596-1.198 1.232-1.94 2.466-1.94z" transform="translate(411.000000, 64.000000) translate(5.983426, 18.057479) translate(96.837879, 18.316318) rotate(-343.000000) translate(-96.837879, -18.316318)"/>
                        </g>
                    </g>
                    <g opacity=".6" transform="translate(411.000000, 64.000000) translate(17.043978, 0.000000)">
                        <circle cx="27.622" cy="14.728" r="5.622" fill="#58B2F1" transform="translate(27.622447, 14.727569) rotate(-352.000000) translate(-27.622447, -14.727569)"/>
                        <circle cx="145.413" cy="70.386" r="5.622" fill="#58B2F1" transform="translate(145.412889, 70.386479) rotate(-352.000000) translate(-145.412889, -70.386479)"/>
                        <circle cx="11.351" cy="49.266" r="10.05" fill="#F92D5E" transform="translate(11.350945, 49.265599) rotate(-352.000000) translate(-11.350945, -49.265599)"/>
                        <circle cx="127.843" cy="33.843" r="7.028" fill="#5DC29A" transform="translate(127.842716, 33.842750) rotate(-352.000000) translate(-127.842716, -33.842750)"/>
                        <circle cx="62.232" cy="3.175" r="2.811" fill="#3BC47C" transform="translate(62.231944, 3.174949) rotate(-352.000000) translate(-62.231944, -3.174949)"/>
                        <circle cx="48.001" cy="32.495" r="2.811" fill="#FFDD50" transform="translate(48.000770, 32.495014) rotate(-352.000000) translate(-48.000770, -32.495014)"/>
                        <circle cx="154.862" cy="17.09" r="2.811" fill="#58B2F1" transform="translate(154.861898, 17.089677) rotate(-352.000000) translate(-154.861898, -17.089677)"/>
                        <circle cx="108.477" cy="17.652" r="2.811" fill="#F92D5E" transform="translate(108.476640, 17.651888) rotate(-352.000000) translate(-108.476640, -17.651888)"/>
                        <circle cx="159.922" cy="61.223" r="2.811" fill="#F92D5E" transform="translate(159.922108, 61.223256) rotate(-352.000000) translate(-159.922108, -61.223256)"/>
                    </g>
                </g>
            </g>
        </g>
    </g>
</svg>
