<svg xmlns="http://www.w3.org/2000/svg" xmlns:xlink="http://www.w3.org/1999/xlink" width="300" height="240" viewBox="0 0 300 240">
    <defs>
        <path id="dnnrn2487a" d="M0 0H300V240H0z"/>
        <path id="onbtxmt6jc" d="M0 0L8.738 0 8.738 8.817 0 8.817z"/>
        <path id="fhz8nqo1fe" d="M0 0L150.485 0 150.485 192.009 0 192.009z"/>
    </defs>
    <g fill="none" fill-rule="evenodd">
        <g>
            <g transform="translate(-857.000000, -1114.000000) translate(857.000000, 1114.000000)">
                <mask id="b26e20v1xb" fill="#fff">
                    <use xlink:href="#dnnrn2487a"/>
                </mask>
                <g mask="url(#b26e20v1xb)">
                    <g>
                        <path fill="#AF0000" d="M45.798 215.906c4.186-1.186 6.555-5.594 5.152-9.674-1.05-3.054-3.247-6.256-7.821-7.124-13.906-2.64-22.858 6.786-19.049 13.95 2.691 5.06 14.318 4.946 21.718 2.848" transform="translate(183.613201, 118.944495) rotate(41.000000) translate(-183.613201, -118.944495) translate(108.235738, 8.944495)"/>
                        <path fill="#FFF" d="M25.121 210.056c-1.324.154-7.073 1.05-9.087 5.186-.13.268-.162.577-.045.851.2.468.845.994 2.805.751 3.075-.38 4.656-1.472 8.571-1.509.577-.005 1.061-.415 1.133-.958.16-1.223-.039-3.283-2.831-4.26-.175-.06-.361-.082-.546-.06" transform="translate(183.613201, 118.944495) rotate(41.000000) translate(-183.613201, -118.944495) translate(108.235738, 8.944495)"/>
                        <g transform="translate(183.613201, 118.944495) rotate(41.000000) translate(-183.613201, -118.944495) translate(108.235738, 8.944495) translate(28.640620, 211.183249)">
                            <mask id="zejvo3rwkd" fill="#fff">
                                <use xlink:href="#onbtxmt6jc"/>
                            </mask>
                            <path fill="#FFF" d="M4.859.094C3.955.608.103 3.057 0 7.574c-.006.293.072.598.246.828.297.392.933.718 2.266-.057C4.605 7.13 5.388 5.647 8.2 4.53c.413-.165.629-.691.503-1.232C8.42 2.083 7.603.164 5.272.002c-.146-.01-.287.02-.413.092" mask="url(#zejvo3rwkd)"/>
                        </g>
                        <path fill="#FFF" d="M45.315 211.03c1.019.276 5.407 1.675 6.376 5.529.063.25.042.526-.09.754-.228.39-.813.785-2.318.364-2.362-.662-3.443-1.79-6.517-2.238-.452-.066-.773-.478-.748-.964.056-1.093.518-2.886 2.859-3.449.146-.035.296-.034.438.004" transform="translate(183.613201, 118.944495) rotate(41.000000) translate(-183.613201, -118.944495) translate(108.235738, 8.944495)"/>
                        <path fill="#AF0000" d="M103.876 214.41c-4.186-1.187-6.555-5.595-5.152-9.675 1.05-3.054 3.247-6.256 7.822-7.124 13.905-2.64 22.858 6.786 19.048 13.95-2.691 5.06-14.318 4.946-21.718 2.849" transform="translate(183.613201, 118.944495) rotate(41.000000) translate(-183.613201, -118.944495) translate(108.235738, 8.944495)"/>
                        <path fill="#FFF" d="M124.348 209.483c1.324.154 7.073 1.05 9.087 5.186.13.268.162.577.045.851-.2.468-.845.994-2.805.751-3.075-.38-4.656-1.472-8.571-1.509-.577-.005-1.061-.415-1.133-.958-.16-1.223.039-3.284 2.831-4.26.175-.061.361-.082.546-.061M115.988 210.007c.904.513 4.757 2.963 4.859 7.48.006.293-.072.597-.246.828-.297.392-.933.717-2.266-.057-2.093-1.216-2.876-2.698-5.686-3.817-.414-.164-.63-.69-.504-1.23.283-1.216 1.099-3.134 3.43-3.297.146-.01.287.022.413.093M103.892 209.912c-1.019.276-5.407 1.675-6.377 5.529-.062.25-.041.526.092.754.226.39.812.785 2.317.364 2.362-.662 3.443-1.79 6.517-2.238.452-.066.773-.478.748-.964-.056-1.093-.518-2.886-2.86-3.449-.145-.035-.295-.034-.437.004" transform="translate(183.613201, 118.944495) rotate(41.000000) translate(-183.613201, -118.944495) translate(108.235738, 8.944495)"/>
                        <path fill="#FFA700" d="M37.206 20.624S36.65.743 41.768 4.426c5.117 3.682 8.041 12.729 8.041 12.729l-12.603 3.47z" transform="translate(183.613201, 118.944495) rotate(41.000000) translate(-183.613201, -118.944495) translate(108.235738, 8.944495)"/>
                        <path fill="#FFF" d="M42.828 8.351c-.34.293-.434.796-.225 1.202.465.905 1.276 2.528 1.814 3.865.212.526.809.745 1.288.474l.188-.107c.449-.254.615-.841.37-1.31-.533-1.02-1.433-2.735-2.05-3.86-.283-.518-.945-.643-1.385-.264M42.666 6.79c.12.527-.207 1.053-.73 1.174-.522.12-1.042-.209-1.162-.736-.12-.527.206-1.053.729-1.174.522-.12 1.043.209 1.163.736" transform="translate(183.613201, 118.944495) rotate(41.000000) translate(-183.613201, -118.944495) translate(108.235738, 8.944495)"/>
                        <path fill="#FFA700" d="M57.9 16.082S60.215-3.28 64.61 1.035c4.396 4.315 5.912 13.513 5.912 13.513L57.9 16.082z" transform="translate(183.613201, 118.944495) rotate(41.000000) translate(-183.613201, -118.944495) translate(108.235738, 8.944495)"/>
                        <path fill="#FFF" d="M64 4.617c-.442.228-.634.691-.46 1.108.39.928 1.06 2.59 1.462 3.94.158.53.813.828 1.412.641l.235-.073c.561-.175.85-.708.645-1.19-.449-1.048-1.208-2.81-1.735-3.97-.243-.534-.987-.751-1.559-.456M65.282 2.191c.041.54-.359 1.01-.893 1.052-.535.042-1.002-.361-1.043-.901-.042-.54.358-1.01.893-1.052.534-.042 1.001.362 1.043.901" transform="translate(183.613201, 118.944495) rotate(41.000000) translate(-183.613201, -118.944495) translate(108.235738, 8.944495)"/>
                        <path fill="#FFA700" d="M82.32 13.518S90.496-4.386 93.697 1.016c3.201 5.401 1.994 14.658 1.994 14.658l-13.37-2.156z" transform="translate(183.613201, 118.944495) rotate(41.000000) translate(-183.613201, -118.944495) translate(108.235738, 8.944495)"/>
                        <path fill="#FFF" d="M92.545 4.829c-.387.125-.648.574-.626 1.072.051 1.112.123 3.096.076 4.667-.019.618.392 1.12.885 1.083l.194-.015c.462-.034.814-.531.784-1.11-.065-1.257-.177-3.373-.271-4.774-.044-.644-.541-1.085-1.042-.923M94.614 2.583c-.112.53-.628.866-1.152.753-.524-.114-.858-.634-.746-1.163.112-.529.628-.866 1.153-.753.524.114.858.634.745 1.163" transform="translate(183.613201, 118.944495) rotate(41.000000) translate(-183.613201, -118.944495) translate(108.235738, 8.944495)"/>
                        <path fill="#FFA700" d="M103.624 17.437s10.334-16.312 12.62-10.655c2.286 5.656-.178 14.482-.178 14.482l-12.442-3.827z" transform="translate(183.613201, 118.944495) rotate(41.000000) translate(-183.613201, -118.944495) translate(108.235738, 8.944495)"/>
                        <path fill="#FFF" d="M115.12 9.844c-.363.056-.645.455-.675.954-.067 1.112-.205 3.094-.407 4.644-.08.61.24 1.18.689 1.23l.176.02c.421.046.79-.386.822-.965.07-1.259.184-3.378.241-4.785.026-.647-.378-1.171-.847-1.098M115.337 7.492c-.185.508-.742.77-1.246.583-.503-.186-.762-.749-.577-1.257.184-.507.742-.768 1.245-.582.503.186.762.748.578 1.256" transform="translate(183.613201, 118.944495) rotate(41.000000) translate(-183.613201, -118.944495) translate(108.235738, 8.944495)"/>
                        <g transform="translate(183.613201, 118.944495) rotate(41.000000) translate(-183.613201, -118.944495) translate(108.235738, 8.944495) translate(0.000000, 11.081255)">
                            <mask id="pla8oxsgbf" fill="#fff">
                                <use xlink:href="#fhz8nqo1fe"/>
                            </mask>
                            <path fill="#FF0006" d="M150.43 169.59L137.652 26.515c-.335-3.75-2.147-7.213-5.05-9.564C125.39 11.105 108.702 1.517 75.802.046V0h-.006c-.368.014-.737.014-1.105 0h-.005v.046c-32.9 1.471-49.588 11.06-56.803 16.906-2.902 2.351-4.714 5.814-5.05 9.564L.057 169.589c-.582 6.515 3.393 12.583 9.563 14.514 22.815 7.14 57.988 8.182 64.956 7.854.445-.021.89-.021 1.335 0 6.968.328 42.141-.714 64.957-7.854 6.169-1.931 10.144-7.999 9.562-14.514" mask="url(#pla8oxsgbf)"/>
                        </g>
                        <path fill="#FF4600" d="M32.771 55.3s-1.677-5.903-8.386-3.935c-6.709 1.968-7.907 13.775.48 14.267 8.385.492 9.823-6.15 7.906-10.332M31.583 33.656c12.52.488 23.752-9.523 21.41-19.576-8.757 1.681-15.546 3.512-18.084 4.435-4.607 1.677-9.191 3.428-12.671 6.85-.032 3.81 1.701 7.992 9.345 8.29M124.64 40.709c-6.987 7.8 1.092 25.064 14.914 24.425-.065-7.49-.505-17.062-1.918-26.724-2.444-1.566-7.672-3.647-12.996 2.299" transform="translate(183.613201, 118.944495) rotate(41.000000) translate(-183.613201, -118.944495) translate(108.235738, 8.944495)"/>
                        <path fill="#F6F7F7" d="M58.633 36.256s-1.346-8.818-11.218-6.614c-9.872 2.205-9.321 15.32 1.01 15.32 8.75 0 10.993-5.51 10.208-8.706" transform="translate(183.613201, 118.944495) rotate(41.000000) translate(-183.613201, -118.944495) translate(108.235738, 8.944495)"/>
                        <path fill="#FFF" d="M46.106 32.376c.268.574.958.877 1.62.72 1.713-.41 5.038-.772 7.553 1.602.533.503 1.416.509 1.959.014l.004-.004c.525-.478.54-1.248.032-1.741-1.478-1.438-4.912-3.84-10.32-2.276-.773.224-1.166 1.005-.848 1.685M45.611 34.302c0 .812-.652 1.47-1.456 1.47-.804 0-1.456-.658-1.456-1.47 0-.811.652-1.47 1.456-1.47.804 0 1.456.659 1.456 1.47" transform="translate(183.613201, 118.944495) rotate(41.000000) translate(-183.613201, -118.944495) translate(108.235738, 8.944495)"/>
                        <path fill="#AF0000" d="M54.561 42.206s1.325-1.43.736-3.613c-.588-2.183-3.09-4.215-6.843-2.86-3.752 1.355-4.782 5.72-2.428 7.452 2.355 1.731 7.064.828 8.535-.979" transform="translate(183.613201, 118.944495) rotate(41.000000) translate(-183.613201, -118.944495) translate(108.235738, 8.944495)"/>
                        <path fill="#FFF" d="M54.054 38.456s0-1.802-2.144-1.57c-2.144.23-2.297 2.818-.46 2.91 1.838.093 2.706-.739 2.604-1.34" transform="translate(183.613201, 118.944495) rotate(41.000000) translate(-183.613201, -118.944495) translate(108.235738, 8.944495)"/>
                        <path fill="#F6F7F7" d="M94.333 36.233s1.346-8.817 11.219-6.613c9.872 2.204 9.32 15.32-1.01 15.32-8.75 0-10.994-5.51-10.209-8.707" transform="translate(183.613201, 118.944495) rotate(41.000000) translate(-183.613201, -118.944495) translate(108.235738, 8.944495)"/>
                        <path fill="#FFF" d="M106.542 32.108c-.268.574-.958.878-1.62.72-1.713-.409-5.039-.772-7.553 1.603-.533.503-1.416.508-1.96.014l-.004-.004c-.525-.478-.539-1.249-.032-1.742 1.478-1.437 4.913-3.84 10.32-2.275.773.223 1.167 1.005.85 1.684M106.512 33.41c0 .812.652 1.47 1.457 1.47.804 0 1.456-.658 1.456-1.47 0-.811-.652-1.469-1.456-1.469-.805 0-1.457.658-1.457 1.47" transform="translate(183.613201, 118.944495) rotate(41.000000) translate(-183.613201, -118.944495) translate(108.235738, 8.944495)"/>
                        <path fill="#AF0000" d="M97.62 41.107s-1.325-1.43-.737-3.613c.589-2.183 3.09-4.215 6.843-2.86s4.783 5.72 2.429 7.452c-2.355 1.731-7.064.828-8.536-.979" transform="translate(183.613201, 118.944495) rotate(41.000000) translate(-183.613201, -118.944495) translate(108.235738, 8.944495)"/>
                        <path fill="#FFF" d="M98.65 37.377s0-1.802 2.144-1.571c2.144.23 2.297 2.818.46 2.911-1.838.092-2.705-.74-2.604-1.34" transform="translate(183.613201, 118.944495) rotate(41.000000) translate(-183.613201, -118.944495) translate(108.235738, 8.944495)"/>
                        <path fill="#F6F7F7" d="M84.816 32.267s-.563-8.964-10.592-7.598c-10.03 1.365-10.637 14.575-.346 15.461 8.718.75 11.439-4.588 10.938-7.863" transform="translate(183.613201, 118.944495) rotate(41.000000) translate(-183.613201, -118.944495) translate(108.235738, 8.944495)"/>
                        <path fill="#FFF" d="M72.77 26.307c.199.647.814 1.037 1.444.922 1.63-.297 4.757-.405 6.886 2.394.451.593 1.273.675 1.822.184l.005-.004c.53-.475.613-1.311.184-1.892-1.248-1.69-4.23-4.6-9.402-3.364-.739.177-1.174.993-.94 1.76M71.962 28.308c-.07.809-.776 1.407-1.577 1.337-.801-.07-1.394-.783-1.324-1.591.07-.809.775-1.407 1.576-1.337.802.07 1.395.783 1.325 1.591" transform="translate(183.613201, 118.944495) rotate(41.000000) translate(-183.613201, -118.944495) translate(108.235738, 8.944495)"/>
                        <path fill="#AF0000" d="M79.896 37.049s1.432-1.323 1.033-3.576c-.4-2.253-2.707-4.525-6.538-3.496-3.832 1.029-5.22 5.337-3.033 7.293 2.187 1.956 6.928 1.467 8.538-.221" transform="translate(183.613201, 118.944495) rotate(41.000000) translate(-183.613201, -118.944495) translate(108.235738, 8.944495)"/>
                        <path fill="#FFF" d="M79.61 33.044s.173-1.814-1.987-1.751c-2.16.062-2.561 2.654-.737 2.893 1.823.238 2.768-.53 2.724-1.142" transform="translate(183.613201, 118.944495) rotate(41.000000) translate(-183.613201, -118.944495) translate(108.235738, 8.944495)"/>
                        <path fill="#660F10" d="M68.964 45.113s.474-1.703-2.67-1.52c-3.145.182-2.536 2.827-.203 2.918 2.332.091 2.806-.79 2.873-1.398M78.118 44.79s.473-1.702-2.67-1.52c-3.145.183-2.536 2.828-.204 2.92 2.333.09 2.806-.791 2.874-1.4M87.815 45.281s.473-1.702-2.671-1.52c-3.144.182-2.536 2.828-.203 2.919 2.333.091 2.806-.79 2.874-1.399" transform="translate(183.613201, 118.944495) rotate(41.000000) translate(-183.613201, -118.944495) translate(108.235738, 8.944495)"/>
                        <path fill="#FFF" d="M59.944 53.762s-.546 4.898 1.744 4.898 3.053-4.046 3.053-4.046l-4.797-.852zM91.079 54.705s.545 4.898-1.745 4.898-3.053-4.046-3.053-4.046l4.798-.852z" transform="translate(183.613201, 118.944495) rotate(41.000000) translate(-183.613201, -118.944495) translate(108.235738, 8.944495)"/>
                        <path fill="#660F10" d="M99.143 50.436c-2.189-4.207-4.607-3.272-4.838-1.87-.118.719.4 1.652.932 2.391-2.402.759-8.663 2.295-19.375 2.055v-.005l-.108.002-.108-.002v.005c-10.712.24-16.972-1.296-19.375-2.055.533-.74 1.05-1.672.932-2.391-.23-1.402-2.65-2.337-4.837 1.87 0 0-2.65 3.428-.577 4.597 1.297.73 2.323-.565 2.91-1.638 7.87 3.157 19.808 2.817 21.055 2.772 1.247.045 13.186.385 21.055-2.772.587 1.073 1.613 2.369 2.91 1.638 2.073-1.169-.576-4.597-.576-4.597" transform="translate(183.613201, 118.944495) rotate(41.000000) translate(-183.613201, -118.944495) translate(108.235738, 8.944495)"/>
                        <path fill="#FFF" d="M113.578 24.155c0 1.353-1.087 2.45-2.428 2.45-1.34 0-2.427-1.097-2.427-2.45 0-1.352 1.087-2.449 2.427-2.449s2.428 1.097 2.428 2.45M116.197 27.283c-.652 1.102-.29 2.524.811 3.18l1.223.73c5.892 3.513 9.706 9.668 10.227 16.503l1.677 22.021c.07.911.884 1.581 1.793 1.475.857-.101 1.482-.86 1.416-1.72l-1.934-25.239c-.487-6.366-3.837-12.169-9.109-15.78l-2.782-1.906c-1.111-.76-2.636-.424-3.322.736" transform="translate(183.613201, 118.944495) rotate(41.000000) translate(-183.613201, -118.944495) translate(108.235738, 8.944495)"/>
                        <path fill="#FFA700" d="M29.655 95.192c.54-8.79 2.977-27.205 13.917-25.91 0 0 4.997-.13 6.312 7.185 0 0 .657 3.657-.746 3.831-1.402.175-.788-4.267-1.84-3.918-1.052.348 0 6.095-1.578 6.183-1.578.087 0-6.357-1.228-6.01-1.227.35-.087 6.793-1.577 6.88-1.49.087 0-7.315-1.403-8.446-1.403-1.132-4.12 1.044-4.734 5.747-.48 3.685-.854 10.525-.655 14.485.075 1.492-.886 2.84-2.33 3.257-2.151.623-4.274-1.061-4.138-3.284M120.584 95.622c-.54-8.79-2.977-27.205-13.917-25.91 0 0-4.996-.13-6.311 7.185 0 0-.658 3.657.745 3.831 1.402.175.789-4.267 1.84-3.918 1.053.348 0 6.095 1.579 6.183 1.577.087 0-6.357 1.227-6.01 1.227.35.087 6.793 1.578 6.88 1.49.087 0-7.315 1.402-8.446 1.403-1.132 4.12 1.044 4.734 5.747.48 3.685.854 10.525.655 14.485-.074 1.492.886 2.84 2.33 3.257 2.151.623 4.274-1.061 4.138-3.284" transform="translate(183.613201, 118.944495) rotate(41.000000) translate(-183.613201, -118.944495) translate(108.235738, 8.944495)"/>
                        <path fill="#FF4600" d="M16.746 180.149c28.831-.748 29.94-34.744 20.33-47.073 0 0-12.618-16.675-31.799-8.424L.751 175.217c4.255 3.196 9.618 5.097 15.995 4.932M113.674 133.392c5.922 4.098 22.578-1.49 18.506-13.409 0 0-4.071-8.94-12.954-6.332-8.883 2.607-11.474 15.644-5.552 19.741M150.698 180.912l-1.748-19.215c-5.799-4.599-21.154-12.754-47.238.64-20.663 10.61-22.64 28.049-17.486 40.664 13.776-.409 39.032-2.264 56.83-7.729 6.22-1.91 10.229-7.914 9.642-14.36" transform="translate(183.613201, 118.944495) rotate(41.000000) translate(-183.613201, -118.944495) translate(108.235738, 8.944495)"/>
                    </g>
                </g>
            </g>
        </g>
    </g>
</svg>
