<svg xmlns="http://www.w3.org/2000/svg" xmlns:xlink="http://www.w3.org/1999/xlink" width="210" height="168" viewBox="0 0 210 168">
    <defs>
        <path id="dzx2j7xi2a" d="M0 0H210V168H0z"/>
        <path id="6n1n5mcurc" d="M0 0L6.117 0 6.117 6.172 0 6.172z"/>
        <path id="4zadgikr5e" d="M0 0L105.34 0 105.34 134.406 0 134.406z"/>
    </defs>
    <g fill="none" fill-rule="evenodd">
        <g>
            <g transform="translate(-701.000000, -1051.000000) translate(701.000000, 1051.000000)">
                <mask id="vt4yuskf0b" fill="#fff">
                    <use xlink:href="#dzx2j7xi2a"/>
                </mask>
                <g mask="url(#vt4yuskf0b)">
                    <g>
                        <path fill="#AF0000" d="M32.059 151.134c2.93-.83 4.588-3.916 3.606-6.771-.735-2.138-2.273-4.38-5.475-4.988-9.734-1.847-16 4.75-13.334 9.765 1.884 3.542 10.022 3.463 15.203 1.994" transform="translate(128.529241, 83.261147) rotate(41.000000) translate(-128.529241, -83.261147) translate(75.765016, 6.261147)"/>
                        <path fill="#FFF" d="M17.585 147.04c-.927.107-4.952.735-6.361 3.63-.092.187-.114.403-.032.595.14.328.592.696 1.964.526 2.152-.267 3.259-1.03 6-1.056.403-.004.742-.291.792-.671.112-.856-.026-2.299-1.981-2.982-.122-.043-.253-.058-.382-.043" transform="translate(128.529241, 83.261147) rotate(41.000000) translate(-128.529241, -83.261147) translate(75.765016, 6.261147)"/>
                        <g transform="translate(128.529241, 83.261147) rotate(41.000000) translate(-128.529241, -83.261147) translate(75.765016, 6.261147) translate(20.048434, 147.828274)">
                            <mask id="zij2whewmd" fill="#fff">
                                <use xlink:href="#6n1n5mcurc"/>
                            </mask>
                            <path fill="#FFF" d="M3.401.066C2.768.426.071 2.14.001 5.302c-.005.205.05.418.171.58.208.274.653.502 1.587-.04 1.464-.851 2.013-1.889 3.98-2.672.29-.115.44-.484.352-.862-.198-.85-.769-2.193-2.4-2.307-.103-.007-.202.015-.29.065" mask="url(#zij2whewmd)"/>
                        </g>
                        <path fill="#FFF" d="M31.72 147.721c.714.193 3.785 1.173 4.464 3.87.044.175.03.368-.064.528-.159.273-.568.55-1.622.255-1.653-.464-2.41-1.253-4.562-1.567-.316-.046-.54-.335-.523-.675.039-.765.362-2.02 2-2.414.103-.025.208-.024.307.003" transform="translate(128.529241, 83.261147) rotate(41.000000) translate(-128.529241, -83.261147) translate(75.765016, 6.261147)"/>
                        <path fill="#AF0000" d="M72.713 150.087c-2.93-.831-4.588-3.916-3.606-6.772.735-2.138 2.273-4.38 5.475-4.987 9.734-1.848 16 4.75 13.334 9.764-1.884 3.542-10.022 3.463-15.203 1.995" transform="translate(128.529241, 83.261147) rotate(41.000000) translate(-128.529241, -83.261147) translate(75.765016, 6.261147)"/>
                        <path fill="#FFF" d="M87.043 146.638c.927.108 4.952.736 6.361 3.63.092.188.114.404.032.596-.14.327-.591.696-1.963.526-2.153-.267-3.26-1.03-6-1.057-.404-.003-.743-.29-.793-.67-.112-.856.027-2.299 1.982-2.982.122-.043.252-.058.381-.043M81.192 147.005c.633.36 3.33 2.074 3.4 5.236.005.205-.05.418-.171.58-.208.274-.653.502-1.587-.04-1.464-.852-2.013-1.889-3.98-2.672-.29-.115-.44-.484-.352-.862.198-.85.769-2.193 2.4-2.307.103-.007.202.015.29.065M72.724 146.939c-.713.193-3.785 1.172-4.463 3.87-.044.175-.03.368.064.528.158.273.568.55 1.622.254 1.653-.463 2.41-1.253 4.562-1.566.316-.046.54-.335.523-.675-.039-.765-.362-2.02-2.001-2.414-.102-.025-.207-.024-.307.003" transform="translate(128.529241, 83.261147) rotate(41.000000) translate(-128.529241, -83.261147) translate(75.765016, 6.261147)"/>
                        <path fill="#FFA700" d="M26.044 14.437S25.654.52 29.237 3.097c3.583 2.579 5.63 8.911 5.63 8.911l-8.823 2.43z" transform="translate(128.529241, 83.261147) rotate(41.000000) translate(-128.529241, -83.261147) translate(75.765016, 6.261147)"/>
                        <path fill="#FFF" d="M29.98 5.846c-.238.205-.304.557-.158.84.326.634.893 1.771 1.27 2.707.148.368.566.521.901.331l.132-.074c.314-.178.43-.59.26-.918-.374-.714-1.004-1.914-1.436-2.702-.198-.362-.661-.45-.97-.184M29.866 4.753c.084.37-.144.737-.51.822-.366.084-.73-.146-.814-.516-.084-.368.144-.736.51-.821.366-.085.73.146.814.515" transform="translate(128.529241, 83.261147) rotate(41.000000) translate(-128.529241, -83.261147) translate(75.765016, 6.261147)"/>
                        <path fill="#FFA700" d="M40.53 11.257S42.15-2.296 45.227.724c3.077 3.02 4.138 9.46 4.138 9.46l-8.835 1.073z" transform="translate(128.529241, 83.261147) rotate(41.000000) translate(-128.529241, -83.261147) translate(75.765016, 6.261147)"/>
                        <path fill="#FFF" d="M44.8 3.232c-.31.16-.444.484-.322.775.273.65.742 1.814 1.023 2.758.11.372.57.58.989.45l.164-.052c.393-.123.596-.496.452-.833-.314-.734-.846-1.967-1.215-2.779-.17-.374-.69-.526-1.091-.32M45.697 1.534c.03.377-.25.707-.625.736-.374.03-.701-.253-.73-.63-.029-.378.25-.708.625-.737.374-.03.701.253.73.63" transform="translate(128.529241, 83.261147) rotate(41.000000) translate(-128.529241, -83.261147) translate(75.765016, 6.261147)"/>
                        <path fill="#FFA700" d="M57.625 9.462S63.346-3.07 65.587.711c2.241 3.78 1.396 10.261 1.396 10.261l-9.358-1.51z" transform="translate(128.529241, 83.261147) rotate(41.000000) translate(-128.529241, -83.261147) translate(75.765016, 6.261147)"/>
                        <path fill="#FFF" d="M64.781 3.38c-.27.088-.453.402-.437.75.035.779.085 2.168.052 3.268-.013.432.275.784.62.758l.136-.01c.323-.025.57-.373.549-.777-.046-.88-.124-2.362-.19-3.342-.03-.452-.379-.76-.73-.647M66.23 1.808c-.079.37-.44.606-.807.527-.367-.08-.6-.444-.522-.814.079-.37.44-.606.807-.527.367.08.6.444.522.814" transform="translate(128.529241, 83.261147) rotate(41.000000) translate(-128.529241, -83.261147) translate(75.765016, 6.261147)"/>
                        <path fill="#FFA700" d="M72.536 12.206S79.77.788 81.371 4.747c1.6 3.96-.125 10.138-.125 10.138l-8.71-2.68z" transform="translate(128.529241, 83.261147) rotate(41.000000) translate(-128.529241, -83.261147) translate(75.765016, 6.261147)"/>
                        <path fill="#FFF" d="M80.583 6.89c-.253.04-.45.32-.471.669-.048.778-.144 2.165-.286 3.25-.055.427.168.827.483.861l.123.014c.295.032.553-.27.575-.675.05-.881.13-2.365.17-3.35.018-.453-.265-.82-.594-.768M80.736 5.245c-.13.355-.52.538-.872.408-.352-.13-.533-.525-.404-.88s.519-.538.871-.408c.353.13.534.524.405.88" transform="translate(128.529241, 83.261147) rotate(41.000000) translate(-128.529241, -83.261147) translate(75.765016, 6.261147)"/>
                        <g transform="translate(128.529241, 83.261147) rotate(41.000000) translate(-128.529241, -83.261147) translate(75.765016, 6.261147) translate(0.000000, 7.756879)">
                            <mask id="rwzpg0o99f" fill="#fff">
                                <use xlink:href="#4zadgikr5e"/>
                            </mask>
                            <path fill="#FF0006" d="M105.3 118.712L96.357 18.561c-.234-2.624-1.503-5.049-3.534-6.695C87.773 7.774 76.09 1.062 53.06.033V0h-.004c-.258.01-.516.01-.774 0h-.004v.033c-23.03 1.03-34.711 7.74-39.762 11.833-2.03 1.646-3.3 4.07-3.534 6.695L.039 118.712c-.407 4.561 2.376 8.808 6.694 10.16 15.971 4.998 40.592 5.727 45.47 5.498.311-.015.623-.015.934 0 4.878.23 29.499-.5 45.47-5.498 4.318-1.352 7.1-5.599 6.693-10.16" mask="url(#rwzpg0o99f)"/>
                        </g>
                        <path fill="#FF4600" d="M22.94 38.71s-1.174-4.132-5.87-2.755c-4.697 1.378-5.535 9.643.335 9.987 5.87.344 6.877-4.304 5.535-7.232M22.108 23.559c8.763.342 16.627-6.666 14.988-13.703-6.13 1.177-10.883 2.458-12.66 3.105-3.225 1.173-6.434 2.4-8.87 4.795-.022 2.666 1.191 5.594 6.542 5.803M87.248 28.496c-4.89 5.46.764 17.545 10.44 17.098-.046-5.244-.354-11.943-1.343-18.707-1.71-1.096-5.37-2.553-9.097 1.609" transform="translate(128.529241, 83.261147) rotate(41.000000) translate(-128.529241, -83.261147) translate(75.765016, 6.261147)"/>
                        <path fill="#F6F7F7" d="M41.043 25.379s-.942-6.172-7.853-4.63c-6.91 1.544-6.524 10.725.707 10.725 6.125 0 7.696-3.858 7.146-6.095" transform="translate(128.529241, 83.261147) rotate(41.000000) translate(-128.529241, -83.261147) translate(75.765016, 6.261147)"/>
                        <path fill="#FFF" d="M32.274 22.663c.188.402.67.614 1.134.504 1.2-.286 3.527-.54 5.287 1.122.373.352.992.356 1.372.01l.003-.003c.367-.335.377-.874.022-1.22-1.035-1.005-3.439-2.688-7.224-1.592-.541.156-.816.703-.594 1.179M31.928 24.012c0 .568-.456 1.028-1.02 1.028-.562 0-1.019-.46-1.019-1.028 0-.568.457-1.029 1.02-1.029s1.019.46 1.019 1.029" transform="translate(128.529241, 83.261147) rotate(41.000000) translate(-128.529241, -83.261147) translate(75.765016, 6.261147)"/>
                        <path fill="#AF0000" d="M38.193 29.544s.927-1 .515-2.529c-.412-1.528-2.163-2.95-4.79-2.002-2.627.948-3.348 4.004-1.7 5.216 1.648 1.212 4.945.58 5.975-.685" transform="translate(128.529241, 83.261147) rotate(41.000000) translate(-128.529241, -83.261147) translate(75.765016, 6.261147)"/>
                        <path fill="#FFF" d="M37.838 26.92s0-1.262-1.5-1.1c-1.502.161-1.609 1.973-.322 2.038 1.286.064 1.893-.518 1.822-.938" transform="translate(128.529241, 83.261147) rotate(41.000000) translate(-128.529241, -83.261147) translate(75.765016, 6.261147)"/>
                        <path fill="#F6F7F7" d="M66.033 25.363s.943-6.172 7.853-4.629c6.91 1.543 6.525 10.724-.707 10.724-6.125 0-7.695-3.857-7.146-6.095" transform="translate(128.529241, 83.261147) rotate(41.000000) translate(-128.529241, -83.261147) translate(75.765016, 6.261147)"/>
                        <path fill="#FFF" d="M74.58 22.476c-.188.402-.671.614-1.135.503-1.199-.286-3.527-.54-5.287 1.122-.373.353-.991.356-1.371.01l-.003-.003c-.368-.334-.378-.873-.023-1.219 1.035-1.006 3.44-2.688 7.225-1.593.54.157.816.704.594 1.18M74.559 23.387c0 .568.456 1.029 1.02 1.029.562 0 1.018-.46 1.018-1.029 0-.568-.456-1.028-1.019-1.028s-1.02.46-1.02 1.028" transform="translate(128.529241, 83.261147) rotate(41.000000) translate(-128.529241, -83.261147) translate(75.765016, 6.261147)"/>
                        <path fill="#AF0000" d="M68.333 28.775s-.927-1.001-.515-2.529c.412-1.528 2.164-2.95 4.79-2.002 2.627.948 3.348 4.004 1.7 5.216-1.648 1.212-4.945.58-5.975-.685" transform="translate(128.529241, 83.261147) rotate(41.000000) translate(-128.529241, -83.261147) translate(75.765016, 6.261147)"/>
                        <path fill="#FFF" d="M69.055 26.164s0-1.262 1.501-1.1c1.5.162 1.608 1.973.322 2.038-1.287.065-1.894-.518-1.823-.938" transform="translate(128.529241, 83.261147) rotate(41.000000) translate(-128.529241, -83.261147) translate(75.765016, 6.261147)"/>
                        <path fill="#F6F7F7" d="M59.371 22.587s-.394-6.275-7.415-5.319c-7.02.956-7.445 10.203-.241 10.823 6.102.525 8.007-3.212 7.656-5.504" transform="translate(128.529241, 83.261147) rotate(41.000000) translate(-128.529241, -83.261147) translate(75.765016, 6.261147)"/>
                        <path fill="#FFF" d="M50.939 18.415c.139.453.57.726 1.011.645 1.14-.208 3.33-.284 4.82 1.676.316.415.891.473 1.275.129l.004-.003c.371-.332.429-.918.129-1.324-.874-1.183-2.961-3.22-6.581-2.355-.518.124-.823.695-.658 1.232M50.373 19.816c-.048.566-.543.984-1.104.935-.56-.049-.975-.548-.927-1.113.05-.566.543-.985 1.104-.936.561.05.976.548.927 1.114" transform="translate(128.529241, 83.261147) rotate(41.000000) translate(-128.529241, -83.261147) translate(75.765016, 6.261147)"/>
                        <path fill="#AF0000" d="M55.927 25.934s1.003-.926.723-2.503c-.28-1.577-1.894-3.168-4.576-2.447-2.683.72-3.654 3.736-2.124 5.105 1.531 1.369 4.85 1.027 5.977-.155" transform="translate(128.529241, 83.261147) rotate(41.000000) translate(-128.529241, -83.261147) translate(75.765016, 6.261147)"/>
                        <path fill="#FFF" d="M55.727 23.13s.12-1.269-1.391-1.225c-1.512.044-1.793 1.858-.516 2.025 1.276.167 1.938-.37 1.907-.8" transform="translate(128.529241, 83.261147) rotate(41.000000) translate(-128.529241, -83.261147) translate(75.765016, 6.261147)"/>
                        <path fill="#660F10" d="M48.275 31.579s.331-1.192-1.87-1.064c-2.2.127-1.775 1.979-.142 2.043 1.633.064 1.965-.554 2.012-.98M54.683 31.354s.331-1.192-1.87-1.064c-2.201.127-1.775 1.979-.142 2.043 1.633.063 1.964-.554 2.012-.98M61.47 31.697s.332-1.192-1.87-1.064c-2.2.127-1.774 1.98-.142 2.043 1.634.064 1.965-.553 2.012-.98" transform="translate(128.529241, 83.261147) rotate(41.000000) translate(-128.529241, -83.261147) translate(75.765016, 6.261147)"/>
                        <path fill="#FFF" d="M41.96 37.634s-.381 3.428 1.222 3.428 2.137-2.832 2.137-2.832l-3.359-.596zM63.755 38.294s.382 3.428-1.221 3.428c-1.603 0-2.137-2.832-2.137-2.832l3.358-.596z" transform="translate(128.529241, 83.261147) rotate(41.000000) translate(-128.529241, -83.261147) translate(75.765016, 6.261147)"/>
                        <path fill="#660F10" d="M69.4 35.305c-1.532-2.945-3.225-2.29-3.386-1.309-.083.503.28 1.157.652 1.674-1.682.53-6.064 1.606-13.562 1.438v-.003l-.076.002-.076-.002v.003c-7.498.168-11.88-.907-13.562-1.438.373-.517.735-1.17.652-1.674-.161-.981-1.854-1.636-3.386 1.31 0 0-1.855 2.399-.403 3.217.907.512 1.625-.395 2.036-1.146 5.509 2.21 13.866 1.971 14.739 1.94.873.031 9.23.27 14.738-1.94.411.75 1.13 1.658 2.037 1.146 1.451-.818-.403-3.218-.403-3.218" transform="translate(128.529241, 83.261147) rotate(41.000000) translate(-128.529241, -83.261147) translate(75.765016, 6.261147)"/>
                        <path fill="#FFF" d="M79.504 16.909c0 .946-.76 1.714-1.699 1.714-.938 0-1.699-.768-1.699-1.714 0-.947.76-1.715 1.7-1.715.938 0 1.698.768 1.698 1.715M81.338 19.098c-.456.772-.203 1.767.568 2.226l.856.51c4.124 2.46 6.794 6.769 7.159 11.553l1.174 15.415c.048.638.618 1.107 1.254 1.032.6-.07 1.038-.601.992-1.203l-1.354-17.668c-.341-4.456-2.686-8.518-6.376-11.046l-1.948-1.334c-.778-.533-1.845-.297-2.325.515" transform="translate(128.529241, 83.261147) rotate(41.000000) translate(-128.529241, -83.261147) translate(75.765016, 6.261147)"/>
                        <path fill="#FFA700" d="M20.759 66.634c.378-6.152 2.083-19.043 9.741-18.136 0 0 3.498-.091 4.419 5.029 0 0 .46 2.56-.522 2.682-.982.122-.552-2.987-1.289-2.743-.736.244 0 4.267-1.104 4.328-1.105.06 0-4.45-.86-4.206-.858.244-.06 4.754-1.104 4.815-1.043.061 0-5.12-.982-5.912-.981-.793-2.884.731-3.313 4.023-.337 2.58-.598 7.367-.46 10.14.053 1.043-.62 1.987-1.63 2.28-1.506.435-2.992-.744-2.896-2.3M84.409 66.935c-.378-6.152-2.084-19.043-9.742-18.136 0 0-3.498-.091-4.418 5.029 0 0-.46 2.56.522 2.682.981.122.552-2.987 1.288-2.743.736.244 0 4.267 1.105 4.328 1.104.06 0-4.45.859-4.206.859.244.061 4.754 1.104 4.815 1.043.061 0-5.12.982-5.912.982-.793 2.884.731 3.314 4.023.336 2.58.597 7.367.459 10.14-.053 1.043.62 1.987 1.63 2.28 1.506.435 2.992-.744 2.897-2.3" transform="translate(128.529241, 83.261147) rotate(41.000000) translate(-128.529241, -83.261147) translate(75.765016, 6.261147)"/>
                        <path fill="#FF4600" d="M11.722 126.104c20.182-.523 20.958-24.32 14.23-32.95 0 0-8.831-11.673-22.258-5.897L.525 122.652c2.98 2.237 6.733 3.568 11.197 3.452M79.572 93.375c4.145 2.868 15.804-1.043 12.954-9.387 0 0-2.85-6.258-9.068-4.432-6.218 1.825-8.032 10.95-3.886 13.819M105.489 126.638l-1.224-13.45c-4.06-3.22-14.808-8.928-33.066.447-14.465 7.427-15.848 19.635-12.241 28.466 9.644-.287 27.322-1.585 39.781-5.41 4.355-1.338 7.16-5.54 6.75-10.053" transform="translate(128.529241, 83.261147) rotate(41.000000) translate(-128.529241, -83.261147) translate(75.765016, 6.261147)"/>
                    </g>
                </g>
            </g>
        </g>
    </g>
</svg>
