<svg xmlns="http://www.w3.org/2000/svg" xmlns:xlink="http://www.w3.org/1999/xlink" width="240" height="280" viewBox="0 0 240 280">
    <defs>
        <path id="jx9w2203ta" d="M0 0H240V280H0z"/>
        <path id="3getvcijyc" d="M0 0L38 0 38 29 0 29z"/>
    </defs>
    <g fill="none" fill-rule="evenodd">
        <g>
            <g transform="translate(-282.000000, -665.000000) translate(282.000000, 665.000000)">
                <mask id="j1q3oo5xab" fill="#fff">
                    <use xlink:href="#jx9w2203ta"/>
                </mask>
                <g mask="url(#j1q3oo5xab)">
                    <g>
                        <g transform="translate(97.815994, 119.073114) rotate(-34.000000) translate(-97.815994, -119.073114) translate(3.315994, -25.375985) translate(32.833956, 259.699958)">
                            <mask id="v5brizc5qd" fill="#fff">
                                <use xlink:href="#3getvcijyc"/>
                            </mask>
                            <path fill="#F39800" d="M37.988 3.346C37.826 1.593 24.758 0 24.758 0S6.25 8.394 2.545 17.872C1.11 18.054 0 19.255 0 20.714c0 1.584 1.308 2.868 2.922 2.868s2.922-1.284 2.922-2.868c0-.586-.18-1.131-.488-1.586 1.202-1.5 4.357-5.07 6.17-3.672 1.818 1.402-.308 5.35-1.15 7.853-1.375.234-2.421 1.407-2.421 2.823 0 1.584 1.308 2.868 2.922 2.868s2.922-1.284 2.922-2.868c0-.825-.356-1.566-.924-2.09 1.158-2.632 12.059-9.252 14.817-8.267 2.71.967-6.46 4.54-6.591 6.444-.87.497-1.457 1.42-1.457 2.479 0 1.584 1.308 2.868 2.922 2.868 1.613 0 2.922-1.284 2.922-2.868 0-1.101-.633-2.056-1.56-2.537.253-2.63 1.375-7.702 6.105-11.326 6.657-5.099 8.118-5.736 7.955-7.489" mask="url(#v5brizc5qd)"/>
                        </g>
                        <path fill="#F39800" d="M120.766 263.245c.163-1.753 13.23-3.347 13.23-3.347s18.507 8.394 22.212 17.873c1.436.18 2.546 1.383 2.546 2.841 0 1.585-1.308 2.868-2.922 2.868s-2.922-1.283-2.922-2.868c0-.586.18-1.131.488-1.586-1.202-1.5-4.357-5.07-6.17-3.672-1.818 1.402.308 5.35 1.15 7.853 1.375.234 2.422 1.407 2.422 2.823 0 1.584-1.309 2.868-2.923 2.868s-2.922-1.284-2.922-2.868c0-.825.357-1.566.924-2.089-1.157-2.633-4.01-8.296-6.768-7.312-2.71.967-1.59 3.585-1.457 5.488.87.497 1.457 1.42 1.457 2.479 0 1.584-1.309 2.868-2.923 2.868-1.613 0-2.922-1.284-2.922-2.868 0-1.1.633-2.056 1.56-2.537-.253-2.63-1.374-7.702-6.105-11.326-6.656-5.099-8.117-5.736-7.955-7.488" transform="translate(97.815994, 119.073114) rotate(-34.000000) translate(-97.815994, -119.073114) translate(3.315994, -25.375985)"/>
                        <path fill="#FADA5E" d="M82.56 41.383S18.581 39.442 3.071 134.58c-15.51 95.137 29.929 132.308 86.273 133.483 69.793 1.457 116.322-27.667 94.027-139.308-16.53-82.772-71.732-89.312-100.813-87.37" transform="translate(97.815994, 119.073114) rotate(-34.000000) translate(-97.815994, -119.073114) translate(3.315994, -25.375985)"/>
                        <path fill="#F7F8F8" d="M100.158 72.43c8.782-2.655 10.499-14.307 2.756-19.2-3.546-2.24-8.906-3.872-16.977-3.314-21.243 1.47-21.243 21.062-7.904 23.021 7.297 1.072 15.778 1.41 22.125-.507" transform="translate(97.815994, 119.073114) rotate(-34.000000) translate(-97.815994, -119.073114) translate(3.315994, -25.375985)"/>
                        <path fill="#FFF" d="M98.531 59.648c-.278 2.817-2.23 7.031-11.289 7.5-1.154.06-2.034 1.153-1.942 2.408.086 1.163.978 2.055 2.05 2.055 4.432.003 15.126-1.072 15.936-11.42.09-1.142-.622-2.178-1.655-2.396l-.678-.143c-1.191-.251-2.292.681-2.422 1.996" transform="translate(97.815994, 119.073114) rotate(-34.000000) translate(-97.815994, -119.073114) translate(3.315994, -25.375985)"/>
                        <path fill="#172A88" d="M96.68 60.755s2.365-6.16-4.727-7.826c-7.092-1.665-12.608 2.664-10.401 7.326 2.206 4.663 13.71 3.997 15.129.5" transform="translate(97.815994, 119.073114) rotate(-34.000000) translate(-97.815994, -119.073114) translate(3.315994, -25.375985)"/>
                        <path fill="#FFF" d="M90.51 57.426s-.18-2.505-2.281-2.325c-2.101.178-2.341 3.666-.36 3.934 1.98.268 2.58-.447 2.64-1.61" transform="translate(97.815994, 119.073114) rotate(-34.000000) translate(-97.815994, -119.073114) translate(3.315994, -25.375985)"/>
                        <path fill="#F7F8F8" d="M60.018 89.596c7.809-4.859 6.582-16.919-2.09-19.852-3.97-1.343-9.541-1.624-17.18.963C20.635 77.52 25.48 97.07 38.82 95.67c7.298-.767 15.556-2.562 21.198-6.073" transform="translate(97.815994, 119.073114) rotate(-34.000000) translate(-97.815994, -119.073114) translate(3.315994, -25.375985)"/>
                        <path fill="#FFF" d="M57.782 78.246c.378 2.595-.584 6.858-9.49 9.528-1.135.34-1.757 1.538-1.373 2.64.355 1.022 1.45 1.6 2.516 1.334 4.411-1.098 14.803-4.717 13.205-14.195-.177-1.046-1.125-1.798-2.203-1.737l-.708.04c-1.244.07-2.123 1.18-1.947 2.39" transform="translate(97.815994, 119.073114) rotate(-34.000000) translate(-97.815994, -119.073114) translate(3.315994, -25.375985)"/>
                        <path fill="#172A88" d="M53.934 77.82s.86-6.29-6.45-6.067c-7.312.222-11.677 5.6-8.429 9.367 3.248 3.766 14.317.289 14.88-3.3" transform="translate(97.815994, 119.073114) rotate(-34.000000) translate(-97.815994, -119.073114) translate(3.315994, -25.375985)"/>
                        <path fill="#FFF" d="M49.072 73.342s-.594-2.241-2.618-1.344c-2.025.897-1.678 4.19.304 3.747 1.982-.444 2.45-1.312 2.314-2.403" transform="translate(97.815994, 119.073114) rotate(-34.000000) translate(-97.815994, -119.073114) translate(3.315994, -25.375985)"/>
                        <path fill="#F7F8F8" d="M143.26 90.15c9.075-1.458 12.387-12.93 5.386-18.911-3.205-2.739-8.294-5.118-16.373-5.668-21.265-1.45-23.973 18.236-11.02 22.042 7.088 2.082 15.45 3.59 22.007 2.537" transform="translate(97.815994, 119.073114) rotate(-34.000000) translate(-97.815994, -119.073114) translate(3.315994, -25.375985)"/>
                        <path fill="#FFF" d="M144.923 77.7c-.628 2.473-3.085 5.967-12.095 5.17-1.148-.102-2.155.753-2.221 1.884-.061 1.048.708 1.962 1.767 2.107 4.38.597 15.08 1.074 17.178-8.04.232-1.005-.34-2.024-1.334-2.356l-.652-.219c-1.146-.383-2.35.3-2.643 1.453" transform="translate(97.815994, 119.073114) rotate(-34.000000) translate(-97.815994, -119.073114) translate(3.315994, -25.375985)"/>
                        <path fill="#172A88" d="M140.349 76.935s3.16-5.633-3.693-8.249c-6.851-2.616-12.915.797-11.323 5.625 1.59 4.828 13.146 5.81 15.016 2.624" transform="translate(97.815994, 119.073114) rotate(-34.000000) translate(-97.815994, -119.073114) translate(3.315994, -25.375985)"/>
                        <path fill="#FFF" d="M136.744 73.296s.052-2.443-2.069-2.687c-2.12-.244-2.686 3.062-.726 3.712 1.959.65 2.627.081 2.795-1.025" transform="translate(97.815994, 119.073114) rotate(-34.000000) translate(-97.815994, -119.073114) translate(3.315994, -25.375985)"/>
                        <path fill="#231815" d="M89.004 78.994c0 1.105-.895 2-2 2-1.104 0-2-.895-2-2s.896-2 2-2c1.105 0 2 .895 2 2M94.268 80.132c0 1.105-.895 2-2 2-1.104 0-2-.895-2-2s.896-2 2-2c1.105 0 2 .895 2 2" transform="translate(97.815994, 119.073114) rotate(-34.000000) translate(-97.815994, -119.073114) translate(3.315994, -25.375985)"/>
                        <path fill="#F8B62D" d="M91.085 93.522v-.007l-.023.004-.024-.004v.007l-17.976 2.9s2.414 6.847 18 6.024c15.586.823 18-6.024 18-6.024l-17.977-2.9z" transform="translate(97.815994, 119.073114) rotate(-34.000000) translate(-97.815994, -119.073114) translate(3.315994, -25.375985)"/>
                        <path fill="#F39800" d="M115.224 91.642c-.323-.024-.695.014-1.125.134-2.864.8-4.773.64-5.887.16-1.11-.479-6.964-5.406-16.93-5.436v-.002h-.092v.002c-9.966.03-15.82 4.957-16.93 5.436-1.114.48-3.023.64-5.887-.16-.43-.12-.803-.158-1.125-.134-1.654.12-2.083 2.376-.624 3.167 1.63.885 4.653 2.008 9.067 1.604 6.719-.614 14.897-1.227 15.545-1.275.647.048 8.826.661 15.544 1.275 4.415.404 7.437-.72 9.068-1.604 1.458-.791 1.03-3.046-.624-3.167" transform="translate(97.815994, 119.073114) rotate(-34.000000) translate(-97.815994, -119.073114) translate(3.315994, -25.375985)"/>
                        <path fill="#EA6E4F" d="M142.36 96.684c-.214-.38-.574-.686-1.02-.866-1.478-.597-5.219-1.97-7.673-1.677-3.118.372-2.019 2.624.344 3.149 1.89.42 5.187 1.353 6.427 1.71.511.146 1.077.141 1.56-.066.618-.265 1.136-.87.361-2.25M42.541 98.973c.213-.38.573-.687 1.02-.867 1.477-.596 5.218-1.969 7.673-1.676 3.117.372 2.018 2.624-.344 3.149-1.891.42-5.188 1.354-6.427 1.71-.512.146-1.077.14-1.56-.066-.619-.265-1.137-.87-.362-2.25" transform="translate(97.815994, 119.073114) rotate(-34.000000) translate(-97.815994, -119.073114) translate(3.315994, -25.375985)"/>
                        <path fill="#FADA5E" d="M99.773 14.5c0 8.008-6.492 14.5-14.5 14.5s-14.5-6.492-14.5-14.5S77.265 0 85.273 0s14.5 6.492 14.5 14.5" transform="translate(97.815994, 119.073114) rotate(-34.000000) translate(-97.815994, -119.073114) translate(3.315994, -25.375985)"/>
                        <path fill="#F8B62D" d="M98.582 19.532s1.305-5.216-1.588-6.699c-2.894-1.482-5.447 1.977-6.468 4.613-1.022 2.635-4.766 4.777-8 4.448-3.234-.33-5.107-.495-5.617.988-.51 1.483 4.936 7.578 14.127 4.942 0 0 6.639-1.647 7.546-8.292" transform="translate(97.815994, 119.073114) rotate(-34.000000) translate(-97.815994, -119.073114) translate(3.315994, -25.375985)"/>
                        <path fill="#FFF" d="M90.242 4.305S84.437 1.991 80.125 6.62c-4.312 4.628-1.99 7.477-.995 8.01.995.535 4.478-1.246 5.473-3.204.995-1.958 3.65-2.67 4.644-2.67.995 0 4.146-1.246.995-4.45" transform="translate(97.815994, 119.073114) rotate(-34.000000) translate(-97.815994, -119.073114) translate(3.315994, -25.375985)"/>
                        <path fill="#FADA5E" d="M80.604 28.534s5.72 3.9 1.04 13h11.96s-6.76-4.68-3.12-13c0 0-4.42 1.3-9.88 0" transform="translate(97.815994, 119.073114) rotate(-34.000000) translate(-97.815994, -119.073114) translate(3.315994, -25.375985)"/>
                        <path fill="#F39800" d="M87.138 115.523s-5.826-14.062-18.45-6.789c0 0-6.013 5.63-11.427 7.974-2.177.943-3.666 3.07-3.666 5.44 0 1.512.606 3.052 2.589 4.042 5.098 2.546 10.197-5.455 12.382-1.818 2.185 3.637 8.376 14.547 20.03 15.274l-.243-2.788s-17.724-9.455-14.082-21.335c0 0 1.7-4.607 5.584-2.425 3.884 2.183 6.798 6.062 6.798 6.062l.485-3.637z" transform="translate(97.815994, 119.073114) rotate(-34.000000) translate(-97.815994, -119.073114) translate(3.315994, -25.375985)"/>
                        <path fill="#F39800" d="M92.543 117.69c0 2.486-2.014 4.5-4.5 4.5-2.485 0-4.5-2.014-4.5-4.5 0-2.485 2.015-4.5 4.5-4.5 2.486 0 4.5 2.015 4.5 4.5M91.308 140.982c0 2.485-2.015 4.5-4.5 4.5s-4.5-2.015-4.5-4.5c0-2.486 2.015-4.5 4.5-4.5s4.5 2.014 4.5 4.5M70.761 123.222s-2.729 7.083.78 14l1.69-.494s-.91-5.6.52-9.059l-2.99-4.447z" transform="translate(97.815994, 119.073114) rotate(-34.000000) translate(-97.815994, -119.073114) translate(3.315994, -25.375985)"/>
                        <path fill="#F39800" d="M75.422 139.65c0 2.21-1.791 4-4 4-2.21 0-4-1.79-4-4 0-2.209 1.79-4 4-4 2.209 0 4 1.791 4 4" transform="translate(97.815994, 119.073114) rotate(-34.000000) translate(-97.815994, -119.073114) translate(3.315994, -25.375985)"/>
                        <path fill="#FFF" d="M80.505 110.314c-1.269-.736-6.212-2.982-13.439 1.489-.25.154-.337.424-.22.657l.142.278c.183.364.762.474 1.137.22 1.635-1.11 5.867-3.337 11.698-1.656.446.13.926-.105.97-.48.022-.197-.085-.39-.288-.508M82.276 112.523c0 .552-.448 1-1 1s-1-.448-1-1 .448-1 1-1 1 .448 1 1" transform="translate(97.815994, 119.073114) rotate(-34.000000) translate(-97.815994, -119.073114) translate(3.315994, -25.375985)"/>
                        <path fill="#F39800" d="M97.2 117.415s5.826-14.062 18.45-6.788c0 0 6.013 5.628 11.427 7.973 2.177.943 3.666 3.07 3.666 5.44 0 1.513-.606 3.053-2.589 4.042-5.098 2.546-10.197-5.455-12.382-1.818-2.185 3.637-8.376 14.547-20.03 15.274l.243-2.788s17.724-9.455 14.082-21.335c0 0-1.7-4.606-5.584-2.425-3.885 2.183-6.798 6.062-6.798 6.062l-.486-3.637z" transform="translate(97.815994, 119.073114) rotate(-34.000000) translate(-97.815994, -119.073114) translate(3.315994, -25.375985)"/>
                        <path fill="#F39800" d="M90.754 117.73c0 2.485 2.015 4.5 4.5 4.5s4.5-2.015 4.5-4.5c0-2.486-2.015-4.5-4.5-4.5s-4.5 2.014-4.5 4.5M90.907 140.751c0 2.485 2.015 4.5 4.5 4.5s4.5-2.015 4.5-4.5-2.015-4.5-4.5-4.5-4.5 2.015-4.5 4.5M114.887 125.114s2.729 7.083-.78 14l-1.69-.494s.91-5.6-.52-9.059l2.99-4.447z" transform="translate(97.815994, 119.073114) rotate(-34.000000) translate(-97.815994, -119.073114) translate(3.315994, -25.375985)"/>
                        <path fill="#F39800" d="M109.859 139.325c0 2.21 1.79 4 4 4 2.209 0 4-1.79 4-4 0-2.209-1.791-4-4-4-2.21 0-4 1.791-4 4" transform="translate(97.815994, 119.073114) rotate(-34.000000) translate(-97.815994, -119.073114) translate(3.315994, -25.375985)"/>
                        <path fill="#FFF" d="M103.14 110.51c1.27-.737 6.212-2.983 13.439 1.488.25.154.337.424.22.657l-.141.278c-.184.364-.762.474-1.138.22-1.634-1.11-5.867-3.337-11.697-1.655-.447.128-.927-.106-.97-.48-.023-.198.084-.391.287-.509M101.08 112.081c0 .552.448 1 1 1s1-.448 1-1-.448-1-1-1-1 .448-1 1M164.387 120.75c3.054 16.753 10.935 72.318-12.265 101.903-3.304 4.213-1.857 10.522 2.947 12.687 3.5 1.577 7.579.328 9.705-2.958 7.857-12.147 22.837-45.862 8.76-113.54-.521-2.503-2.832-4.156-5.272-3.767-2.61.416-4.365 2.988-3.875 5.676M170.36 104.102c0 2.762-2.239 5-5 5-2.762 0-5-2.238-5-5 0-2.76 2.238-5 5-5 2.761 0 5 2.24 5 5" transform="translate(97.815994, 119.073114) rotate(-34.000000) translate(-97.815994, -119.073114) translate(3.315994, -25.375985)"/>
                    </g>
                </g>
            </g>
        </g>
    </g>
</svg>
