<svg xmlns="http://www.w3.org/2000/svg" xmlns:xlink="http://www.w3.org/1999/xlink" width="168" height="196" viewBox="0 0 168 196">
    <defs>
        <path id="wkc3hl9ita" d="M0 0H168V196H0z"/>
        <path id="7v6lpbfonc" d="M0 0L26.6 0 26.6 20.3 0 20.3z"/>
    </defs>
    <g fill="none" fill-rule="evenodd">
        <g>
            <g transform="translate(-112.000000, -652.000000) translate(112.000000, 652.000000)">
                <mask id="0p5zghiz9b" fill="#fff">
                    <use xlink:href="#wkc3hl9ita"/>
                </mask>
                <g mask="url(#0p5zghiz9b)">
                    <g>
                        <g transform="translate(68.471196, 83.351180) rotate(-34.000000) translate(-68.471196, -83.351180) translate(2.321196, -17.763190) translate(22.983769, 181.789971)">
                            <mask id="tnvoxe1vxd" fill="#fff">
                                <use xlink:href="#7v6lpbfonc"/>
                            </mask>
                            <path fill="#F39800" d="M26.592 2.342C26.478 1.115 17.33 0 17.33 0S4.376 5.876 1.783 12.51C.777 12.639 0 13.48 0 14.5c0 1.109.916 2.008 2.045 2.008 1.13 0 2.046-.9 2.046-2.008 0-.41-.126-.792-.342-1.11.842-1.051 3.05-3.55 4.32-2.57 1.272.98-.216 3.744-.806 5.496-.962.164-1.695.985-1.695 1.976 0 1.11.916 2.008 2.046 2.008s2.045-.899 2.045-2.008c0-.577-.25-1.096-.647-1.462.81-1.843 8.442-6.477 10.372-5.788 1.897.677-4.521 3.179-4.614 4.511-.609.348-1.02.994-1.02 1.735 0 1.11.916 2.008 2.046 2.008s2.045-.899 2.045-2.008c0-.77-.442-1.439-1.092-1.775.178-1.842.963-5.392 4.274-7.928 4.66-3.57 5.682-4.016 5.569-5.243" mask="url(#tnvoxe1vxd)"/>
                        </g>
                        <path fill="#F39800" d="M84.536 184.271c.114-1.227 9.262-2.342 9.262-2.342s12.954 5.876 15.548 12.51c1.005.127 1.782.968 1.782 1.99 0 1.109-.916 2.007-2.046 2.007s-2.045-.898-2.045-2.007c0-.411.126-.792.342-1.11-.842-1.051-3.05-3.55-4.32-2.571-1.272.981.216 3.744.806 5.497.962.164 1.695.985 1.695 1.976 0 1.109-.916 2.008-2.046 2.008s-2.045-.9-2.045-2.008c0-.577.25-1.096.646-1.462-.81-1.843-2.807-5.808-4.738-5.119-1.896.677-1.112 2.51-1.02 3.842.61.348 1.02.994 1.02 1.735 0 1.109-.915 2.008-2.045 2.008s-2.046-.899-2.046-2.008c0-.77.443-1.439 1.093-1.775-.178-1.842-.963-5.392-4.274-7.929-4.66-3.569-5.682-4.015-5.569-5.242" transform="translate(68.471196, 83.351180) rotate(-34.000000) translate(-68.471196, -83.351180) translate(2.321196, -17.763190)"/>
                        <path fill="#FADA5E" d="M57.791 28.968S13.007 27.61 2.151 94.205c-10.857 66.596 20.95 92.616 60.39 93.439 48.856 1.019 81.426-19.367 65.82-97.516-11.571-57.94-50.213-62.519-70.57-61.16" transform="translate(68.471196, 83.351180) rotate(-34.000000) translate(-68.471196, -83.351180) translate(2.321196, -17.763190)"/>
                        <path fill="#F7F8F8" d="M70.11 50.7c6.148-1.857 7.35-10.014 1.93-13.439-2.482-1.568-6.235-2.71-11.884-2.32-14.87 1.029-14.87 14.743-5.533 16.115 5.108.75 11.045.987 15.487-.355" transform="translate(68.471196, 83.351180) rotate(-34.000000) translate(-68.471196, -83.351180) translate(2.321196, -17.763190)"/>
                        <path fill="#FFF" d="M68.972 41.753c-.195 1.972-1.56 4.922-7.902 5.25-.808.043-1.424.808-1.36 1.686.06.815.684 1.438 1.435 1.439 3.102.002 10.588-.75 11.155-7.994.063-.8-.435-1.525-1.158-1.677l-.475-.1c-.834-.176-1.604.476-1.695 1.396" transform="translate(68.471196, 83.351180) rotate(-34.000000) translate(-68.471196, -83.351180) translate(2.321196, -17.763190)"/>
                        <path fill="#172A88" d="M67.677 42.528s1.654-4.312-3.31-5.478c-4.964-1.165-8.825 1.865-7.28 5.129 1.544 3.263 9.597 2.797 10.59.35" transform="translate(68.471196, 83.351180) rotate(-34.000000) translate(-68.471196, -83.351180) translate(2.321196, -17.763190)"/>
                        <path fill="#FFF" d="M63.357 40.198s-.126-1.753-1.597-1.628c-1.47.125-1.639 2.567-.252 2.755 1.386.187 1.807-.313 1.849-1.127" transform="translate(68.471196, 83.351180) rotate(-34.000000) translate(-68.471196, -83.351180) translate(2.321196, -17.763190)"/>
                        <path fill="#F7F8F8" d="M42.013 62.717c5.466-3.4 4.607-11.843-1.463-13.896-2.78-.94-6.68-1.137-12.027.674-14.078 4.768-10.687 18.454-1.349 17.473 5.109-.536 10.889-1.793 14.839-4.251" transform="translate(68.471196, 83.351180) rotate(-34.000000) translate(-68.471196, -83.351180) translate(2.321196, -17.763190)"/>
                        <path fill="#FFF" d="M40.448 54.772c.264 1.817-.41 4.8-6.644 6.67-.794.238-1.23 1.076-.961 1.848.249.715 1.015 1.12 1.762.934 3.087-.77 10.362-3.302 9.243-9.937-.124-.732-.787-1.259-1.542-1.216l-.496.028c-.87.05-1.486.826-1.362 1.673" transform="translate(68.471196, 83.351180) rotate(-34.000000) translate(-68.471196, -83.351180) translate(2.321196, -17.763190)"/>
                        <path fill="#172A88" d="M37.754 54.474s.602-4.403-4.516-4.247c-5.117.156-8.173 3.92-5.9 6.557 2.274 2.636 10.022.202 10.416-2.31" transform="translate(68.471196, 83.351180) rotate(-34.000000) translate(-68.471196, -83.351180) translate(2.321196, -17.763190)"/>
                        <path fill="#FFF" d="M34.35 51.34s-.415-1.57-1.832-.942c-1.418.629-1.175 2.934.213 2.624 1.387-.311 1.714-.919 1.62-1.682" transform="translate(68.471196, 83.351180) rotate(-34.000000) translate(-68.471196, -83.351180) translate(2.321196, -17.763190)"/>
                        <path fill="#F7F8F8" d="M100.282 63.105c6.352-1.02 8.67-9.05 3.77-13.238-2.243-1.917-5.806-3.582-11.46-3.968-14.886-1.014-16.782 12.766-7.714 15.43 4.96 1.457 10.814 2.513 15.404 1.776" transform="translate(68.471196, 83.351180) rotate(-34.000000) translate(-68.471196, -83.351180) translate(2.321196, -17.763190)"/>
                        <path fill="#FFF" d="M101.446 54.39c-.44 1.731-2.16 4.177-8.466 3.619-.804-.071-1.509.527-1.555 1.319-.043.734.496 1.373 1.237 1.475 3.065.417 10.556.752 12.025-5.628.162-.704-.24-1.417-.935-1.65l-.456-.153c-.802-.268-1.645.21-1.85 1.018" transform="translate(68.471196, 83.351180) rotate(-34.000000) translate(-68.471196, -83.351180) translate(2.321196, -17.763190)"/>
                        <path fill="#172A88" d="M98.244 53.855s2.212-3.943-2.584-5.775c-4.797-1.831-9.041.558-7.927 3.938 1.114 3.38 9.202 4.067 10.511 1.837" transform="translate(68.471196, 83.351180) rotate(-34.000000) translate(-68.471196, -83.351180) translate(2.321196, -17.763190)"/>
                        <path fill="#FFF" d="M95.72 51.308s.037-1.711-1.447-1.882c-1.485-.17-1.88 2.144-.509 2.599 1.371.455 1.839.057 1.957-.717" transform="translate(68.471196, 83.351180) rotate(-34.000000) translate(-68.471196, -83.351180) translate(2.321196, -17.763190)"/>
                        <path fill="#231815" d="M62.303 55.296c0 .773-.627 1.4-1.4 1.4-.773 0-1.4-.627-1.4-1.4 0-.773.627-1.4 1.4-1.4.773 0 1.4.627 1.4 1.4M65.988 56.092c0 .774-.627 1.4-1.4 1.4-.774 0-1.4-.626-1.4-1.4 0-.773.626-1.4 1.4-1.4.773 0 1.4.627 1.4 1.4" transform="translate(68.471196, 83.351180) rotate(-34.000000) translate(-68.471196, -83.351180) translate(2.321196, -17.763190)"/>
                        <path fill="#F8B62D" d="M63.76 65.466v-.006l-.017.003-.016-.003v.006l-12.584 2.03s1.69 4.792 12.6 4.216c10.91.576 12.6-4.216 12.6-4.216l-12.583-2.03z" transform="translate(68.471196, 83.351180) rotate(-34.000000) translate(-68.471196, -83.351180) translate(2.321196, -17.763190)"/>
                        <path fill="#F39800" d="M80.657 64.15c-.226-.017-.487.009-.788.093-2.005.56-3.34.448-4.12.112-.777-.335-4.876-3.784-11.852-3.805v-.001h-.064c-6.976.022-11.074 3.471-11.852 3.806-.779.336-2.115.448-4.12-.112-.3-.084-.562-.11-.787-.094-1.158.085-1.458 1.663-.437 2.217 1.141.62 3.257 1.406 6.347 1.123 4.703-.43 10.428-.859 10.881-.893.453.034 6.179.464 10.881.893 3.09.283 5.206-.503 6.347-1.123 1.021-.554.721-2.132-.436-2.217" transform="translate(68.471196, 83.351180) rotate(-34.000000) translate(-68.471196, -83.351180) translate(2.321196, -17.763190)"/>
                        <path fill="#EA6E4F" d="M99.652 67.679c-.15-.266-.402-.48-.714-.607-1.035-.417-3.653-1.378-5.371-1.173-2.182.26-1.413 1.837.24 2.204 1.324.294 3.632.947 4.5 1.196.357.103.753.1 1.091-.045.433-.186.796-.609.254-1.575M29.779 69.281c.149-.266.401-.48.713-.607 1.035-.417 3.653-1.378 5.372-1.173 2.182.26 1.412 1.837-.241 2.204-1.324.294-3.632.948-4.5 1.197-.357.102-.753.099-1.091-.046-.433-.185-.796-.609-.253-1.575" transform="translate(68.471196, 83.351180) rotate(-34.000000) translate(-68.471196, -83.351180) translate(2.321196, -17.763190)"/>
                        <path fill="#FADA5E" d="M69.841 10.15c0 5.606-4.544 10.15-10.15 10.15-5.605 0-10.15-4.544-10.15-10.15C49.541 4.544 54.086 0 59.691 0c5.606 0 10.15 4.544 10.15 10.15" transform="translate(68.471196, 83.351180) rotate(-34.000000) translate(-68.471196, -83.351180) translate(2.321196, -17.763190)"/>
                        <path fill="#F8B62D" d="M69.008 13.673s.913-3.652-1.112-4.69c-2.026-1.037-3.813 1.384-4.528 3.23-.715 1.844-3.336 3.343-5.6 3.113-2.264-.231-3.574-.346-3.932.691-.357 1.038 3.455 5.305 9.89 3.46 0 0 4.646-1.153 5.282-5.804" transform="translate(68.471196, 83.351180) rotate(-34.000000) translate(-68.471196, -83.351180) translate(2.321196, -17.763190)"/>
                        <path fill="#FFF" d="M63.17 3.014s-4.064-1.62-7.082 1.62c-3.019 3.24-1.393 5.234-.697 5.608.697.373 3.135-.873 3.831-2.244.697-1.37 2.554-1.869 3.25-1.869.697 0 2.903-.872.697-3.115" transform="translate(68.471196, 83.351180) rotate(-34.000000) translate(-68.471196, -83.351180) translate(2.321196, -17.763190)"/>
                        <path fill="#FADA5E" d="M56.423 19.974s4.003 2.73.727 9.1h8.373s-4.732-3.276-2.185-9.1c0 0-3.093.91-6.915 0" transform="translate(68.471196, 83.351180) rotate(-34.000000) translate(-68.471196, -83.351180) translate(2.321196, -17.763190)"/>
                        <path fill="#F39800" d="M60.997 80.866s-4.079-9.843-12.916-4.752c0 0-4.209 3.94-7.998 5.581-1.525.66-2.566 2.15-2.566 3.809 0 1.058.424 2.136 1.812 2.83 3.569 1.781 7.137-3.82 8.667-1.273 1.53 2.545 5.863 10.182 14.02 10.691l-.17-1.951s-12.405-6.62-9.856-14.935c0 0 1.19-3.225 3.909-1.697 2.719 1.527 4.758 4.243 4.758 4.243l.34-2.546z" transform="translate(68.471196, 83.351180) rotate(-34.000000) translate(-68.471196, -83.351180) translate(2.321196, -17.763190)"/>
                        <path fill="#F39800" d="M64.78 82.384c0 1.74-1.41 3.15-3.15 3.15s-3.15-1.41-3.15-3.15 1.41-3.15 3.15-3.15 3.15 1.41 3.15 3.15M63.915 98.687c0 1.74-1.41 3.15-3.15 3.15s-3.15-1.41-3.15-3.15 1.41-3.15 3.15-3.15 3.15 1.41 3.15 3.15M49.533 86.256s-1.91 4.957.546 9.8l1.182-.346s-.636-3.92.364-6.342l-2.092-3.112z" transform="translate(68.471196, 83.351180) rotate(-34.000000) translate(-68.471196, -83.351180) translate(2.321196, -17.763190)"/>
                        <path fill="#F39800" d="M52.795 97.755c0 1.547-1.253 2.8-2.8 2.8-1.546 0-2.8-1.253-2.8-2.8 0-1.546 1.254-2.8 2.8-2.8 1.547 0 2.8 1.254 2.8 2.8" transform="translate(68.471196, 83.351180) rotate(-34.000000) translate(-68.471196, -83.351180) translate(2.321196, -17.763190)"/>
                        <path fill="#FFF" d="M56.354 77.22c-.889-.515-4.349-2.088-9.408 1.042-.174.108-.236.297-.153.46l.098.195c.129.254.534.331.796.153 1.145-.777 4.108-2.336 8.189-1.158.312.09.648-.074.679-.336.015-.139-.06-.274-.201-.356M57.593 78.766c0 .387-.313.7-.7.7-.386 0-.7-.313-.7-.7 0-.386.314-.7.7-.7.387 0 .7.314.7.7" transform="translate(68.471196, 83.351180) rotate(-34.000000) translate(-68.471196, -83.351180) translate(2.321196, -17.763190)"/>
                        <path fill="#F39800" d="M68.04 82.19s4.078-9.843 12.916-4.751c0 0 4.208 3.94 7.998 5.58 1.524.661 2.566 2.15 2.566 3.81 0 1.058-.424 2.136-1.812 2.829-3.57 1.782-7.138-3.819-8.667-1.273-1.53 2.546-5.864 10.183-14.021 10.692l.17-1.952s12.406-6.619 9.857-14.935c0 0-1.19-3.224-3.91-1.697-2.718 1.528-4.758 4.243-4.758 4.243l-.34-2.546z" transform="translate(68.471196, 83.351180) rotate(-34.000000) translate(-68.471196, -83.351180) translate(2.321196, -17.763190)"/>
                        <path fill="#F39800" d="M63.528 82.41c0 1.74 1.41 3.15 3.15 3.15s3.15-1.41 3.15-3.15c0-1.739-1.41-3.15-3.15-3.15s-3.15 1.411-3.15 3.15M63.635 98.526c0 1.74 1.41 3.15 3.15 3.15s3.15-1.41 3.15-3.15-1.41-3.15-3.15-3.15-3.15 1.41-3.15 3.15M80.42 87.58s1.911 4.958-.545 9.8l-1.183-.346s.637-3.92-.364-6.341l2.093-3.113z" transform="translate(68.471196, 83.351180) rotate(-34.000000) translate(-68.471196, -83.351180) translate(2.321196, -17.763190)"/>
                        <path fill="#F39800" d="M76.901 97.528c0 1.546 1.254 2.8 2.8 2.8 1.547 0 2.8-1.254 2.8-2.8 0-1.547-1.253-2.8-2.8-2.8-1.546 0-2.8 1.253-2.8 2.8" transform="translate(68.471196, 83.351180) rotate(-34.000000) translate(-68.471196, -83.351180) translate(2.321196, -17.763190)"/>
                        <path fill="#FFF" d="M72.198 77.356c.888-.515 4.348-2.087 9.407 1.042.175.109.236.297.154.46l-.099.195c-.128.255-.533.332-.796.154-1.144-.777-4.107-2.336-8.188-1.159-.312.09-.649-.073-.679-.335-.016-.14.06-.274.201-.357M70.756 78.457c0 .386.313.7.7.7.387 0 .7-.314.7-.7 0-.387-.313-.7-.7-.7-.387 0-.7.313-.7.7M115.071 84.526c2.138 11.726 7.654 50.621-8.586 71.33-2.313 2.95-1.3 7.366 2.063 8.882 2.45 1.104 5.306.23 6.793-2.07 5.501-8.504 15.986-32.104 6.132-79.479-.364-1.752-1.981-2.909-3.69-2.636-1.826.29-3.055 2.09-2.712 3.973M119.252 72.872c0 1.933-1.567 3.5-3.5 3.5s-3.5-1.567-3.5-3.5 1.567-3.5 3.5-3.5 3.5 1.567 3.5 3.5" transform="translate(68.471196, 83.351180) rotate(-34.000000) translate(-68.471196, -83.351180) translate(2.321196, -17.763190)"/>
                    </g>
                </g>
            </g>
        </g>
    </g>
</svg>
