<svg width="56" height="56" viewBox="0 0 56 56" fill="none" xmlns="http://www.w3.org/2000/svg">
<circle opacity="0.1" cx="28" cy="28" r="28" fill="#DA542E"/>
<path d="M25.3722 38.559V31.3539H31.1362V38.559C31.1362 39.3515 31.7847 40 32.5772 40H36.9002C37.6928 40 38.3412 39.3515 38.3412 38.559V28.4719H40.791C41.4538 28.4719 41.7708 27.6506 41.2665 27.2183L29.2197 16.3675C28.6721 15.8775 27.8363 15.8775 27.2887 16.3675L15.2419 27.2183C14.7519 27.6506 15.0545 28.4719 15.7174 28.4719H18.1671V38.559C18.1671 39.3515 18.8156 40 19.6081 40H23.9312C24.7237 40 25.3722 39.3515 25.3722 38.559Z" fill="#DA542E"/>
</svg>
