<svg width="56" height="56" viewBox="0 0 56 56" fill="none" xmlns="http://www.w3.org/2000/svg">
<circle opacity="0.1" cx="28" cy="28" r="28" fill="#1877F2"/>
<path fill-rule="evenodd" clip-rule="evenodd" d="M43 28.0917C43 19.7568 36.2843 13 28 13C19.7157 13 13 19.7568 13 28.0917C13 35.6244 18.4853 41.8679 25.6563 43V32.4542H21.8477V28.0917H25.6563V24.7668C25.6563 20.9845 27.8956 18.8952 31.3219 18.8952C32.9631 18.8952 34.6797 19.19 34.6797 19.19V22.9039H32.7882C30.9249 22.9039 30.3438 24.0673 30.3438 25.2608V28.0917H34.5039L33.8389 32.4542H30.3438V43C37.5147 41.8679 43 35.6244 43 28.0917Z" fill="#1877F2"/>
</svg>
