<svg width="56" height="57" viewBox="0 0 56 57" fill="none" xmlns="http://www.w3.org/2000/svg">
<circle cx="28" cy="28.7188" r="28" fill="#1877F2"/>
<path fill-rule="evenodd" clip-rule="evenodd" d="M43 28.8105C43 20.4755 36.2843 13.7188 28 13.7188C19.7157 13.7188 13 20.4755 13 28.8105C13 36.3432 18.4853 42.5867 25.6563 43.7188V33.1729H21.8477V28.8105H25.6563V25.4856C25.6563 21.7032 27.8956 19.614 31.3219 19.614C32.9631 19.614 34.6797 19.9087 34.6797 19.9087V23.6227H32.7882C30.9249 23.6227 30.3438 24.786 30.3438 25.9795V28.8105H34.5039L33.8389 33.1729H30.3438V43.7188C37.5147 42.5867 43 36.3432 43 28.8105Z" fill="#1877F2"/>
<path fill-rule="evenodd" clip-rule="evenodd" d="M43 28.8105C43 20.4755 36.2843 13.7188 28 13.7188C19.7157 13.7188 13 20.4755 13 28.8105C13 36.3432 18.4853 42.5867 25.6563 43.7188V33.1729H21.8477V28.8105H25.6563V25.4856C25.6563 21.7032 27.8956 19.614 31.3219 19.614C32.9631 19.614 34.6797 19.9087 34.6797 19.9087V23.6227H32.7882C30.9249 23.6227 30.3438 24.786 30.3438 25.9795V28.8105H34.5039L33.8389 33.1729H30.3438V43.7188C37.5147 42.5867 43 36.3432 43 28.8105Z" fill="white"/>
</svg>
