<svg width="189" height="68" viewBox="0 0 189 68" fill="none" xmlns="http://www.w3.org/2000/svg">
<path d="M151.498 37.5001H168.253L160.933 44.8201C160.348 45.4051 160.348 46.3651 160.933 46.9501C161.518 47.5351 162.463 47.5351 163.048 46.9501L172.933 37.0651C173.518 36.4801 173.518 35.5351 172.933 34.9501L163.063 25.0501C162.478 24.4651 161.533 24.4651 160.948 25.0501C160.363 25.6351 160.363 26.5801 160.948 27.1651L168.253 34.5001H151.498C150.673 34.5001 149.998 35.1751 149.998 36.0001C149.998 36.8251 150.673 37.5001 151.498 37.5001Z" fill="white"/>
<path opacity="0.2" d="M4 57L4 29C4 17.9543 12.9543 9 24 9L177 8.99998" stroke="white" stroke-width="8" stroke-linecap="round"/>
<path d="M58.24 30.64H49.46L51.6 30.02C51.38 29.16 50.94 27.84 50.52 26.84L48.14 27.44C48.5 28.42 48.9 29.74 49.1 30.64H41.84V33.04H58.24V30.64ZM48.54 41.44C48.2 39.3 47.48 36.14 46.72 33.62L44.32 34.2C45 36.68 45.74 39.96 45.98 42.1L48.54 41.44ZM53.32 42.58C54.22 40.26 55.26 37.1 56.02 34.2L53.32 33.68C52.8 36.5 51.74 40.14 50.74 42.58H40.94V45H59.08V42.58H53.32ZM71.9 30.18V31.88H68.3V30.18H71.9ZM68.3 35.82V34H71.9V35.82H68.3ZM70.02 39.44C70.32 39.96 70.64 40.54 70.96 41.12L68.3 41.88V37.94H74.28V28.06H65.86V41.48C65.86 42.26 65.38 42.66 64.94 42.88C65.32 43.46 65.72 44.62 65.86 45.3C66.42 44.92 67.22 44.6 71.92 43.12C72.22 43.74 72.46 44.34 72.62 44.84L74.84 43.66C74.3 42.26 73.08 40.08 72.08 38.44L70.02 39.44ZM82.56 28.2H75.4V45.74H77.8V30.38H80.22V39.64C80.22 39.9 80.12 39.98 79.88 39.98C79.66 40 78.92 40 78.2 39.96C78.5 40.58 78.78 41.56 78.86 42.2C80.14 42.2 81.06 42.18 81.7 41.8C82.38 41.4 82.56 40.78 82.56 39.7V28.2ZM92.3 39.84C92.34 39.38 92.36 38.96 92.36 38.54H95.64V39.84H92.3ZM95.64 35.4V36.78H92.36V35.4H95.64ZM97.94 33.54H90.22V38.12C90.22 40.08 90.1 42.6 88.86 44.4C89.34 44.64 90.28 45.36 90.64 45.74C91.44 44.6 91.9 43.1 92.12 41.58H95.64V43.36C95.64 43.6 95.56 43.68 95.32 43.68C95.06 43.7 94.26 43.7 93.52 43.66C93.82 44.2 94.16 45.08 94.28 45.68C95.5 45.68 96.42 45.64 97.06 45.3C97.74 44.96 97.94 44.4 97.94 43.38V33.54ZM103.64 43.08C103.64 43.36 103.54 43.44 103.22 43.44C102.88 43.46 101.84 43.46 100.82 43.42C101.18 44.04 101.56 45.02 101.68 45.66C103.12 45.68 104.2 45.62 104.96 45.26C105.76 44.88 105.98 44.3 105.98 43.12V33.18H103.64V43.08ZM101.84 33.74H99.66V41.9H101.84V33.74ZM102.98 30.02C103.48 29.32 104.02 28.54 104.5 27.76L101.92 27C101.52 27.92 100.88 29.1 100.28 30.02H94.72L95.82 29.64C95.48 28.88 94.68 27.8 93.96 27.04L91.7 27.82C92.26 28.48 92.84 29.34 93.2 30.02H88.94V32.16H107.04V30.02H102.98ZM116.58 27.1C115.8 28.42 114.18 30.04 112.74 31C113.12 31.5 113.68 32.48 113.96 33.02C115.72 31.8 117.62 29.82 118.84 27.96L116.58 27.1ZM115.14 45.76H117.6V34.78C118.2 33.96 118.74 33.14 119.2 32.32L117.1 31.48C116.02 33.42 114.16 35.38 112.5 36.62C112.86 37.2 113.46 38.54 113.64 39.08C114.14 38.66 114.64 38.18 115.14 37.68V45.76ZM126.34 42.9V38.82H130.12V36.56H126.34V33.04H130.72V30.78H124.74L126.66 30.08C126.4 29.22 125.7 27.92 125.1 26.98L122.9 27.72C123.46 28.68 124.06 29.94 124.3 30.78H119.2V33.04H123.86V36.56H119.88V38.82H123.86V42.9H118.58V45.16H131.24V42.9H126.34Z" fill="white"/>
</svg>
