<svg xmlns="http://www.w3.org/2000/svg" width="30" height="30" viewBox="0 0 30 30">
    <g fill="none" fill-rule="evenodd">
        <g>
            <g>
                <g>
                    <g>
                        <path d="M0.417 0H29.584000000000003V30H0.417z" transform="translate(-616.000000, -640.000000) translate(66.000000, 397.000000) translate(36.000000, 196.000000) translate(514.000000, 47.000000)"/>
                        <path fill="#413D46" d="M22.23 8.345c.637-.748 1.76-.839 2.508-.202.797.678.92 1.861.283 2.69l-8.95 11.612c-.017.023-.035.045-.054.067-.37.435-.904.648-1.434.625-.53.023-1.063-.19-1.433-.625l-.055-.067-8.949-11.613c-.638-.828-.514-2.011.282-2.69.749-.636 1.872-.545 2.508.203l.055.067 7.592 9.852 7.593-9.852.027-.034z" transform="translate(-616.000000, -640.000000) translate(66.000000, 397.000000) translate(36.000000, 196.000000) translate(514.000000, 47.000000)"/>
                    </g>
                </g>
            </g>
        </g>
    </g>
</svg>
