<svg xmlns="http://www.w3.org/2000/svg" width="36" height="36" viewBox="0 0 36 36">
    <g fill="none" fill-rule="evenodd">
        <g>
            <g>
                <g>
                    <g>
                        <path d="M0.5 0H35.5V36H0.5z" transform="translate(-948.000000, -720.000000) translate(395.000000, 462.000000) translate(40.000000, 204.000000) translate(513.000000, 54.000000)"/>
                        <path fill="#413D46" d="M26.676 10.014c.765-.898 2.112-1.007 3.01-.243.956.814 1.105 2.234.339 3.228l-10.74 13.935c-.02.028-.042.054-.065.08-.443.522-1.084.778-1.72.75-.635.028-1.276-.227-1.72-.75-.023-.026-.044-.052-.065-.08L4.975 13c-.766-.994-.617-2.414.34-3.228.897-.764 2.244-.655 3.009.243l.065.08L17.5 21.917l9.111-11.823.032-.04z" transform="translate(-948.000000, -720.000000) translate(395.000000, 462.000000) translate(40.000000, 204.000000) translate(513.000000, 54.000000)"/>
                    </g>
                </g>
            </g>
        </g>
    </g>
</svg>
