<svg xmlns="http://www.w3.org/2000/svg" width="21" height="20" viewBox="0 0 21 20">
    <g fill="none" fill-rule="evenodd">
        <g>
            <g>
                <g>
                    <g>
                        <path d="M0 0H20V20H0z" transform="translate(-307.000000, -878.000000) translate(0.000000, 385.000000) translate(38.000000, 454.000000) translate(269.600000, 39.000000)"/>
                        <path fill="#413D46" d="M14.932 5.594c.437-.528 1.218-.602 1.746-.165.542.448.626 1.247.189 1.798l-6.128 7.73-.016.02c-.257.312-.634.465-1.008.45-.375.015-.752-.138-1.01-.45l-.016-.02-6.127-7.73c-.437-.55-.353-1.35.189-1.798.527-.437 1.309-.363 1.745.165l.016.02 5.202 6.562 5.202-6.562.008-.01z" transform="translate(-307.000000, -878.000000) translate(0.000000, 385.000000) translate(38.000000, 454.000000) translate(269.600000, 39.000000)"/>
                    </g>
                </g>
            </g>
        </g>
    </g>
</svg>
