<svg width="64" height="64" viewBox="0 0 64 64" fill="none" xmlns="http://www.w3.org/2000/svg">
<circle opacity="0.1" cx="32" cy="32" r="32" fill="#FFF6E5"/>
<path d="M29.336 50C28.636 50 28.096 49.38 28.196 48.68L29.996 36H22.996C21.236 36 22.336 34.5 22.376 34.44C24.896 29.98 28.676 23.38 33.676 14.58C33.876 14.22 34.276 14 34.676 14C35.376 14 35.916 14.62 35.816 15.32L34.016 28H41.036C41.836 28 42.276 28.38 41.836 29.32C35.256 40.8 31.436 47.5 30.336 49.42C30.136 49.78 29.756 50 29.336 50Z" fill="#FFF6E5"/>
</svg>
