<svg width="61" height="40" viewBox="0 0 61 40" fill="none" xmlns="http://www.w3.org/2000/svg">
<path d="M60.7051 26.2669C60.7969 29.8646 59.4558 33.3515 56.9768 35.9605C55.7197 37.2554 54.2117 38.2804 52.545 38.9727C50.8783 39.6651 49.0879 40.0102 47.2832 39.9871C45.1943 40.0817 43.1135 39.6701 41.2179 38.7873C39.3224 37.9044 37.6683 36.5765 36.3966 34.9166C33.6711 31.7239 32.2352 27.629 32.37 23.4334C32.37 15.5294 38.7827 7.77452 51.9064 0.317916C52.1216 0.180074 52.3619 0.0861251 52.6135 0.0415016C52.8651 -0.00312191 53.1231 0.00244671 53.3726 0.0578857C53.6221 0.113325 53.8581 0.217544 54.0672 0.364542C54.2762 0.511541 54.4541 0.698423 54.5907 0.914435C54.7673 1.11556 54.9003 1.35107 54.9814 1.60614C55.0625 1.86121 55.0899 2.13032 55.0619 2.3965C55.0339 2.66267 54.9511 2.92015 54.8186 3.15274C54.6862 3.38533 54.5071 3.58798 54.2925 3.74794C50.415 7.17798 48.3272 9.86236 48.3272 12.0993C48.3272 14.3363 49.5202 13.5907 51.6081 14.3363C53.7834 15.0874 55.8419 16.1417 57.7225 17.4681C59.8104 19.4068 60.7051 22.2403 60.7051 26.2669Z" fill="#DA542E"/>
<path d="M28.3438 26.2665C28.4355 29.8643 27.0944 33.3511 24.6155 35.9601C23.3584 37.2551 21.8504 38.2801 20.1836 38.9724C18.5169 39.6647 16.7266 40.0098 14.9219 39.9867C12.833 40.0814 10.7521 39.6698 8.8566 38.7869C6.96106 37.904 5.30697 36.5761 4.03525 34.9162C1.30968 31.7236 -0.126172 27.6287 0.00870919 23.433C0.00870919 15.529 6.42135 7.77417 19.545 0.317562C20.0028 0.0313397 20.5536 -0.0664367 21.082 0.0447883C21.6103 0.156013 22.075 0.467582 22.3785 0.914081C22.6801 1.35414 22.8017 1.89291 22.7185 2.41983C22.6353 2.94675 22.3535 3.42184 21.9311 3.74758C18.0537 7.17762 15.9658 9.86201 15.9658 12.099C15.9658 14.336 17.1589 13.5903 19.2467 14.336C21.4221 15.087 23.4805 16.1414 25.3612 17.4678C27.449 19.4065 28.3438 22.24 28.3438 26.2665Z" fill="#DA542E"/>
</svg>
