<svg width="344" height="56" viewBox="0 0 344 56" fill="none" xmlns="http://www.w3.org/2000/svg">
<circle opacity="0.3" cx="28" cy="28" r="28" fill="#413D46"/>
<path opacity="0.8" d="M40.988 21.1389C39.9885 20.9118 39.3979 21.0935 38.83 21.4114L38.5801 21.5704C37.6941 22.1154 36.7628 22.5015 35.9677 23.7052C35.0626 25.0156 34.5648 26.564 34.5367 28.1563C34.4859 29.8982 34.2729 31.6317 33.9006 33.3341C33.787 33.9473 33.6054 34.5832 33.0829 34.992C33.0081 35.0694 32.9112 35.1219 32.8055 35.1422C32.6998 35.1626 32.5904 35.1497 32.4923 35.1055C32.2878 35.0147 32.1061 34.9011 32.1288 34.6513C32.2197 33.3342 31.5381 32.2441 31.0611 31.1086C30.5841 29.9731 30.1752 28.9284 30.1525 27.7248C30.106 26.9597 30.2221 26.1935 30.4932 25.4765C30.9442 23.922 31.7712 22.5025 32.9011 21.3433C33.8552 20.4576 35.0364 18.7316 35.2635 17.4145C35.3998 16.665 35.786 15.416 34.9683 13.5765C34.1505 11.737 32.1515 11.2828 31.7426 11.1238C31.3337 10.9649 31.2656 11.033 31.3565 10.7605C31.4473 10.488 31.9471 10.17 31.4473 10.1019C30.9476 10.0337 30.1071 9.89752 29.4484 10.0792C29.2439 10.1473 28.9031 10.2381 28.9486 9.76123C28.9713 9.62497 28.7895 9.625 28.6759 9.625C27.9036 9.71584 27.1995 9.92021 26.7225 10.6242C26.5634 10.8513 26.4271 11.1465 26.1318 11.2374C25.4703 11.5145 24.7863 11.7349 24.0874 11.896C23.5475 11.9722 23.0249 12.1412 22.5426 12.3956C22.3382 12.5091 22.0656 12.6454 22.1111 12.8725C22.2247 13.5538 22.3156 14.2351 22.8608 14.7347C22.986 14.8549 23.0931 14.9925 23.1788 15.1435C23.4514 15.6431 23.4967 15.6431 23.792 15.1889C24.0873 14.7347 24.3826 14.8255 24.7007 14.8028C25.0187 14.7801 24.9506 15.1662 25.0641 15.3479C25.1777 15.5296 25.0869 15.4387 25.1096 15.4841C25.1323 15.5295 25.0642 16.0065 24.7461 16.0973C24.5246 16.1319 24.2981 16.0834 24.1101 15.961C24.0235 15.9011 23.9178 15.875 23.8132 15.8876C23.7086 15.9001 23.6123 15.9505 23.5422 16.0292C23.4509 16.1178 23.3427 16.1873 23.2241 16.2336C22.7471 16.4379 22.3155 17.2101 22.4291 17.7324C22.5426 18.2548 23.8375 18.3683 23.8602 18.4591C23.883 18.55 23.792 18.6181 23.7012 18.6635C23.4078 18.7515 23.1258 18.8734 22.8608 19.0269C22.3837 19.3675 21.7704 19.5946 21.7022 20.3213C21.6795 20.4803 21.5659 20.503 21.4523 20.3895C21.3734 20.3072 21.3048 20.2158 21.2479 20.117C20.68 19.0723 20.521 17.846 20.3393 16.7105C20.1576 15.575 19.8622 14.6212 18.7492 14.0534C18.1131 13.7582 17.3181 14.008 17.1818 14.712C17.0455 15.416 16.8865 16.279 17.5225 16.9603C17.6271 17.0621 17.7062 17.1871 17.7536 17.3252C17.8009 17.4633 17.8151 17.6105 17.7951 17.7551C17.7615 18.2475 17.9157 18.7343 18.2266 19.1177C18.4855 19.4697 18.6427 19.8861 18.681 20.3213C18.7718 21.5023 18.8854 22.6378 19.3852 23.7278C19.4987 24.0003 19.2943 24.0685 19.0899 24.0912C18.1741 24.2017 17.2696 24.3917 16.3867 24.659C15.4781 24.8861 14.5922 25.1358 13.7744 25.6582C12.9566 26.1805 12.9112 26.998 13.6381 27.6339C14.365 28.2698 15.8188 27.9064 16.7501 27.0662C16.9773 26.8618 17.159 26.5439 17.4316 26.453C19.2943 25.8399 20.4755 26.6801 20.839 27.6339C22.111 31.0404 25.3367 32.4484 24.519 33.0843C22.6563 34.5605 22.202 35.537 22.0657 36.786C21.9294 38.0351 22.7699 38.9208 23.2015 39.3977C24.0193 40.3288 22.6336 41.8276 21.9294 42.2818C21.2252 42.736 20.362 42.6906 19.6805 42.7133C18.5902 42.7815 18.1813 43.2811 17.9541 43.6217L18.204 43.8034C18.9763 44.3485 19.9303 44.9162 20.2938 45.1433C20.3401 45.1793 20.3949 45.2028 20.4529 45.2114C20.8617 45.3704 21.5887 45.2568 22.1565 44.8481L22.2474 44.7799C22.4296 44.6552 22.5973 44.5105 22.7472 44.3484C23.8375 43.1221 24.9279 41.8731 26.2681 40.8966C26.4953 40.7603 26.518 40.5786 26.3817 40.3061C26.2454 40.0336 26.2227 39.2387 26.7225 38.8981C27.2222 38.5574 27.7219 38.4666 28.2671 38.3303C28.8123 38.1941 28.6078 38.3076 28.5624 38.512C28.5169 38.7164 28.9031 40.3515 29.471 41.2372C30.0389 42.1229 29.1303 42.8042 28.7669 43.213C28.4034 43.6217 27.9945 43.8034 27.5856 44.0532C27.1767 44.303 26.3135 44.7572 26.3135 45.9154H28.9258C31.0384 46.0063 30.675 45.0297 31.0157 44.0986C31.2429 43.5536 31.8789 41.646 32.1969 41.2599C32.4266 41.0055 32.5787 40.6907 32.635 40.3526C32.6914 40.0145 32.6498 39.6674 32.515 39.3523C32.2177 38.7462 32.0845 38.0728 32.1288 37.3992C32.1515 36.9677 32.2651 36.786 32.6967 36.8314C33.1283 36.8769 33.9915 36.5363 34.3776 35.9685C35.0498 34.9561 35.4633 33.7941 35.5816 32.5847C35.7407 31.0858 35.7179 29.5643 35.7861 28.0654C35.8542 26.5666 35.945 25.749 36.3993 24.659C36.8536 23.5689 37.3534 23.319 38.2393 23.4326C38.4036 23.4436 38.5648 23.482 38.7164 23.5461H38.8754C39.5569 23.8641 40.1929 24.5908 39.7159 25.59C39.2388 26.5893 40.5337 28.2244 40.5337 27.475C40.5337 26.7255 40.8971 26.7028 41.9874 24.9315C43.0778 23.1601 42.5326 21.5023 40.988 21.1389Z" fill="#F5F2ED"/>
<circle opacity="0.3" cx="124" cy="28" r="28" fill="#413D46"/>
<path opacity="0.8" fill-rule="evenodd" clip-rule="evenodd" d="M108.25 36.0582C109.64 53.8263 140.227 43.6771 139.365 35.8914C139.198 34.3064 138.003 31.9429 133.581 30.1077L132.052 29.5238C131.273 29.2735 130.439 29.0233 129.494 28.8008C128.799 24.9914 126.852 21.599 122.57 17.5393C121.736 16.7608 121.402 16.3159 121.319 15.2593C121.235 14.2026 123.015 13.0069 125.017 14.3416C127.019 15.6763 129.049 20.7649 131.607 18.4848C131.706 18.3696 131.799 18.2489 131.885 18.1233C130.133 18.457 129.077 17.2335 128.131 15.8432C128.074 15.7576 128.039 15.6587 128.03 15.556C128.021 15.4534 128.038 15.3501 128.08 15.2558C128.122 15.1615 128.186 15.0791 128.268 15.0166C128.35 14.954 128.447 14.9131 128.548 14.8978C129.401 14.7735 130.269 14.8113 131.107 15.009C132.052 15.3705 131.996 15.871 131.412 16.594C132.108 16.3437 132.386 16.01 132.58 15.2871C133.442 15.593 132.719 16.3715 132.413 16.8442C134.916 15.8988 136.195 14.2026 132.413 13.2016C132.719 11.9504 129.244 10.421 125.379 9.89266C118.844 8.97506 116.314 10.4766 116.064 13.4797C115.535 19.8473 122.125 21.5156 123.766 26.6597C124.164 28.0788 124.324 29.554 124.238 31.0253C123.96 34.362 119.178 38.6998 115.758 36.1138C112.727 32.5546 120.095 31.637 121.931 31.4424C122.046 31.4357 122.156 31.3867 122.238 31.3047C122.32 31.2227 122.369 31.1134 122.375 30.9975C122.417 30.0146 122.314 29.0308 122.07 28.0779C122.046 27.9742 121.991 27.8805 121.911 27.8105C121.831 27.7405 121.731 27.6978 121.625 27.6886C118.65 27.5217 115.146 27.9388 112.755 29.8018C110.892 31.3034 110.196 33.8059 110.892 36.3084C113.478 45.4845 126.101 42.259 129.216 35.0294C129.472 34.1504 129.631 33.2459 129.689 32.3322C135.417 33.6669 134.833 37.1148 132.247 39.6452C127.297 44.5112 109.612 46.9304 108.25 36.0582Z" fill="#F5F2ED"/>
<circle opacity="0.3" cx="220" cy="28" r="28" fill="#413D46"/>
<path opacity="0.8" d="M231.237 26.0704C231.097 25.9301 229.319 27.123 225.881 29.1347C223.799 30.3744 221.366 31.5674 219.682 32.4094C222.208 30.9826 228.29 27.4505 230.418 25.2751C233.132 22.5149 232.243 19.3338 232.103 19.2402C231.962 19.1466 230.161 21.2986 226.489 24.3395C223.892 26.5148 221.179 28.4563 219.541 29.7195C221.647 27.7546 227.331 23.1699 229.249 20.6203C231.728 17.2987 229.927 14.3046 229.763 14.2344C229.6 14.1643 228.033 16.8777 224.851 20.5267C222.559 23.1466 219.775 25.6026 218.208 27.2868C220.618 24.55 226.442 18.2577 227.401 15.2169C228.36 12.176 226.489 9.5562 226.278 9.62638C226.068 9.69655 224.921 12.5503 221.74 17.6028C218.559 22.6553 215.635 26.1874 215.004 27.3102C214.785 27.6745 214.659 28.0873 214.639 28.5118C214.619 28.9363 214.704 29.3593 214.887 29.7429C215.05 30.1405 216.08 30.889 215.986 32.1522C215.846 33.8363 214.816 35.7778 214.395 36.3392L211.097 35.8948C211.174 35.7642 211.229 35.622 211.261 35.4737C211.308 35.2632 211.144 35.2398 211.144 35.2398C210.844 35.3013 210.547 35.3794 210.255 35.4737C209.787 35.6375 208.688 35.731 207.869 36.1521C207.051 36.5731 206.817 37.041 206.887 37.7661C206.957 38.4912 207.425 38.9824 207.495 38.959C207.565 38.9356 207.425 38.2807 207.682 38C207.939 37.7193 208.805 37.6024 208.805 37.6024C208.805 37.6024 212.43 39.6607 215.448 40.9473C215.846 41.1344 216.898 41.6022 217.296 42.3274C217.384 42.5261 217.494 42.7144 217.623 42.8887L217.927 43.0759L217.436 45.2045C217.436 45.2045 216.43 44.0583 215.986 43.8712C215.846 43.7985 215.689 43.7666 215.531 43.779C215.374 43.7914 215.224 43.8476 215.097 43.9414C214.863 44.1051 214.887 44.339 214.957 44.3624C215.027 44.3858 215.401 44.1519 215.846 44.3858C216.29 44.6197 216.968 45.1811 216.968 45.1811C216.968 45.1811 215.916 44.6431 215.378 44.8302C214.84 45.0174 214.606 45.5787 214.7 45.6255C214.793 45.6723 215.214 45.2279 215.799 45.1811C216.107 45.1992 216.412 45.2462 216.711 45.3215C216.711 45.3215 215.986 45.3682 215.775 45.6022C215.565 45.8361 215.448 46.2571 215.588 46.2805C215.729 46.3039 215.822 45.9062 216.08 45.7425C216.337 45.5787 216.968 45.4384 217.296 45.6255C217.689 45.868 218.044 46.1675 218.348 46.5144C218.419 46.6781 218.044 47.0056 218.325 47.0524C218.606 47.0992 218.887 46.6079 218.77 46.4442C218.653 46.2805 217.834 45.5787 217.834 45.5787L218.606 43.2396C218.777 43.2718 218.953 43.2638 219.12 43.2163C219.171 43.1531 219.21 43.0819 219.237 43.0057V42.9589C219.363 42.6026 219.558 42.2746 219.811 41.9936C220.064 41.7127 220.37 41.4843 220.711 41.3215L221.53 40.9005C221.787 41.1344 222.068 41.3917 222.395 41.649C223.518 42.5145 224.875 42.6315 224.898 42.5613C224.921 42.4911 224.407 41.9297 223.728 41.345L224.243 41.532C225.81 42.0466 226.302 42.0701 227.167 42.0233C228.033 41.9765 228.781 41.5087 228.664 41.228C228.547 40.9473 226.091 41.228 225.389 40.4561C226.127 40.6999 226.907 40.7953 227.682 40.7368C229.459 40.6666 230.395 39.6374 230.255 39.4502C230.114 39.2631 229.296 39.5672 228.009 39.5672C227.485 39.5578 226.964 39.4711 226.465 39.3099C227.418 39.3193 228.363 39.1445 229.249 38.7953C230.676 38.2105 231.237 37.1111 231.26 36.924C231.284 36.7368 230.301 37.3684 228.524 37.6257C226.746 37.883 222.512 37.5555 222.512 37.5555C221.577 37.4152 218.278 36.9474 219.074 36.9474C221.329 36.892 223.569 36.5541 225.74 35.9416C230.442 34.6082 229.506 31.7311 229.436 31.6376C229.366 31.544 228.337 32.1522 225.296 33.158C222.676 34.0235 220.618 34.3977 219.261 34.772C221.249 34.1404 227.073 32.2224 229.062 30.9826C231.892 29.2049 231.331 26.164 231.237 26.0704Z" fill="#F5F2ED"/>
<circle opacity="0.3" cx="316" cy="28" r="28" fill="#413D46"/>
<path opacity="0.8" fill-rule="evenodd" clip-rule="evenodd" d="M328.719 23.9206C328.719 23.9206 328.797 23.7246 328.304 23.2774C327.956 22.9625 327.497 22.9918 327.256 23.0365L325.207 22.2738C324.657 22.1484 324.086 22.1661 323.545 22.325C322.704 22.5727 321.331 22.9609 320.015 23.2652C320.218 22.3645 320.23 21.3094 320.652 20.4798C321.415 18.981 323.517 17.6962 324.087 17.3677C324.277 17.5051 324.458 17.2693 324.701 17.1782C324.97 17.0774 325.609 17.462 325.609 17.462C325.609 17.462 325.674 17.2615 325.155 16.8458C324.847 16.5999 324.476 16.6015 324.224 16.6435C324.294 16.5643 324.364 16.4672 324.456 16.394C324.681 16.2146 325.407 16.3815 325.407 16.3815C325.407 16.3815 325.407 16.1707 324.784 15.937C324.488 15.8258 324.202 15.8804 323.983 15.9674C323.998 15.9313 324.015 15.8954 324.035 15.8614C324.183 15.6147 324.921 15.5161 324.921 15.5161C324.921 15.5161 324.848 15.3185 324.183 15.3185C323.79 15.3185 323.502 15.5509 323.33 15.7412L322.565 15.9798C320.738 16.5498 319.208 17.7879 318.201 19.417C318.208 18.5547 318.228 18.7938 318.227 18.5798C318.227 18.4908 318.016 18.1213 317.695 17.609L322.084 15.603C322.773 15.2881 323.251 14.6402 323.351 13.888L323.352 13.8758L320.469 14.6446L322.009 12.8833L322.83 13.4491L322.848 13.3824C322.931 13.0749 322.851 12.7714 322.671 12.5478C323.063 12.2606 323.273 11.7745 323.194 11.2796L323.068 10.8239C323.269 10.9208 323.105 9.88185 323.11 9.78447C323.044 9.80109 321.97 10.0735 321.933 10.2687C321.077 10.469 319.904 10.6671 319.719 10.3022C319.276 9.42302 316.304 8.99276 313.741 11.6271C313.741 11.6271 313.427 11.3505 312.823 11.4468C312.67 11.4583 312.514 11.4964 312.37 11.5764C311.472 11.941 311.75 12.9119 311.75 12.915C311.75 12.9153 311.751 12.9153 311.751 12.9155C311.75 12.916 311.742 12.943 311.755 12.9571C311.8 13.5146 312.371 13.58 312.964 13.492C312.064 14.098 310.855 14.9419 309.772 15.7973L309.773 15.7957C309.773 15.7957 307.72 16.7432 306.731 18.9314C305.743 21.1196 305.546 23.2125 305.546 23.2125C305.546 23.2125 306.489 21.6901 307.018 21.2884L307.547 20.8864C307.547 20.8864 306.805 21.9544 306.381 22.575C305.706 23.5639 305.464 25.5316 305.464 25.5316C305.464 25.5316 305.971 24.4379 306.173 24.2969C306.375 24.1559 307.166 23.3933 307.166 23.3933C307.166 23.3933 305.775 25.8131 305.528 26.509C305.282 27.2049 305.03 28.7771 305.03 28.7771C305.03 28.7771 305.439 27.7328 305.909 27.2742C306.029 27.1568 306.208 27.0602 306.413 26.9566L306.052 28.6029L305.412 36.827C305.412 36.827 302.977 45.659 304.002 45.8517C304.556 45.9558 306.062 45.9387 307.512 45.8301L307.448 45.8517C307.448 45.8517 310.101 45.6115 310.547 45.6411C310.992 45.6704 311.737 45.8517 311.737 45.8517C311.737 45.8517 311.663 45.4108 310.908 45.0815C310.866 45.0633 310.826 45.0477 310.786 45.0335C311.155 45.0589 311.514 45.1083 311.514 45.1083C311.514 45.1083 311.395 44.6769 310.61 44.4266C310.459 44.3783 310.323 44.3531 310.204 44.3435C310.119 44.337 310.04 44.3505 309.966 44.3747C309.511 44.1366 309.034 43.9587 309.034 43.9587C309.034 43.9587 311.079 40.8043 312.423 37.968C312.457 38.2601 312.586 38.4699 312.844 38.5618C314.83 39.2684 315.699 43.3804 316.276 44.9226C316.852 46.4645 322.747 45.6221 322.747 45.6221L322.749 45.6097C322.878 45.6128 323.136 45.6206 323.447 45.6411C323.893 45.6704 324.637 45.8517 324.637 45.8517C324.637 45.8517 324.563 45.4108 323.808 45.0815C323.767 45.0633 323.726 45.0477 323.687 45.0335C324.056 45.0589 324.414 45.1083 324.414 45.1083C324.414 45.1083 324.295 44.6769 323.511 44.4266C323.359 44.3783 323.224 44.3531 323.104 44.3435C322.898 44.3274 322.714 44.4136 322.587 44.5546C322.383 44.1916 322.033 43.9096 321.6 43.7886C321.114 43.6531 320.633 43.3547 320.376 42.738C319.736 41.1961 320.184 37.2768 318.454 35.3493C317.269 34.0286 316.729 32.1351 316.506 31.0736C317.102 30.0498 317.622 28.875 317.93 27.4518C320.089 28.4541 320.924 25.9276 322.565 25.0743C324.047 24.3039 326.311 24.7173 326.931 24.8518C327.043 24.9455 327.259 24.9318 327.445 25.0058C327.712 25.112 327.928 25.8268 327.928 25.8268C327.928 25.8268 328.111 25.7219 328.003 25.0639C327.939 24.6747 327.663 24.4265 327.448 24.2881C327.553 24.2766 327.67 24.2517 327.787 24.2592C328.074 24.2772 328.501 24.8892 328.501 24.8892C328.501 24.8892 328.642 24.7326 328.336 24.1408C328.19 23.8588 327.942 23.7072 327.721 23.6246C327.757 23.6077 327.793 23.5927 327.831 23.581C328.105 23.4971 328.719 23.9206 328.719 23.9206Z" fill="#F5F2ED"/>
</svg>
