<svg xmlns="http://www.w3.org/2000/svg" xmlns:xlink="http://www.w3.org/1999/xlink" width="1328" height="360" viewBox="0 0 1328 360">
    <defs>
        <rect id="o8as5rtosa" width="1328" height="360" x="0" y="0" rx="36"/>
    </defs>
    <g fill="none" fill-rule="evenodd">
        <g>
            <g transform="translate(-56 -1461) translate(56 1461)">
                <mask id="z6z9eh2zdb" fill="#fff">
                    <use xlink:href="#o8as5rtosa"/>
                </mask>
                <path fill="#F5F2ED" d="M1015.956 280.073c-65.862-34.562-134.101-66.423-206.174-93.004C607.287 112.543 382.71 70 145.1 70h-2373.962c-52.137 0-93.618 37.754-83.65 78.823 99.445 408.483 441.868 746.859 901.525 916.108C-1208.492 1139.457-983.839 1182-746.305 1182h2473.637c-.077-.614-.383-1.228-.46-1.842-62.336-377.296-330.922-701.062-710.916-900.085z" mask="url(#z6z9eh2zdb)" opacity=".3"/>
                <path fill="#F5F2ED" d="M1009.34 280.073c65.792-34.562 133.803-66.423 205.716-93.004C1417.1 112.543 1641.178 70 1878.26 70h4847.865c52.099 0 93.487 37.754 83.465 78.823-99.225 408.483-440.735 746.859-899.524 916.108C5708.1 1139.457 5483.945 1182 5246.94 1182H542.824c.152-.614-242.898-1.228-242.824-1.842 62.2-377.296 330.19-701.062 709.34-900.085z" mask="url(#z6z9eh2zdb)" opacity=".3"/>
            </g>
        </g>
    </g>
</svg>
