<svg xmlns="http://www.w3.org/2000/svg" width="56" height="91" viewBox="0 0 56 91">
    <g fill="none" fill-rule="evenodd">
        <g>
            <g transform="translate(-1356 -1881) translate(1356 1881)">
                <rect width="56" height="56" y="35" fill="#8CB4FF" rx="8"/>
                <g>
                    <path fill="#000" d="M3.45 3.775l6.06 6.06-1.817 1.819-6.061-6.061L3.45 3.775zm23.1 0l1.817 1.818-6.06 6.06-1.818-1.817 6.06-6.061zM15.427 0v8.572h-2.571V0h2.571z" transform="translate(13 45)"/>
                    <path fill="#FFF" d="M29.143 21.429C29.143 29.476 22.619 36 14.57 36 6.523 36 0 29.476 0 21.429 0 13.38 6.523 6.857 14.571 6.857s14.572 6.524 14.572 14.572" transform="translate(13 45)"/>
                    <path fill="#000" d="M21.429 20.571c0 3.787-3.07 6.858-6.858 6.858-3.787 0-6.857-3.07-6.857-6.858 0-3.786 3.07-6.857 6.857-6.857 3.787 0 6.858 3.07 6.858 6.857" transform="translate(13 45)"/>
                    <path fill="#FFF" d="M16.286 19.714c0 .947-.768 1.715-1.715 1.715-.947 0-1.714-.768-1.714-1.715 0-.946.767-1.714 1.714-1.714s1.715.768 1.715 1.714" transform="translate(13 45)"/>
                </g>
                <path fill="#562F7C" d="M13.02 35.704S12.05 25.995 23.87 26c11.817.006 11.814 7.097 18.905 5.918 0 0-1.185 7.091-9.458 7.087-8.273-.004-15.779-5.409-20.298-3.301"/>
                <path fill="#8CB4FF" fill-rule="nonzero" d="M25.863.71L14.711 11.864c-.948.948-.948 2.479 0 3.426.947.948 2.478.948 3.426 0l9.451-9.427 9.428 9.427c.948.948 2.478.948 3.426 0 .948-.947.948-2.478 0-3.426L29.289.711c-.923-.948-2.478-.948-3.426 0z"/>
            </g>
        </g>
    </g>
</svg>
