<svg xmlns="http://www.w3.org/2000/svg" xmlns:xlink="http://www.w3.org/1999/xlink" width="328" height="600" viewBox="0 0 328 600">
    <defs>
        <path id="ud0acbjsya" d="M98.76 251.28v-25.2H93v25.2h5.76zm12.54 0v-9.828c0-2.556 1.368-3.708 3.348-3.708 1.728 0 3.132 1.044 3.132 3.276v10.26h5.4v-11.052c0-4.86-3.096-7.452-6.732-7.452-2.376 0-4.176.864-5.148 2.196v-1.692h-5.4v18h5.4zm25.068.504c3.888 0 7.488-1.764 7.488-5.904 0-6.66-8.856-5.292-8.856-7.344 0-.648.576-1.008 1.512-1.008 1.188 0 1.908.648 2.412 1.584l4.608-2.484c-1.512-2.556-4.104-3.852-7.02-3.852-3.744 0-7.056 1.98-7.056 5.904 0 6.228 8.856 5.184 8.856 7.164 0 .72-.648 1.116-1.944 1.116-1.584 0-2.592-.756-3.06-2.124l-4.68 2.664c1.404 2.916 4.14 4.284 7.74 4.284zm19.668 0c2.376 0 4.176-.864 5.148-2.196v1.692h5.4v-18h-5.4v9.828c0 2.556-1.368 3.708-3.348 3.708-1.728 0-3.132-1.044-3.132-3.276v-10.26h-5.4v11.052c0 4.86 3.096 7.452 6.732 7.452zm22.908-.504V225h-5.4v26.28h5.4zm14.664.504c2.412 0 4.176-.828 5.364-2.196v1.692h5.4v-18h-5.4v1.692c-1.188-1.368-2.952-2.196-5.364-2.196-4.716 0-8.604 4.14-8.604 9.504s3.888 9.504 8.604 9.504zm1.08-5.112c-2.484 0-4.284-1.692-4.284-4.392s1.8-4.392 4.284-4.392 4.284 1.692 4.284 4.392-1.8 4.392-4.284 4.392z"/>
    </defs>
    <g fill="none" fill-rule="evenodd">
        <g>
            <g transform="translate(-876 -1944) translate(876 1944)">
                <path fill="#000" d="M278 12c22.091 0 40 17.909 40 40v498c0 22.091-17.909 40-40 40H50c-22.091 0-40-17.909-40-40V52c0-22.091 17.909-40 40-40h228zm35 50H15v476h298V62z"/>
                <circle cx="204" cy="23" r="9" fill="#413D46"/>
                <path fill="#212121" d="M277.257 0c27.965 0 50.634 22.703 50.634 50.708v498.584c0 28.005-22.67 50.708-50.634 50.708H50.634C22.67 600 0 577.297 0 549.292V50.708C0 22.703 22.67 0 50.634 0zM82.583 16.44H50.81c-19.454 0-35.283 15.865-35.283 35.366V550.02c0 19.5 15.829 35.365 35.283 35.365h226.271c19.455 0 35.284-15.865 35.284-35.365V51.806c0-19.5-15.83-35.366-35.284-35.366H245.31c-2.032 0-3.686 1.658-3.686 3.695v2.423c0 9.023-7.324 16.363-16.326 16.363H102.595c-9.002 0-16.325-7.34-16.325-16.363v-2.423c0-2.037-1.654-3.695-3.687-3.695zm121.086 1.303c-2.622 0-4.747 2.128-4.747 4.754 0 2.625 2.125 4.753 4.747 4.753 2.621 0 4.747-2.128 4.747-4.753 0-2.626-2.126-4.754-4.747-4.754zm-23.68 1.848h-32.086c-1.6 0-2.901 1.304-2.901 2.905 0 1.602 1.301 2.906 2.901 2.906h32.085c1.6 0 2.9-1.304 2.9-2.906 0-1.601-1.3-2.905-2.9-2.905z"/>
                <g>
                    <path fill="#413D46" d="M0 0H298V476H0z" transform="translate(15 62)"/>
                    <g fill-rule="nonzero" transform="translate(15 62)">
                        <use fill="#413D46" xlink:href="#ud0acbjsya"/>
                        <use fill="#F6F2EE" xlink:href="#ud0acbjsya"/>
                    </g>
                </g>
            </g>
        </g>
    </g>
</svg>
