<?xml version="1.0" encoding="utf-8"?>
<!-- Generator: Adobe Illustrator 25.2.1, SVG Export Plug-In . SVG Version: 6.00 Build 0)  -->
<svg version="1.1" id="Layer_1" xmlns="http://www.w3.org/2000/svg" xmlns:xlink="http://www.w3.org/1999/xlink" x="0px" y="0px"
	 viewBox="0 0 649 600" style="enable-background:new 0 0 649 600;" xml:space="preserve">
<style type="text/css">
	.st0{filter:url(#Adobe_OpacityMaskFilter);}
	.st1{fill-rule:evenodd;clip-rule:evenodd;fill:#FFFFFF;}
	.st2{mask:url(#mask-2_1_);}
	.st3{opacity:0.4;}
	.st4{fill-rule:evenodd;clip-rule:evenodd;fill:#FFDE03;}
	.st5{fill-rule:evenodd;clip-rule:evenodd;fill:#F92D5E;}
	.st6{fill-rule:evenodd;clip-rule:evenodd;fill:#58B2F1;}
	.st7{fill-rule:evenodd;clip-rule:evenodd;fill:#3BC47C;}
	.st8{opacity:0.1;fill:#413D46;enable-background:new    ;}
	.st9{opacity:0.4;fill:#413D46;enable-background:new    ;}
	.st10{opacity:0.2;fill:none;stroke:#413D46;stroke-width:2;stroke-linecap:round;enable-background:new    ;}
	.st11{fill-rule:evenodd;clip-rule:evenodd;fill:#413D46;}
	.st12{opacity:0.4;fill-rule:evenodd;clip-rule:evenodd;fill:#2FDAC6;}
</style>
<g id="Page-1">
	<g id="Insula-Homepage-v01.01" transform="translate(-56.000000, -1880.000000)">
		<g id="img_science_01" transform="translate(56.000000, 1880.000000)">
			<g id="Rectangle">
			</g>
			<defs>
				<filter id="Adobe_OpacityMaskFilter" filterUnits="userSpaceOnUse" x="60" y="28.9" width="528.9" height="542.7">
					<feColorMatrix  type="matrix" values="1 0 0 0 0  0 1 0 0 0  0 0 1 0 0  0 0 0 1 0"/>
				</filter>
			</defs>
			<mask maskUnits="userSpaceOnUse" x="60" y="28.9" width="528.9" height="542.7" id="mask-2_1_">
				<g class="st0">
					<rect id="path-1_1_" class="st1" width="649" height="600"/>
				</g>
			</mask>
			<g id="Group-14" class="st2">
				<g transform="translate(60.000000, 28.000000)">
					
						<g id="Group-13" transform="translate(435.877398, 247.058594) rotate(-360.000000) translate(-435.877398, -247.058594) translate(342.877398, 164.558594)" class="st3">
						<path id="Rectangle-Copy-7" class="st4" d="M17,58L17,58c9.4,0,17,7.6,17,17v73c0,9.4-7.6,17-17,17l0,0c-9.4,0-17-7.6-17-17
							V75C0,65.6,7.6,58,17,58z"/>
						<path id="Rectangle-Copy-11" class="st5" d="M67,0L67,0c9.4,0,17,7.6,17,17v131c0,9.4-7.6,17-17,17l0,0c-9.4,0-17-7.6-17-17
							V17C50,7.6,57.6,0,67,0z"/>
						<path id="Rectangle-Copy-13" class="st6" d="M118,39L118,39c9.9,0,18,8.1,18,18v90c0,9.9-8.1,18-18,18l0,0
							c-9.9,0-18-8.1-18-18V57C100,47.1,108.1,39,118,39z"/>
						<path id="Rectangle-Copy-14" class="st7" d="M169,96L169,96c9.4,0,17,7.6,17,17v35c0,9.4-7.6,17-17,17l0,0
							c-9.4,0-17-7.6-17-17v-35C152,103.6,159.6,96,169,96z"/>
					</g>
					<g id="Group-4" transform="translate(0.000000, 314.589047)">
						<path id="Path-Copy-4" class="st8" d="M4,158.3c4.2-3.5,33.5-27.9,87.7-73.2c6.3-5.2,17.5-7.8,30.1-5.7l318.3,53.2
							c13.9,1.4,14.3,12.1,7.9,17.3L359.1,222c-6.3,5.2-18.2,8.4-30.8,6.2L10.7,174.6C-1.9,172.4-2.3,163.6,4,158.3z"/>
						<path id="Path-Copy-3" class="st8" d="M4,119c4.2-3.5,33.5-27.9,87.7-73.2c6.3-5.2,17.5-7.8,30.1-5.7l318.3,53.2
							c13.9,1.4,14.3,12.1,7.9,17.3l-88.9,72.2c-6.3,5.2-18.2,8.4-30.8,6.2L10.7,135.2C-1.9,133.1-2.3,124.2,4,119z"/>
						<path id="Path" class="st9" d="M4,79.7c4.2-3.5,33.5-27.9,87.7-73.2c6.3-5.2,17.5-7.8,30.1-5.7l318.3,53.2
							c13.9,1.4,14.3,12.1,7.9,17.3l-88.9,72.2c-6.3,5.2-18.2,8.4-30.8,6.2L10.7,95.9C-1.9,93.8-2.3,84.9,4,79.7z"/>
					</g>
					
						<g id="Group-5-Copy" transform="translate(261.023557, 211.497661) scale(-1, -1) rotate(-37.000000) translate(-261.023557, -211.497661) translate(77.523557, 140.497661)">
						<polyline id="Path-14" class="st10" points="13.5,114.2 99.5,134.9 138.6,52.8 227.3,8.9 286.3,68.4 357.5,41.7 						"/>
						<circle id="Oval-Copy-65" class="st11" cx="10" cy="112.7" r="10"/>
						<circle id="Oval-Copy-66" class="st11" cx="97.6" cy="131.1" r="10"/>
						<circle id="Oval-Copy-67" class="st11" cx="141" cy="53.6" r="10"/>
						<circle id="Oval-Copy-68" class="st11" cx="226.3" cy="10.2" r="10"/>
						<circle id="Oval-Copy-69" class="st11" cx="286.9" cy="65.9" r="10"/>
						<circle id="Oval-Copy-70" class="st11" cx="357" cy="41.1" r="10"/>
					</g>
					<g id="Group-10" transform="translate(26.869585, 0.000000)">
						<path id="Fill-1" class="st12" d="M106.3,73.3c24.1-5.9,48.5,8.8,54.4,33s-8.8,48.5-33,54.4c-24.1,5.9-48.5-8.8-54.4-33
							C67.4,103.6,82.2,79.2,106.3,73.3"/>
						<path id="Fill-3" class="st12" d="M96.1,33.5c45.9-11.2,92.1,16.8,103.4,62.7c11.2,45.9-16.8,92.1-62.7,103.4
							C91,210.8,44.7,182.7,33.5,136.9C22.2,91,50.3,44.7,96.1,33.5"/>
						<path id="Fill-5" class="st12" d="M223.4,134c2.5-14.2,2.1-29.2-1.5-44.1c-9-36.7-35.9-64.3-69.2-75.9L117,115.6L223.4,134z"
							/>
						<path id="Fill-7" class="st12" d="M3.4,144.2c15.6,63.9,79.8,103,143.4,87.3c29.7-7.3,53.9-25.2,69.8-48.7l-98.1-66.9
							L87.9,0.9C25.8,17.6-12,81.2,3.4,144.2"/>
					</g>
				</g>
			</g>
		</g>
	</g>
</g>
</svg>
