<?xml version="1.0" encoding="UTF-8"?>
<svg width="1440px" height="573px" viewBox="0 0 1440 573" version="1.1" xmlns="http://www.w3.org/2000/svg" xmlns:xlink="http://www.w3.org/1999/xlink">
    <title>img_footer</title>
    <g id="Page-1" stroke="none" stroke-width="1" fill="none" fill-rule="evenodd">
        <g id="Insula-Homepage-v01.01" transform="translate(0.000000, -3844.000000)">
            <g id="img_footer" transform="translate(0.000000, 3844.129441)">
                <g id="img_footer_01" transform="translate(0.000000, 126.870559)">
                    <path d="M609.392354,167.778463 C626.714303,160.902835 638.34197,156.012571 644.275354,153.107673 C653.17543,148.750325 657.99394,147.040584 666.3548,125.674875 C674.715659,104.309165 689.124429,67.5465946 693.356338,58.9418571 C697.588247,50.3371196 702.114908,45.0069155 710.887369,45.0069155 C719.659829,45.0069155 724.371958,55.3364066 730.520537,71.0914443 C736.669116,86.8464821 752.650786,126.563975 756.223898,134.412512 C759.797009,142.261049 764.765452,149.498611 782.080391,156.642239 C799.395329,163.785868 845.732541,182.429161 854.337047,186.683076 C862.941553,190.936991 865.000121,196.413073 865.000121,201.928664 C865.000121,207.444256 864.210469,212.285385 840.428623,221.188863 C816.646776,230.092341 781.098605,244.748612 773.718274,247.92245 C766.337943,251.096288 760.393239,256.318756 753.380522,273.813324 C746.367804,291.307892 729.559762,332.811877 725.401314,341.688298 C721.242866,350.56472 717.797914,356.006915 706.687682,356.006915 C695.577449,356.006915 683.49868,317.42483 674.92674,295.619077 C666.3548,273.813324 661.17589,255.27919 643.605523,247.92245 C626.035156,240.565711 573.82962,219.199369 564.85448,215.227885 C557.414308,211.880895 554.000121,206.112735 554.000121,199.797299 C554.123822,190.468764 564.524611,185.944335 574.271566,181.889735 C580.769535,179.186669 592.476465,174.482912 609.392354,167.778463 Z" id="Path-15" fill="#DA542E" transform="translate(709.500121, 200.506915) rotate(-343.000000) translate(-709.500121, -200.506915) "></path>
                    <g id="Group-2" transform="translate(42.000000, 0.211056)">
                        <path d="M677.5,91.7889441 C1045.0455,91.7889441 1343,149.991927 1343,221.788944 C1343,293.585962 1045.0455,351.788944 677.5,351.788944 C309.954499,351.788944 12,293.585962 12,221.788944 C12,149.991927 309.954499,91.7889441 677.5,91.7889441 Z M677.430413,124.79381 C434.148981,124.79381 236.930413,167.998332 236.930413,221.29381 C236.930413,274.589288 434.148981,317.79381 677.430413,317.79381 C920.711846,317.79381 1117.93041,274.589288 1117.93041,221.29381 C1117.93041,167.998332 920.711846,124.79381 677.430413,124.79381 Z" id="Combined-Shape" fill="#706C74" opacity="0.2" transform="translate(677.500000, 221.788944) rotate(-352.000000) translate(-677.500000, -221.788944) "></path>
                        <path d="M690.482133,48 C699.254594,48 703.966723,58.3201197 710.115302,74.0608638 C711.898389,78.6256796 714.50844,85.2039096 717.403003,92.4351168 L718.005759,93.9400995 C718.814373,95.9579761 719.641791,98.0184042 720.476626,100.092824 L721.103965,101.650816 C721.418152,102.430678 721.732981,103.211503 722.047852,103.991785 L722.677474,105.551181 C728.341366,119.571198 733.889182,133.090119 735.818662,137.324484 L736.05639,137.840621 C736.136384,138.012376 736.217169,138.183841 736.29886,138.355023 L736.546768,138.867721 C740.100627,146.119031 745.501861,152.867477 761.675155,159.534043 C768.947429,162.531645 781.339232,167.555948 793.904822,172.690623 L796.598305,173.791902 C813.052711,180.523726 829.199333,187.210095 833.931812,189.547626 C842.536318,193.797681 844.594885,199.268795 844.594885,204.779382 L844.59376,205.109247 C844.593355,205.164102 844.592827,205.2189 844.592154,205.273644 L844.586187,205.601508 C844.519294,208.315144 843.982277,210.920583 840.241978,214.000405 L538.343662,214.000596 C535.117099,210.832401 533.594885,206.863067 533.594885,202.649951 C533.695958,195.03477 540.658103,190.623942 548.518665,187.055328 L549.224839,186.73794 C549.933097,186.422677 550.647133,186.113603 551.362665,185.809021 L552.078536,185.505873 L552.078536,185.505873 L553.15213,185.055943 C553.39048,184.956519 553.628599,184.857437 553.86633,184.758634 C560.364299,182.05802 572.071229,177.35853 588.987119,170.660164 C606.309068,163.790773 617.936734,158.904946 623.870118,156.002683 C632.770195,151.649288 637.588705,149.941099 645.949564,128.594774 C648.54143,121.977413 651.714501,113.881756 654.985424,105.604163 L655.619598,104.000125 C662.711951,86.0707701 670.115723,67.6822429 672.951102,61.9222992 C677.183011,53.3253683 681.709672,48 690.482133,48 Z" id="Combined-Shape" fill="#DA542E" transform="translate(689.094885, 131.000000) rotate(-343.000000) translate(-689.094885, -131.000000) "></path>
                    </g>
                </g>
                <g id="img_footer_ma" transform="translate(124.366915, 0.000000)" opacity="0.6">
                    <circle id="Oval-Copy-72" fill="#58B2F1" transform="translate(197.260822, 105.194162) rotate(-352.000000) translate(-197.260822, -105.194162) " cx="197.260822" cy="105.194162" r="40"></circle>
                    <circle id="Oval-Copy-74" fill="#58B2F1" transform="translate(1035.260822, 501.194162) rotate(-352.000000) translate(-1035.260822, -501.194162) " cx="1035.26082" cy="501.194162" r="40"></circle>
                    <circle id="Oval-Copy-73" fill="#F92D5E" transform="translate(81.500000, 350.924094) rotate(-352.000000) translate(-81.500000, -350.924094) " cx="81.5" cy="350.924094" r="71.5"></circle>
                    <circle id="Oval-Copy-77" fill="#5DC29A" transform="translate(910.260822, 241.194162) rotate(-352.000000) translate(-910.260822, -241.194162) " cx="910.260822" cy="241.194162" r="50"></circle>
                    <circle id="Oval-Copy-78" fill="#3BC47C" transform="translate(443.484180, 23.000000) rotate(-352.000000) translate(-443.484180, -23.000000) " cx="443.48418" cy="23" r="20"></circle>
                    <circle id="Oval-Copy-82" fill="#FFDD50" transform="translate(342.238923, 231.605338) rotate(-352.000000) translate(-342.238923, -231.605338) " cx="342.238923" cy="231.605338" r="20"></circle>
                    <circle id="Oval-Copy-83" fill="#58B2F1" transform="translate(1102.484180, 122.000000) rotate(-352.000000) translate(-1102.484180, -122.000000) " cx="1102.48418" cy="122" r="20"></circle>
                    <circle id="Oval-Copy-79" fill="#F92D5E" transform="translate(772.484180, 126.000000) rotate(-352.000000) translate(-772.484180, -126.000000) " cx="772.48418" cy="126" r="20"></circle>
                    <circle id="Oval-Copy-84" fill="#F92D5E" transform="translate(1138.484180, 436.000000) rotate(-352.000000) translate(-1138.484180, -436.000000) " cx="1138.48418" cy="436" r="20"></circle>
                </g>
            </g>
        </g>
    </g>
</svg>