<svg xmlns="http://www.w3.org/2000/svg" xmlns:xlink="http://www.w3.org/1999/xlink" width="345" height="360" viewBox="0 0 345 360">
    <defs>
        <rect id="9n97owsbna" width="345" height="360" x="0" y="0" rx="36"/>
    </defs>
    <g fill="none" fill-rule="evenodd">
        <g>
            <g transform="translate(-882 -2305) translate(882 2305)">
                <mask id="ccqmtzayeb" fill="#fff">
                    <use xlink:href="#9n97owsbna"/>
                </mask>
                <path fill="#F5F2ED" d="M286.956 184.073C221.094 149.511 152.855 117.65 80.782 91.07-121.713 16.543-346.29-26-583.9-26h-2373.962c-52.137 0-93.618 37.754-83.65 78.823 99.445 408.483 441.868 746.859 901.525 916.108 202.495 74.526 427.148 117.069 664.682 117.069H998.332c-.077-.614-.383-1.228-.46-1.842-62.335-377.296-330.922-701.062-710.916-900.085z" mask="url(#ccqmtzayeb)" opacity=".3"/>
                <path fill="#F5F2ED" d="M280.339 184.073c65.793-34.562 133.804-66.423 205.717-93.004C688.1 16.543 912.178-26 1149.26-26h4847.865c52.099 0 93.487 37.754 83.465 78.823-99.225 408.483-440.735 746.859-899.524 916.108C4979.1 1043.457 4754.945 1086 4517.94 1086H-186.176c.152-.614-242.898-1.228-242.824-1.842 62.2-377.296 330.19-701.062 709.339-900.085z" mask="url(#ccqmtzayeb)" opacity=".3"/>
            </g>
        </g>
    </g>
</svg>
