<svg xmlns="http://www.w3.org/2000/svg" xmlns:xlink="http://www.w3.org/1999/xlink" width="290" height="531" viewBox="0 0 290 531">
    <defs>
        <path id="w6oevztnxa" d="M87.318 222.168v-22.28h-5.092v22.28h5.092zm11.087 0v-8.69c0-2.259 1.21-3.278 2.96-3.278 1.528 0 2.77.924 2.77 2.897v9.071h4.774v-9.771c0-4.297-2.737-6.589-5.952-6.589-2.1 0-3.692.764-4.552 1.942v-1.496h-4.774v15.914h4.774zm22.164.446c3.438 0 6.62-1.56 6.62-5.22 0-5.889-7.83-4.679-7.83-6.493 0-.573.51-.891 1.338-.891 1.05 0 1.687.572 2.132 1.4l4.074-2.196c-1.337-2.26-3.628-3.406-6.206-3.406-3.31 0-6.239 1.75-6.239 5.22 0 5.507 7.83 4.583 7.83 6.334 0 .637-.573.987-1.719.987-1.4 0-2.291-.669-2.705-1.878l-4.138 2.355c1.241 2.578 3.66 3.788 6.843 3.788zm17.39 0c2.1 0 3.692-.764 4.551-1.942v1.496h4.775v-15.914h-4.775v8.689c0 2.26-1.21 3.278-2.96 3.278-1.528 0-2.769-.923-2.769-2.896v-9.071h-4.774v9.771c0 4.297 2.737 6.589 5.952 6.589zm20.254-.446v-23.235h-4.775v23.235h4.775zm12.965.446c2.132 0 3.692-.732 4.742-1.942v1.496h4.775v-15.914h-4.775v1.496c-1.05-1.21-2.61-1.942-4.742-1.942-4.17 0-7.607 3.66-7.607 8.403s3.437 8.403 7.607 8.403zm.955-4.52c-2.197 0-3.788-1.496-3.788-3.883s1.591-3.883 3.788-3.883c2.196 0 3.787 1.496 3.787 3.883s-1.591 3.883-3.787 3.883z"/>
    </defs>
    <g fill="none" fill-rule="evenodd">
        <g>
            <g transform="translate(-1295 -1944) translate(1295 1944)">
                <path fill="#000" d="M241.159 10.61c22.09 0 40 17.908 40 40v431.036c0 22.092-17.91 40-40 40H48.84c-22.09 0-40-17.908-40-40V50.61c0-22.092 17.91-40 40-40H241.16zm35.579 44.207H13.262v420.854h263.476V54.817z"/>
                <circle cx="180" cy="19" r="9" fill="#413D46"/>
                <path fill="#212121" d="M245.136 0c24.725 0 44.768 20.073 44.768 44.834v440.82c0 24.761-20.043 44.834-44.768 44.834H44.768C20.043 530.488 0 510.415 0 485.654V44.834C0 20.073 20.043 0 44.768 0zM73.016 14.536H44.924c-17.2 0-31.196 14.027-31.196 31.268v440.495c0 17.241 13.995 31.268 31.196 31.268H244.98c17.201 0 31.196-14.027 31.196-31.268V45.804c0-17.241-13.995-31.268-31.196-31.268H216.89c-1.797 0-3.259 1.465-3.259 3.267v2.141c0 7.978-6.475 14.468-14.434 14.468H90.709c-7.959 0-14.434-6.49-14.434-14.468v-2.141c0-1.802-1.462-3.267-3.26-3.267zm107.057 1.151c-2.318 0-4.197 1.882-4.197 4.203 0 2.321 1.879 4.203 4.197 4.203s4.197-1.882 4.197-4.203c0-2.321-1.88-4.203-4.197-4.203zm-20.937 1.635h-28.368c-1.415 0-2.565 1.152-2.565 2.568 0 1.417 1.15 2.569 2.565 2.569h28.368c1.414 0 2.565-1.152 2.565-2.57 0-1.415-1.15-2.567-2.565-2.567z"/>
                <g>
                    <path fill="#413D46" d="M0 0H263.476V420.854H0z" transform="translate(13.262 54.817)"/>
                    <g fill-rule="nonzero" transform="translate(13.262 54.817)">
                        <use fill="#413D46" xlink:href="#w6oevztnxa"/>
                        <use fill="#F6F2EE" xlink:href="#w6oevztnxa"/>
                    </g>
                </g>
            </g>
        </g>
    </g>
</svg>
