<svg xmlns="http://www.w3.org/2000/svg" xmlns:xlink="http://www.w3.org/1999/xlink" width="708" height="360" viewBox="0 0 708 360">
    <defs>
        <rect id="jfdk8tseda" width="708" height="360" x="0" y="0" rx="36"/>
    </defs>
    <g fill="none" fill-rule="evenodd">
        <g>
            <g transform="translate(-37 -2305) translate(37 2305)">
                <mask id="0c4nvg5wcb" fill="#fff">
                    <use xlink:href="#jfdk8tseda"/>
                </mask>
                <path fill="#F5F2ED" d="M584.956 243.073c-65.862-34.562-134.101-66.423-206.174-93.004C176.287 75.543-48.29 33-285.9 33h-2373.962c-52.137 0-93.618 37.754-83.65 78.823 99.445 408.483 441.868 746.859 901.525 916.108 202.495 74.526 427.148 117.069 664.682 117.069h2473.637c-.077-.614-.383-1.228-.46-1.842-62.336-377.296-330.922-701.062-710.916-900.085z" mask="url(#0c4nvg5wcb)" opacity=".3"/>
                <path fill="#F5F2ED" d="M578.339 243.073c65.793-34.562 133.804-66.423 205.717-93.004C986.1 75.543 1210.178 33 1447.26 33h4847.865c52.099 0 93.487 37.754 83.465 78.823-99.225 408.483-440.735 746.859-899.524 916.108C5277.1 1102.457 5052.945 1145 4815.94 1145H111.824c.152-.614-242.898-1.228-242.824-1.842 62.2-377.296 330.19-701.062 709.339-900.085z" mask="url(#0c4nvg5wcb)" opacity=".3"/>
            </g>
        </g>
    </g>
</svg>
