<svg width="120" height="50" viewBox="0 0 120 50" fill="none" xmlns="http://www.w3.org/2000/svg">
<path fill-rule="evenodd" clip-rule="evenodd" d="M51.0505 23.4892C51.0505 23.4892 53.4997 23.2917 54.3599 23.1554C55.22 23.0191 55.669 22.9994 56.9209 21.4322C58.1729 19.865 60.3289 17.169 60.9058 16.5599C61.4827 15.9508 62.0002 15.622 62.7376 15.8454C63.475 16.0689 63.6057 17.0496 63.7176 18.5189C63.8296 19.9882 64.1523 23.7045 64.2509 24.4494C64.3496 25.1943 64.5812 25.9239 65.8531 26.9602C67.1251 27.9964 70.5411 30.7301 71.1551 31.3037C71.7691 31.8773 71.8014 32.386 71.6596 32.8456C71.5179 33.3051 71.3271 33.6884 69.0991 33.8244C66.8712 33.9604 63.5062 34.2761 62.8043 34.3525C62.1023 34.4289 61.4684 34.7126 60.4293 35.9916C59.3901 37.2706 56.9106 40.3005 56.3329 40.9341C55.7552 41.5678 55.3257 41.9335 54.3918 41.6505C53.4578 41.3674 53.434 37.8452 53.2739 35.81C53.1137 33.7748 53.1547 32.0987 51.8668 31.0382C50.5789 29.9776 46.7395 26.8676 46.0871 26.3081C45.5477 25.8397 45.4091 25.2722 45.5714 24.746C45.8214 23.9719 46.812 23.8598 47.7355 23.7703C48.6591 23.6807 51.0505 23.4892 51.0505 23.4892Z" fill="#DA542E"/>
<path opacity="0.2" fill-rule="evenodd" clip-rule="evenodd" d="M57.9292 41.8566C89.9228 46.353 116.564 44.9765 117.435 38.7821C118.306 32.5877 93.0754 23.9211 61.0818 19.4247C29.0883 14.9283 2.44661 16.3048 1.57604 22.4992C0.705477 28.6936 25.9357 37.3602 57.9292 41.8566ZM58.335 38.9218C79.5118 41.898 97.2028 40.5832 97.8491 35.985C98.4953 31.3868 81.852 25.2466 60.6752 22.2704C39.4984 19.2942 21.8073 20.6091 21.1611 25.2072C20.5148 29.8054 37.1582 35.9456 58.335 38.9218Z" fill="#706C74"/>
<path fill-rule="evenodd" clip-rule="evenodd" d="M54.4038 23.1369C53.5447 23.2709 51.0981 23.4616 51.0981 23.4616C51.0981 23.4616 48.7092 23.6467 47.7867 23.7337C46.8642 23.8207 45.8747 23.93 45.627 24.7034C45.5197 25.0545 45.5465 25.4244 45.7371 25.7713L71.1146 33.53C71.5472 33.3534 71.6388 33.1249 71.7157 32.8735C71.856 32.4144 71.8224 31.9056 71.2073 31.3304C70.7467 30.8996 68.7122 29.2529 67.1847 28.0165C66.6727 27.6021 66.2176 27.2337 65.8979 26.9727C64.6242 25.9331 64.3907 25.2029 64.2901 24.4578C64.1895 23.7126 63.8568 19.9957 63.7409 18.5262C63.625 17.0567 63.4918 16.0758 62.7544 15.8503C62.017 15.6249 61.5008 15.9522 60.9261 16.5598C60.3513 17.1673 58.2045 19.8572 56.958 21.4208C55.7557 22.9289 55.2957 22.9997 54.4938 23.123C54.4643 23.1275 54.4343 23.1322 54.4038 23.1369Z" fill="#DA542E"/>
<ellipse opacity="0.6" cx="24.1784" cy="9.20509" rx="3.5141" ry="3.51389" transform="rotate(8 24.1784 9.20509)" fill="#58B2F1"/>
<ellipse opacity="0.6" cx="97.7995" cy="43.9922" rx="3.5141" ry="3.51389" transform="rotate(8 97.7995 43.9922)" fill="#58B2F1"/>
<ellipse opacity="0.6" cx="14.0063" cy="30.7934" rx="6.28145" ry="6.28108" transform="rotate(8 14.0063 30.7934)" fill="#F92D5E"/>
<ellipse opacity="0.6" cx="86.8187" cy="21.1504" rx="4.39262" ry="4.39237" transform="rotate(8 86.8187 21.1504)" fill="#5DC29A"/>
<ellipse opacity="0.6" cx="45.8099" cy="1.98438" rx="1.75705" ry="1.75695" transform="rotate(8 45.8099 1.98438)" fill="#3BC47C"/>
<ellipse opacity="0.6" cx="36.9134" cy="20.3106" rx="1.75705" ry="1.75695" transform="rotate(8 36.9134 20.3106)" fill="#FFDD50"/>
<ellipse opacity="0.6" cx="103.704" cy="10.6816" rx="1.75705" ry="1.75695" transform="rotate(8 103.704 10.6816)" fill="#58B2F1"/>
<ellipse opacity="0.6" cx="74.7122" cy="11.0332" rx="1.75705" ry="1.75695" transform="rotate(8 74.7122 11.0332)" fill="#F92D5E"/>
<ellipse opacity="0.6" cx="106.867" cy="38.2656" rx="1.75705" ry="1.75695" transform="rotate(8 106.867 38.2656)" fill="#F92D5E"/>
</svg>
