<svg width="342" height="193" viewBox="0 0 342 193" fill="none" xmlns="http://www.w3.org/2000/svg">
<path opacity="0.2" d="M216.236 188.191L59.8039 188.191C40.2413 188.191 24.3827 172.332 24.3827 152.77V152.77" stroke="#F5F2ED" stroke-width="8" stroke-linecap="round"/>
<path d="M89.424 130.912H78.456V129.832H89.424V130.912ZM89.424 133.192H78.456V132.088H89.424V133.192ZM91.68 128.608H76.296V134.416H91.68V128.608ZM94.752 135.328H73.32V136.96H94.752V135.328ZM77.976 142.6V141.472H82.896V142.6H77.976ZM77.976 139.144H82.896V140.248H77.976V139.144ZM90.144 140.248H85.056V139.144H90.144V140.248ZM90.144 142.6H85.056V141.472H90.144V142.6ZM85.056 147.616V146.464H92.808V144.952H85.056V143.872H92.328V137.872H75.864V143.872H82.896V144.952H75.264V146.464H82.896V147.616H73.224V149.32H94.848V147.616H85.056ZM105.224 127.984C103.736 131.536 101.264 135.016 98.72 137.2C99.128 137.728 99.752 138.928 99.944 139.456C100.928 138.544 101.888 137.464 102.8 136.264V149.872H104.912V133.192C105.8 131.728 106.616 130.192 107.264 128.656L105.224 127.984ZM113.12 147.184C111.92 147.184 111.68 146.92 111.68 145.576V136.744H120.128V134.608H111.68V128.272H109.544V145.528C109.544 148.408 110.288 149.2 112.928 149.2H117.224C119.936 149.2 120.488 147.616 120.8 143.128C120.224 142.984 119.312 142.552 118.784 142.144C118.592 146.176 118.376 147.184 117.08 147.184H113.12ZM128.248 133.336H132.952V134.752H128.248V133.336ZM132.952 130.408V131.896H128.248V130.408H132.952ZM133.576 140.368C133.696 140.632 133.84 140.944 133.984 141.256L131.992 141.424C133.168 140.536 134.32 139.48 135.376 138.352L134.2 137.536C133.888 137.944 133.552 138.328 133.216 138.712L131.656 138.784C132.28 138.208 132.88 137.488 133.432 136.768L132.544 136.312H135.04V128.824H126.136V149.92H128.248V136.312H131.968C131.416 137.224 130.6 138.088 130.36 138.304C130.096 138.544 129.832 138.688 129.592 138.736C129.784 139.096 129.976 139.816 130.048 140.128C130.288 140.032 130.672 139.96 132.064 139.84C131.488 140.392 131.032 140.776 130.792 140.944C130.312 141.304 129.88 141.544 129.52 141.568C129.688 141.952 129.88 142.648 129.952 142.936C130.288 142.792 130.888 142.672 134.416 142.312C134.488 142.552 134.584 142.768 134.656 142.984H133.672V145.144C133.672 145.264 133.672 145.384 133.672 145.504H131.776V143.368H130.336V146.824H133.312C132.952 147.472 132.232 148.072 130.816 148.504C131.128 148.768 131.632 149.392 131.824 149.776C134.824 148.72 135.256 147.016 135.256 145.192V142.984H134.944L135.88 142.624C135.64 142 135.136 140.872 134.704 140.032L133.576 140.368ZM141.64 147.52V143.368H140.128V145.504H138.208V142.984H136.6V149.56H138.208V146.824H140.128V147.52H141.64ZM139.024 134.752V133.336H143.872V134.752H139.024ZM143.872 130.408V131.896H139.024V130.408H143.872ZM146.008 128.824H136.912V136.312H138.4C137.872 137.248 137.032 138.136 136.792 138.328C136.528 138.568 136.288 138.712 136.024 138.76C136.192 139.144 136.384 139.84 136.48 140.152C136.696 140.032 137.08 139.96 138.496 139.84C137.944 140.392 137.464 140.776 137.248 140.944C136.744 141.352 136.336 141.568 135.976 141.64C136.144 141.976 136.336 142.696 136.384 142.984C136.744 142.816 137.344 142.696 140.872 142.312C140.992 142.624 141.112 142.888 141.184 143.104L142.336 142.648C142.096 141.976 141.568 140.848 141.088 140.032L139.984 140.416C140.128 140.656 140.272 140.968 140.416 141.28L138.448 141.448C139.6 140.56 140.776 139.456 141.832 138.328L140.656 137.512C140.344 137.944 139.984 138.328 139.624 138.712L138.112 138.784C138.688 138.208 139.312 137.512 139.84 136.792L138.928 136.312H143.872V147.208C143.872 147.544 143.776 147.64 143.44 147.664C143.152 147.664 142.144 147.664 141.184 147.64C141.472 148.216 141.76 149.224 141.832 149.824C143.368 149.824 144.4 149.776 145.12 149.392C145.816 149.032 146.008 148.384 146.008 147.232V128.824ZM170.112 131.416V132.928H168.456V131.416H170.112ZM170.112 136.168H168.456V134.608H170.112V136.168ZM166.704 132.928H163.248V134.608H166.704V136.168H163.944V137.824H166.704V139.288H163.872V141.04H166.704V142.624H163.368V144.376H166.704V146.944H168.456V144.376H172.488V142.624H168.456V141.04H172.008V139.288H168.456V137.824H171.72V134.608H172.968V132.928H171.72V129.76H168.456V127.864H166.704V129.76H163.944V131.416H166.704V132.928ZM158.424 145.456L156 146.032V139.936H158.352V138.04H156V135.76H157.728V133.888H153.288C153.912 133.024 154.56 132.064 155.136 131.032C156.336 132.04 157.56 133.24 158.328 134.176L159.12 132.304C158.376 131.44 157.176 130.36 155.952 129.424C156.096 129.112 156.24 128.776 156.36 128.488L154.944 127.72C154.008 129.976 152.448 132.112 150.936 133.48C151.176 134.032 151.56 135.28 151.656 135.736C151.92 135.472 152.208 135.208 152.472 134.896V135.76H154.44V138.04H151.392V139.936H154.44V146.392C153.192 146.68 152.04 146.944 151.176 147.136L151.536 149.128C153.48 148.624 156.072 147.928 158.544 147.232L158.424 145.456ZM151.968 141.4C152.28 142.768 152.592 144.568 152.664 145.744L153.96 145.264C153.84 144.136 153.528 142.36 153.192 141.04L151.968 141.4ZM157.464 145.456C157.8 144.4 158.208 142.72 158.568 141.28L157.176 140.8C157.008 142.048 156.648 143.848 156.36 145L157.464 145.456ZM162.432 136.408L162.144 136.456H161.04C161.832 134.368 162.72 131.704 163.44 129.52H158.952V131.44H161.04C160.272 133.816 159.336 136.408 158.592 138.208H161.712C161.544 139.912 161.304 141.424 160.992 142.744C160.68 142.048 160.392 141.208 160.176 140.296L158.736 140.872C159.144 142.48 159.672 143.824 160.272 144.904C159.624 146.512 158.76 147.688 157.656 148.432C158.016 148.816 158.448 149.464 158.688 149.944C159.816 149.08 160.704 148.024 161.4 146.584C163.416 148.936 166.104 149.512 169.176 149.512H172.488C172.584 149.008 172.848 148.144 173.112 147.688C172.272 147.712 169.92 147.712 169.296 147.712C166.512 147.712 163.968 147.16 162.144 144.784C162.864 142.648 163.272 139.936 163.464 136.528L162.432 136.408ZM184.808 138.208L182.336 138.856V134.632H184.856V132.544H182.336V127.864H180.152V132.568H177.2V134.632H180.152V139.456C178.952 139.744 177.848 140.008 176.936 140.224L177.512 142.36C178.352 142.144 179.216 141.904 180.152 141.64V147.328C180.152 147.664 180.032 147.784 179.672 147.784C179.384 147.808 178.376 147.808 177.32 147.784C177.608 148.336 177.896 149.272 177.992 149.8C179.624 149.824 180.704 149.752 181.4 149.416C182.096 149.08 182.336 148.48 182.336 147.328V141.016C183.248 140.752 184.16 140.488 185.072 140.224L184.808 138.208ZM195.176 138.832C194.36 140.752 193.16 142.408 191.672 143.776C190.28 142.36 189.224 140.704 188.456 138.832H195.176ZM196.568 136.72L196.184 136.792H192.776V133.504H198.32V131.464H192.776V127.864H190.568V131.464H185.192V133.504H190.568V136.792H185.624V138.832H186.584L186.272 138.928C187.184 141.328 188.408 143.392 189.992 145.144C188.144 146.392 186.056 147.304 183.824 147.856C184.232 148.336 184.784 149.296 185.024 149.872C187.424 149.176 189.656 148.12 191.576 146.68C193.328 148.144 195.368 149.224 197.792 149.92C198.104 149.344 198.728 148.456 199.232 148.024C196.952 147.424 194.984 146.488 193.328 145.24C195.44 143.224 197.048 140.608 198.008 137.296L196.568 136.72ZM222.4 138.232C223.264 138.232 224.176 138.208 224.632 138.064C224.536 137.584 224.464 136.744 224.416 136.168C223.912 136.264 222.952 136.312 222.352 136.312H218.32C217.552 136.312 217.384 136 217.384 135.136V132.928H223.576V131.008H217.384V127.912H215.176V135.088C215.176 137.392 215.824 138.232 218.272 138.232H222.4ZM206.632 138.232H211.096V141.616C210.28 140.968 208.864 139.984 207.784 139.312L206.632 140.368C207.76 141.136 209.272 142.24 210.04 142.936L211.096 141.88V142.768C209.368 143.632 207.688 144.496 206.44 145.048C206.584 143.992 206.632 142.96 206.632 142.024V138.232ZM213.208 136.36H204.568V142C204.568 144.04 204.448 146.608 203.104 148.432C203.536 148.72 204.376 149.536 204.664 149.968C205.624 148.72 206.104 147.088 206.368 145.48L206.992 147.064C208.24 146.296 209.656 145.408 211.096 144.472V147.664C211.096 147.952 211 148.048 210.688 148.048C210.376 148.072 209.392 148.072 208.384 148.024C208.672 148.504 208.984 149.296 209.08 149.8C210.568 149.8 211.624 149.776 212.32 149.488C212.992 149.176 213.208 148.672 213.208 147.664V136.36ZM209.944 130.288C210.352 130.936 210.784 131.704 211.216 132.448L206.92 132.76C208.024 131.536 209.176 130.048 210.112 128.56L207.832 127.888C206.872 129.784 205.336 131.68 204.88 132.184C204.4 132.688 203.992 133.048 203.608 133.144C203.848 133.696 204.184 134.728 204.304 135.184C204.928 134.944 205.84 134.8 212.128 134.224C212.44 134.8 212.68 135.352 212.824 135.784L214.744 134.968C214.168 133.552 212.848 131.296 211.744 129.616L209.944 130.288ZM218.632 147.76C217.576 147.76 217.384 147.616 217.384 146.8V143.632H223.792V141.64H217.384V139H215.176V146.824C215.176 149.056 215.824 149.704 218.344 149.704H222.232C224.32 149.704 224.92 148.864 225.184 145.72C224.56 145.624 223.672 145.264 223.216 144.904C223.12 147.328 222.928 147.76 222.04 147.76H218.632Z" fill="white"/>
<path d="M91.176 88.848H83.88V87.264H91.176V88.848ZM91.176 91.944H83.88V90.36H91.176V91.944ZM93.312 85.632H81.84V93.6H93.312V85.632ZM80.448 97.176L80.136 95.16L77.832 95.832V91.608H80.376V89.544H77.832V84.912H75.792V89.544H73.008V91.608H75.792V96.432C74.664 96.744 73.608 97.032 72.768 97.248L73.272 99.408L75.792 98.64V104.208C75.792 104.544 75.672 104.64 75.384 104.64C75.12 104.64 74.232 104.64 73.272 104.616C73.56 105.192 73.824 106.152 73.872 106.68C75.384 106.68 76.344 106.608 76.992 106.248C77.616 105.912 77.832 105.312 77.832 104.208V97.992L80.448 97.176ZM88.56 101.16H93.36V99.384H88.56V96.888H94.56V95.064H80.712V96.888H86.472V103.896C85.32 103.344 84.408 102.312 83.784 100.584C83.976 99.792 84.12 98.952 84.24 98.064L82.224 97.824C81.84 101.208 80.808 103.896 78.72 105.552C79.224 105.84 80.064 106.536 80.4 106.896C81.576 105.84 82.464 104.472 83.112 102.792C84.672 105.96 87.168 106.56 90.504 106.56H94.632C94.704 106.008 94.992 105.072 95.256 104.592C94.368 104.616 91.248 104.616 90.552 104.616C89.856 104.616 89.208 104.592 88.56 104.496V101.16ZM120.8 94.368H115.784V85.296H113.504V94.368H106.76V88.848C108.44 88.272 110 87.648 111.344 86.952L109.712 85.128C107.288 86.568 103.184 87.912 99.44 88.776C99.752 89.256 100.112 90.072 100.232 90.6C101.624 90.288 103.088 89.928 104.528 89.52V94.368H99.248V96.504H104.48C104.264 99.72 103.208 102.912 99.032 105.216C99.536 105.6 100.304 106.416 100.616 106.92C105.392 104.232 106.52 100.392 106.712 96.504H113.504V106.872H115.784V96.504H120.8V94.368ZM146.344 90.48C146.032 89.4 145.288 87.648 144.544 86.328L142.936 86.88C143.632 88.224 144.352 90.024 144.616 91.152L146.344 90.48ZM140.032 87.312H137.608C137.368 86.592 137.032 85.68 136.72 84.984L134.848 85.32C135.088 85.92 135.376 86.664 135.592 87.312H132.904V89.064H140.032V87.312ZM130.024 90.84H127.888V87.84H130.024V90.84ZM127.888 97.56H130.024V100.536C129.304 100.704 128.56 100.848 127.888 100.968V97.56ZM130.024 95.712H127.888V92.688H130.024V95.712ZM132.76 87.84V85.848H125.08V87.84H126.208V101.304C125.704 101.4 125.272 101.448 124.84 101.52L125.272 103.44C126.688 103.128 128.344 102.744 130.024 102.384V106.92H131.752V87.84H132.76ZM135.064 101.928V100.008H137.944V101.928H135.064ZM137.944 96.6V98.448H135.064V96.6H137.944ZM145.048 94.92C144.592 96.432 143.992 97.848 143.272 99.144C143.08 97.632 142.912 95.832 142.792 93.888H146.92V91.992H142.696C142.6 89.784 142.528 87.36 142.528 84.864H140.608C140.656 87.384 140.704 89.784 140.824 91.992H138.712C138.952 91.272 139.192 90.336 139.456 89.496L137.704 89.184C137.584 90 137.32 91.128 137.08 91.992H135.544C135.448 91.2 135.184 90.072 134.92 89.208L133.36 89.472C133.576 90.24 133.792 91.224 133.888 91.992H132.472V93.888H140.92C141.088 96.816 141.352 99.384 141.736 101.448C141.088 102.264 140.368 103.056 139.648 103.728V95.016H133.336V105.192H135.064V103.488H137.944V104.088H139.24C138.64 104.616 138.016 105.072 137.368 105.48C137.824 105.816 138.4 106.344 138.664 106.728C139.912 105.888 141.136 104.832 142.24 103.608C142.864 105.648 143.68 106.824 144.856 106.848C145.672 106.848 146.584 105.96 147.088 102.36C146.752 102.168 146.008 101.616 145.672 101.184C145.552 103.2 145.288 104.4 144.928 104.4C144.448 104.376 144.04 103.44 143.68 101.808C144.952 100.056 146.008 98.016 146.752 95.784L145.048 94.92ZM166.824 98.184C166.944 97.44 167.04 96.696 167.112 95.904H164.904C164.832 96.696 164.736 97.44 164.616 98.184H160.776V100.056H164.136C163.392 102.24 161.928 104.04 158.808 105.168C159.264 105.552 159.864 106.368 160.128 106.896C163.92 105.408 165.6 103.008 166.416 100.056H169.896C169.584 102.864 169.248 104.088 168.84 104.448C168.624 104.664 168.432 104.712 168.072 104.712C167.664 104.712 166.776 104.688 165.84 104.592C166.152 105.168 166.392 106.032 166.44 106.656C167.52 106.704 168.504 106.704 169.104 106.656C169.752 106.56 170.232 106.416 170.712 105.936C171.384 105.216 171.816 103.368 172.224 99.072C172.272 98.76 172.296 98.184 172.296 98.184H166.824ZM168.624 89.184C168.12 90.192 167.448 91.08 166.608 91.824C165.624 91.032 164.808 90.168 164.184 89.184H168.624ZM172.728 89.184V87.312H165.168C165.528 86.688 165.864 86.064 166.152 85.416L164.064 84.84C163.104 87.096 161.4 89.256 159.504 90.624C160.056 90.912 160.92 91.536 161.352 91.896C161.832 91.488 162.312 91.032 162.792 90.504C163.392 91.416 164.112 92.256 164.928 93.024C163.848 93.648 162.624 94.152 161.256 94.536C161.328 94.2 161.4 93.888 161.472 93.576L160.128 93.096L159.792 93.216H158.304L159.336 92.088C158.832 91.704 158.184 91.248 157.416 90.816C158.832 89.712 160.272 88.224 161.16 86.808L159.72 85.92L159.36 85.992H151.464V87.888H157.776C157.176 88.608 156.456 89.328 155.712 89.904C154.992 89.544 154.224 89.208 153.552 88.944L152.16 90.384C153.888 91.128 155.976 92.256 157.296 93.216H151.176V95.16H154.512C153.648 97.368 152.28 99.648 150.84 100.92C151.224 101.496 151.752 102.408 151.968 103.056C153.192 101.856 154.32 99.912 155.208 97.848V104.352C155.208 104.64 155.112 104.688 154.824 104.712C154.536 104.736 153.576 104.736 152.616 104.688C152.904 105.288 153.192 106.2 153.264 106.8C154.752 106.8 155.736 106.752 156.432 106.44C157.152 106.056 157.32 105.456 157.32 104.376V95.16H159.168C158.856 96.48 158.496 97.824 158.112 98.76L159.648 99.528C160.104 98.496 160.56 97.08 160.968 95.664C161.232 96.024 161.472 96.384 161.592 96.648C163.464 96.072 165.192 95.352 166.656 94.392C168.192 95.424 169.944 96.192 171.864 96.696C172.152 96.12 172.8 95.256 173.256 94.824C171.48 94.44 169.824 93.84 168.408 93.024C169.512 91.968 170.424 90.696 171.072 89.184H172.728ZM188.912 90.576L189.296 90.48C189.2 89.928 188.84 89.112 188.48 88.464H193.496C193.232 89.136 192.872 89.976 192.536 90.576H188.912ZM192.68 99.648H189.44V98.064H192.68V99.648ZM186.464 88.632C186.824 89.208 187.088 89.976 187.256 90.576H184.208V102.864H186.224V92.328H190.184V93.792H186.968V95.232H190.184V96.744H187.856V101.808H189.44V100.992H194.288V96.744H191.84V95.232H195.104V93.792H191.84V92.328H195.968V100.8C195.968 101.064 195.872 101.16 195.584 101.184C195.296 101.184 194.408 101.184 193.472 101.136C193.712 101.64 194 102.456 194.096 103.008C195.488 103.008 196.472 102.984 197.168 102.648C197.84 102.336 198.008 101.808 198.008 100.824V90.576H194.648C194.984 89.976 195.344 89.256 195.704 88.536L195.416 88.464H198.728V86.712H192.176C191.816 86.04 191.312 85.248 190.808 84.648L189.056 85.344C189.368 85.752 189.68 86.232 189.92 86.712H183.44V88.464H187.136L186.464 88.632ZM181.976 88.752C181.592 87.744 180.872 86.136 180.32 84.912L178.4 85.536C178.904 86.808 179.624 88.488 179.984 89.544L181.976 88.752ZM182.264 95.808L181.904 95.88H180.584C181.232 94.224 181.952 92.256 182.504 90.552H177.152V92.568H179.72C179.072 94.464 178.328 96.384 177.704 97.8H180.824C180.488 99.36 180.008 101.04 179.408 102.312C178.592 102.768 177.656 103.752 176.744 104.952L178.256 107.016C178.928 105.552 179.744 104.016 180.272 104.016C180.8 104.016 181.664 104.832 182.624 105.384C184.376 106.392 186.44 106.656 189.608 106.656C192.392 106.656 196.784 106.512 198.632 106.392C198.68 105.792 199.04 104.688 199.304 104.088C196.64 104.424 192.608 104.64 189.704 104.64C186.872 104.64 184.688 104.496 183.008 103.488C182.288 103.032 181.784 102.672 181.352 102.408C182.168 100.608 182.816 98.304 183.224 96.144L182.264 95.808ZM206.2 101.424H211.48V99.672H206.2V101.424ZM209.536 90.504H208.144V87.72H209.536V90.504ZM212.344 96.12C212.296 96.144 212.2 96.168 212.008 96.168H211.264C211 96.168 210.952 96.12 210.952 95.784V92.376H212.344V96.12ZM205.336 103.44V97.752C205.648 97.92 206.104 98.352 206.32 98.592C207.856 97.368 208.216 95.592 208.216 94.152V92.376H209.632V95.808C209.632 97.224 209.968 97.56 211.096 97.56H212.248H212.344V103.44H205.336ZM206.872 92.376V94.128C206.872 95.232 206.656 96.6 205.336 97.68V92.376H206.872ZM203.2 87.72H206.392V90.504H203.584V106.848H205.336V105.192H212.344V106.512H214.168V90.504H211.312V87.72H214.504V85.848H203.2V87.72ZM218.776 104.568C217.792 104.568 217.624 104.4 217.624 103.488V95.736H224.248V85.968H215.344V88.104H222.088V93.6H215.416V103.512C215.416 105.984 216.136 106.632 218.464 106.632H222.064C224.296 106.632 224.872 105.504 225.136 101.568C224.536 101.424 223.624 101.04 223.12 100.656C223 103.968 222.832 104.568 221.872 104.568H218.776Z" fill="white"/>
<path d="M76.08 44.968H91.848V47.728H94.104V42.952H85.68C85.32 42.208 84.792 41.32 84.384 40.648L82.176 41.176C82.464 41.728 82.8 42.352 83.112 42.952H73.896V47.728H76.08V44.968ZM79.392 55.528C81.024 54.976 82.56 54.328 84 53.56C85.536 54.352 87.168 55 88.968 55.528H79.392ZM79.632 60.256V57.376H88.44V60.256H79.632ZM80.928 48.592H87.36C86.472 49.552 85.344 50.392 84.048 51.184C82.752 50.44 81.648 49.624 80.784 48.712L80.928 48.592ZM89.232 46.768L88.872 46.864H82.536C82.872 46.456 83.208 46.072 83.496 45.64L81.12 45.184C79.92 46.984 77.64 48.976 74.352 50.32C74.832 50.68 75.528 51.472 75.816 51.976C77.088 51.376 78.216 50.704 79.2 49.984C80.016 50.824 80.928 51.592 81.912 52.288C79.176 53.584 75.984 54.472 72.912 54.976C73.296 55.48 73.776 56.368 73.968 56.944C75.12 56.728 76.296 56.464 77.448 56.128V62.872H79.632V62.104H88.44V62.824H90.744V55.984C91.704 56.224 92.688 56.416 93.696 56.56C94.008 55.936 94.656 54.952 95.136 54.424C91.872 54.04 88.824 53.32 86.208 52.24C88.056 50.968 89.64 49.456 90.768 47.704L89.232 46.768ZM119.48 41.08H117.464V50.752C117.464 51.064 117.368 51.16 117.008 51.16C116.672 51.184 115.52 51.184 114.32 51.136C114.584 51.64 114.896 52.408 114.992 52.936C116.672 52.936 117.8 52.912 118.52 52.6C119.264 52.336 119.48 51.832 119.48 50.776V41.08ZM114.92 42.064H112.904V49.912H114.92V42.064ZM101.096 45.232C101.336 44.872 101.624 44.464 101.888 44.008H104.504V45.232H101.096ZM118.016 55.576C117.008 56.296 115.448 57.28 114.08 57.952C113.264 57.28 112.592 56.464 112.04 55.576H120.632V53.8H111.704C111.44 53.152 111.056 52.432 110.696 51.832L110.288 51.952C110.648 51.688 110.744 51.352 110.744 50.68V47.848H106.424V46.792H111.248V45.232H106.424V44.008H110.504V42.496H106.424V40.864H104.504V42.496H102.656C102.8 42.112 102.944 41.728 103.088 41.344L101.384 40.912C100.976 42.208 100.304 43.528 99.488 44.488C99.848 44.632 100.496 44.968 100.88 45.232H99.296V46.792H104.504V47.848H100.4V52.432H102.152V49.288H104.504V53.032H106.424V49.288H108.92V50.704C108.92 50.896 108.872 50.944 108.656 50.968C108.464 50.968 107.888 50.968 107.192 50.944C107.408 51.328 107.672 51.856 107.768 52.312C108.272 52.312 108.68 52.312 109.064 52.288L108.608 52.408C108.848 52.84 109.088 53.32 109.28 53.8H99.392V55.576H107.192C104.984 56.8 101.864 57.76 98.984 58.216C99.392 58.6 99.92 59.368 100.184 59.824C101.48 59.584 102.824 59.224 104.12 58.744V59.416C104.12 60.568 103.496 61.096 103.088 61.36C103.328 61.672 103.664 62.344 103.808 62.824V62.992C104.288 62.68 105.056 62.464 111.08 61.048C111.056 60.664 111.104 59.896 111.176 59.392L106.16 60.448V57.952C107.624 57.304 108.944 56.536 110.024 55.72C111.824 59.416 114.968 61.672 119.768 62.608C120.056 62.056 120.56 61.24 121.016 60.832C118.904 60.496 117.08 59.872 115.568 59.008C116.912 58.408 118.4 57.568 119.624 56.728L118.016 55.576ZM143.584 40.744C139.408 41.632 132.16 42.232 125.992 42.472C126.208 42.952 126.448 43.816 126.472 44.368C132.712 44.152 140.104 43.576 145.144 42.568L143.584 40.744ZM127.84 49.672H144.088V52.672H146.272V47.704H142.504C143.176 46.744 143.872 45.544 144.496 44.464L142.168 43.84C141.712 45.016 140.944 46.576 140.248 47.704H135.472L137.488 47.2C137.344 46.312 136.816 44.944 136.288 43.888L134.296 44.32C134.8 45.4 135.256 46.816 135.376 47.704H130.192L131.488 47.296C131.224 46.48 130.6 45.208 129.952 44.296L128.008 44.848C128.536 45.712 129.088 46.864 129.376 47.704H125.752V52.672H127.84V49.672ZM140.032 54.04C139.024 55.48 137.68 56.632 136.048 57.568C134.32 56.608 132.904 55.432 131.848 54.04H140.032ZM141.88 51.904L141.472 51.976H128.872V54.04H129.904L129.472 54.232C130.624 55.96 132.088 57.448 133.84 58.648C131.32 59.704 128.392 60.376 125.224 60.76C125.704 61.24 126.304 62.2 126.52 62.776C129.928 62.224 133.192 61.36 136 59.968C138.664 61.336 141.808 62.248 145.36 62.752C145.672 62.104 146.248 61.144 146.728 60.64C143.56 60.304 140.728 59.632 138.28 58.648C140.44 57.16 142.24 55.264 143.392 52.816L141.88 51.904ZM159.384 48.184H162.576V50.752H159.384V48.184ZM159.384 52.552H162.576V55.12H159.384V52.552ZM159.384 43.816H162.576V46.336H159.384V43.816ZM157.488 41.872V57.088H164.544V41.872H157.488ZM161.616 58.264C162.552 59.44 163.68 61.072 164.16 62.08L165.96 60.976C165.408 60.016 164.232 58.432 163.32 57.328L161.616 58.264ZM158.328 57.448C157.68 59.056 156.504 60.688 155.304 61.768C155.784 62.056 156.648 62.608 157.056 62.968C158.28 61.768 159.576 59.848 160.368 58L158.328 57.448ZM170.112 40.864V60.256C170.112 60.64 169.968 60.76 169.608 60.76C169.224 60.784 168 60.784 166.656 60.736C166.944 61.36 167.256 62.296 167.304 62.872C169.224 62.872 170.424 62.8 171.144 62.464C171.888 62.104 172.152 61.48 172.152 60.232V40.864H170.112ZM166.08 43.312V56.968H168.024V43.312H166.08ZM151.92 42.688C153.216 43.36 154.872 44.44 155.616 45.208L156.96 43.432C156.144 42.64 154.488 41.68 153.168 41.104L151.92 42.688ZM150.912 49.072C152.28 49.672 153.96 50.68 154.752 51.4L156.048 49.6C155.232 48.856 153.528 47.968 152.16 47.44L150.912 49.072ZM151.368 61.432L153.384 62.584C154.392 60.352 155.52 57.52 156.408 55L154.584 53.824C153.624 56.56 152.328 59.584 151.368 61.432ZM186.584 54.856C186.32 53.584 185.672 51.496 185.024 49.888L183.344 50.392C183.584 51.016 183.824 51.736 184.016 52.432L180.464 52.888C182.408 50.776 184.328 48.16 185.888 45.544L183.992 44.392C183.464 45.448 182.84 46.504 182.192 47.464L179.864 47.656C181.184 45.928 182.504 43.72 183.536 41.584L181.544 40.744C180.536 43.336 178.832 46.048 178.328 46.72C177.8 47.44 177.392 47.92 176.936 48.016C177.176 48.568 177.488 49.552 177.608 49.96C177.968 49.792 178.496 49.672 180.848 49.408C180.032 50.536 179.336 51.424 178.952 51.808C178.184 52.648 177.608 53.224 177.08 53.368C177.32 53.92 177.656 54.976 177.776 55.408C178.28 55.12 179.12 54.928 184.496 54.136C184.64 54.64 184.736 55.096 184.808 55.48L186.584 54.856ZM178.04 56.296C177.848 58.24 177.512 60.352 176.984 61.792C177.44 61.936 178.352 62.224 178.76 62.44C179.288 60.952 179.696 58.696 179.888 56.632L178.04 56.296ZM180.92 56.56C181.208 58.192 181.472 60.352 181.52 61.744L183.344 61.36C183.248 59.944 182.96 57.856 182.672 56.224L180.92 56.56ZM183.632 56.08C184.04 57.352 184.544 59.032 184.736 60.112L186.464 59.512C186.248 58.432 185.744 56.824 185.264 55.576L183.632 56.08ZM189.632 56.2H195.296V60.424H189.632V56.2ZM195.296 44.104V48.112H189.632V44.104H195.296ZM195.296 54.208H189.632V50.104H195.296V54.208ZM197.432 60.424V42.064H187.592V60.424H185.6V62.44H198.992V60.424H197.432ZM219.328 55.144V59.584H208.936V55.144H219.328ZM206.68 62.848H208.936V61.648H219.328V62.752H221.68V53.152H206.68V62.848ZM209.392 48.592C211.12 47.392 212.752 46 214.144 44.464C215.848 46.144 217.504 47.464 219.256 48.592H209.392ZM214.312 40.792C211.864 44.488 207.424 47.536 202.96 49.288C203.584 49.84 204.208 50.68 204.592 51.28C205.768 50.776 206.92 50.128 208.048 49.456V50.656H220V49.072C221.2 49.792 222.424 50.416 223.696 51.04C224.008 50.32 224.656 49.504 225.256 49C221.704 47.584 218.44 45.76 215.512 42.88C215.8 42.52 216.04 42.16 216.28 41.8L214.312 40.792Z" fill="white"/>
</svg>
