<svg width="313" height="200" viewBox="0 0 313 200" fill="none" xmlns="http://www.w3.org/2000/svg">
<path opacity="0.2" d="M268 197L68 197C48.1178 197 32 180.882 32 161V147" stroke="#413D46" stroke-width="6" stroke-linecap="round"/>
<path d="M110.568 139.184H102.342V138.374H110.568V139.184ZM110.568 140.894H102.342V140.066H110.568V140.894ZM112.26 137.456H100.722V141.812H112.26V137.456ZM114.564 142.496H98.49V143.72H114.564V142.496ZM101.982 147.95V147.104H105.672V147.95H101.982ZM101.982 145.358H105.672V146.186H101.982V145.358ZM111.108 146.186H107.292V145.358H111.108V146.186ZM111.108 147.95H107.292V147.104H111.108V147.95ZM107.292 151.712V150.848H113.106V149.714H107.292V148.904H112.746V144.404H100.398V148.904H105.672V149.714H99.948V150.848H105.672V151.712H98.418V152.99H114.636V151.712H107.292ZM122.918 136.988C121.802 139.652 119.948 142.262 118.04 143.9C118.346 144.296 118.814 145.196 118.958 145.592C119.696 144.908 120.416 144.098 121.1 143.198V153.404H122.684V140.894C123.35 139.796 123.962 138.644 124.448 137.492L122.918 136.988ZM128.84 151.388C127.94 151.388 127.76 151.19 127.76 150.182V143.558H134.096V141.956H127.76V137.204H126.158V150.146C126.158 152.306 126.716 152.9 128.696 152.9H131.918C133.952 152.9 134.366 151.712 134.6 148.346C134.168 148.238 133.484 147.914 133.088 147.608C132.944 150.632 132.782 151.388 131.81 151.388H128.84ZM140.686 141.002H144.214V142.064H140.686V141.002ZM144.214 138.806V139.922H140.686V138.806H144.214ZM144.682 146.276C144.772 146.474 144.88 146.708 144.988 146.942L143.494 147.068C144.376 146.402 145.24 145.61 146.032 144.764L145.15 144.152C144.916 144.458 144.664 144.746 144.412 145.034L143.242 145.088C143.71 144.656 144.16 144.116 144.574 143.576L143.908 143.234H145.78V137.618H139.102V153.44H140.686V143.234H143.476C143.062 143.918 142.45 144.566 142.27 144.728C142.072 144.908 141.874 145.016 141.694 145.052C141.838 145.322 141.982 145.862 142.036 146.096C142.216 146.024 142.504 145.97 143.548 145.88C143.116 146.294 142.774 146.582 142.594 146.708C142.234 146.978 141.91 147.158 141.64 147.176C141.766 147.464 141.91 147.986 141.964 148.202C142.216 148.094 142.666 148.004 145.312 147.734C145.366 147.914 145.438 148.076 145.492 148.238H144.754V149.858C144.754 149.948 144.754 150.038 144.754 150.128H143.332V148.526H142.252V151.118H144.484C144.214 151.604 143.674 152.054 142.612 152.378C142.846 152.576 143.224 153.044 143.368 153.332C145.618 152.54 145.942 151.262 145.942 149.894V148.238H145.708L146.41 147.968C146.23 147.5 145.852 146.654 145.528 146.024L144.682 146.276ZM150.73 151.64V148.526H149.596V150.128H148.156V148.238H146.95V153.17H148.156V151.118H149.596V151.64H150.73ZM148.768 142.064V141.002H152.404V142.064H148.768ZM152.404 138.806V139.922H148.768V138.806H152.404ZM154.006 137.618H147.184V143.234H148.3C147.904 143.936 147.274 144.602 147.094 144.746C146.896 144.926 146.716 145.034 146.518 145.07C146.644 145.358 146.788 145.88 146.86 146.114C147.022 146.024 147.31 145.97 148.372 145.88C147.958 146.294 147.598 146.582 147.436 146.708C147.058 147.014 146.752 147.176 146.482 147.23C146.608 147.482 146.752 148.022 146.788 148.238C147.058 148.112 147.508 148.022 150.154 147.734C150.244 147.968 150.334 148.166 150.388 148.328L151.252 147.986C151.072 147.482 150.676 146.636 150.316 146.024L149.488 146.312C149.596 146.492 149.704 146.726 149.812 146.96L148.336 147.086C149.2 146.42 150.082 145.592 150.874 144.746L149.992 144.134C149.758 144.458 149.488 144.746 149.218 145.034L148.084 145.088C148.516 144.656 148.984 144.134 149.38 143.594L148.696 143.234H152.404V151.406C152.404 151.658 152.332 151.73 152.08 151.748C151.864 151.748 151.108 151.748 150.388 151.73C150.604 152.162 150.82 152.918 150.874 153.368C152.026 153.368 152.8 153.332 153.34 153.044C153.862 152.774 154.006 152.288 154.006 151.424V137.618ZM172.584 139.562V140.696H171.342V139.562H172.584ZM172.584 143.126H171.342V141.956H172.584V143.126ZM170.028 140.696H167.436V141.956H170.028V143.126H167.958V144.368H170.028V145.466H167.904V146.78H170.028V147.968H167.526V149.282H170.028V151.208H171.342V149.282H174.366V147.968H171.342V146.78H174.006V145.466H171.342V144.368H173.79V141.956H174.726V140.696H173.79V138.32H171.342V136.898H170.028V138.32H167.958V139.562H170.028V140.696ZM163.818 150.092L162 150.524V145.952H163.764V144.53H162V142.82H163.296V141.416H159.966C160.434 140.768 160.92 140.048 161.352 139.274C162.252 140.03 163.17 140.93 163.746 141.632L164.34 140.228C163.782 139.58 162.882 138.77 161.964 138.068C162.072 137.834 162.18 137.582 162.27 137.366L161.208 136.79C160.506 138.482 159.336 140.084 158.202 141.11C158.382 141.524 158.67 142.46 158.742 142.802C158.94 142.604 159.156 142.406 159.354 142.172V142.82H160.83V144.53H158.544V145.952H160.83V150.794C159.894 151.01 159.03 151.208 158.382 151.352L158.652 152.846C160.11 152.468 162.054 151.946 163.908 151.424L163.818 150.092ZM158.976 147.05C159.21 148.076 159.444 149.426 159.498 150.308L160.47 149.948C160.38 149.102 160.146 147.77 159.894 146.78L158.976 147.05ZM163.098 150.092C163.35 149.3 163.656 148.04 163.926 146.96L162.882 146.6C162.756 147.536 162.486 148.886 162.27 149.75L163.098 150.092ZM166.824 143.306L166.608 143.342H165.78C166.374 141.776 167.04 139.778 167.58 138.14H164.214V139.58H165.78C165.204 141.362 164.502 143.306 163.944 144.656H166.284C166.158 145.934 165.978 147.068 165.744 148.058C165.51 147.536 165.294 146.906 165.132 146.222L164.052 146.654C164.358 147.86 164.754 148.868 165.204 149.678C164.718 150.884 164.07 151.766 163.242 152.324C163.512 152.612 163.836 153.098 164.016 153.458C164.862 152.81 165.528 152.018 166.05 150.938C167.562 152.702 169.578 153.134 171.882 153.134H174.366C174.438 152.756 174.636 152.108 174.834 151.766C174.204 151.784 172.44 151.784 171.972 151.784C169.884 151.784 167.976 151.37 166.608 149.588C167.148 147.986 167.454 145.952 167.598 143.396L166.824 143.306ZM184.106 144.656L182.252 145.142V141.974H184.142V140.408H182.252V136.898H180.614V140.426H178.4V141.974H180.614V145.592C179.714 145.808 178.886 146.006 178.202 146.168L178.634 147.77C179.264 147.608 179.912 147.428 180.614 147.23V151.496C180.614 151.748 180.524 151.838 180.254 151.838C180.038 151.856 179.282 151.856 178.49 151.838C178.706 152.252 178.922 152.954 178.994 153.35C180.218 153.368 181.028 153.314 181.55 153.062C182.072 152.81 182.252 152.36 182.252 151.496V146.762C182.936 146.564 183.62 146.366 184.304 146.168L184.106 144.656ZM191.882 145.124C191.27 146.564 190.37 147.806 189.254 148.832C188.21 147.77 187.418 146.528 186.842 145.124H191.882ZM192.926 143.54L192.638 143.594H190.082V141.128H194.24V139.598H190.082V136.898H188.426V139.598H184.394V141.128H188.426V143.594H184.718V145.124H185.438L185.204 145.196C185.888 146.996 186.806 148.544 187.994 149.858C186.608 150.794 185.042 151.478 183.368 151.892C183.674 152.252 184.088 152.972 184.268 153.404C186.068 152.882 187.742 152.09 189.182 151.01C190.496 152.108 192.026 152.918 193.844 153.44C194.078 153.008 194.546 152.342 194.924 152.018C193.214 151.568 191.738 150.866 190.496 149.93C192.08 148.418 193.286 146.456 194.006 143.972L192.926 143.54ZM212.8 144.674C213.448 144.674 214.132 144.656 214.474 144.548C214.402 144.188 214.348 143.558 214.312 143.126C213.934 143.198 213.214 143.234 212.764 143.234H209.74C209.164 143.234 209.038 143 209.038 142.352V140.696H213.682V139.256H209.038V136.934H207.382V142.316C207.382 144.044 207.868 144.674 209.704 144.674H212.8ZM200.974 144.674H204.322V147.212C203.71 146.726 202.648 145.988 201.838 145.484L200.974 146.276C201.82 146.852 202.954 147.68 203.53 148.202L204.322 147.41V148.076C203.026 148.724 201.766 149.372 200.83 149.786C200.938 148.994 200.974 148.22 200.974 147.518V144.674ZM205.906 143.27H199.426V147.5C199.426 149.03 199.336 150.956 198.328 152.324C198.652 152.54 199.282 153.152 199.498 153.476C200.218 152.54 200.578 151.316 200.776 150.11L201.244 151.298C202.18 150.722 203.242 150.056 204.322 149.354V151.748C204.322 151.964 204.25 152.036 204.016 152.036C203.782 152.054 203.044 152.054 202.288 152.018C202.504 152.378 202.738 152.972 202.81 153.35C203.926 153.35 204.718 153.332 205.24 153.116C205.744 152.882 205.906 152.504 205.906 151.748V143.27ZM203.458 138.716C203.764 139.202 204.088 139.778 204.412 140.336L201.19 140.57C202.018 139.652 202.882 138.536 203.584 137.42L201.874 136.916C201.154 138.338 200.002 139.76 199.66 140.138C199.3 140.516 198.994 140.786 198.706 140.858C198.886 141.272 199.138 142.046 199.228 142.388C199.696 142.208 200.38 142.1 205.096 141.668C205.33 142.1 205.51 142.514 205.618 142.838L207.058 142.226C206.626 141.164 205.636 139.472 204.808 138.212L203.458 138.716ZM209.974 151.82C209.182 151.82 209.038 151.712 209.038 151.1V148.724H213.844V147.23H209.038V145.25H207.382V151.118C207.382 152.792 207.868 153.278 209.758 153.278H212.674C214.24 153.278 214.69 152.648 214.888 150.29C214.42 150.218 213.754 149.948 213.412 149.678C213.34 151.496 213.196 151.82 212.53 151.82H209.974Z" fill="#413D46"/>
<path d="M111.882 93.886H106.41V92.698H111.882V93.886ZM111.882 96.208H106.41V95.02H111.882V96.208ZM113.484 91.474H104.88V97.45H113.484V91.474ZM103.836 100.132L103.602 98.62L101.874 99.124V95.956H103.782V94.408H101.874V90.934H100.344V94.408H98.256V95.956H100.344V99.574C99.498 99.808 98.706 100.024 98.076 100.186L98.454 101.806L100.344 101.23V105.406C100.344 105.658 100.254 105.73 100.038 105.73C99.84 105.73 99.174 105.73 98.454 105.712C98.67 106.144 98.868 106.864 98.904 107.26C100.038 107.26 100.758 107.206 101.244 106.936C101.712 106.684 101.874 106.234 101.874 105.406V100.744L103.836 100.132ZM109.92 103.12H113.52V101.788H109.92V99.916H114.42V98.548H104.034V99.916H108.354V105.172C107.49 104.758 106.806 103.984 106.338 102.688C106.482 102.094 106.59 101.464 106.68 100.798L105.168 100.618C104.88 103.156 104.106 105.172 102.54 106.414C102.918 106.63 103.548 107.152 103.8 107.422C104.682 106.63 105.348 105.604 105.834 104.344C107.004 106.72 108.876 107.17 111.378 107.17H114.474C114.528 106.756 114.744 106.054 114.942 105.694C114.276 105.712 111.936 105.712 111.414 105.712C110.892 105.712 110.406 105.694 109.92 105.622V103.12ZM134.6 98.026H130.838V91.222H129.128V98.026H124.07V93.886C125.33 93.454 126.5 92.986 127.508 92.464L126.284 91.096C124.466 92.176 121.388 93.184 118.58 93.832C118.814 94.192 119.084 94.804 119.174 95.2C120.218 94.966 121.316 94.696 122.396 94.39V98.026H118.436V99.628H122.36C122.198 102.04 121.406 104.434 118.274 106.162C118.652 106.45 119.228 107.062 119.462 107.44C123.044 105.424 123.89 102.544 124.034 99.628H129.128V107.404H130.838V99.628H134.6V98.026ZM154.258 95.11C154.024 94.3 153.466 92.986 152.908 91.996L151.702 92.41C152.224 93.418 152.764 94.768 152.962 95.614L154.258 95.11ZM149.524 92.734H147.706C147.526 92.194 147.274 91.51 147.04 90.988L145.636 91.24C145.816 91.69 146.032 92.248 146.194 92.734H144.178V94.048H149.524V92.734ZM142.018 95.38H140.416V93.13H142.018V95.38ZM140.416 100.42H142.018V102.652C141.478 102.778 140.92 102.886 140.416 102.976V100.42ZM142.018 99.034H140.416V96.766H142.018V99.034ZM144.07 93.13V91.636H138.31V93.13H139.156V103.228C138.778 103.3 138.454 103.336 138.13 103.39L138.454 104.83C139.516 104.596 140.758 104.308 142.018 104.038V107.44H143.314V93.13H144.07ZM145.798 103.696V102.256H147.958V103.696H145.798ZM147.958 99.7V101.086H145.798V99.7H147.958ZM153.286 98.44C152.944 99.574 152.494 100.636 151.954 101.608C151.81 100.474 151.684 99.124 151.594 97.666H154.69V96.244H151.522C151.45 94.588 151.396 92.77 151.396 90.898H149.956C149.992 92.788 150.028 94.588 150.118 96.244H148.534C148.714 95.704 148.894 95.002 149.092 94.372L147.778 94.138C147.688 94.75 147.49 95.596 147.31 96.244H146.158C146.086 95.65 145.888 94.804 145.69 94.156L144.52 94.354C144.682 94.93 144.844 95.668 144.916 96.244H143.854V97.666H150.19C150.316 99.862 150.514 101.788 150.802 103.336C150.316 103.948 149.776 104.542 149.236 105.046V98.512H144.502V106.144H145.798V104.866H147.958V105.316H148.93C148.48 105.712 148.012 106.054 147.526 106.36C147.868 106.612 148.3 107.008 148.498 107.296C149.434 106.666 150.352 105.874 151.18 104.956C151.648 106.486 152.26 107.368 153.142 107.386C153.754 107.386 154.438 106.72 154.816 104.02C154.564 103.876 154.006 103.462 153.754 103.138C153.664 104.65 153.466 105.55 153.196 105.55C152.836 105.532 152.53 104.83 152.26 103.606C153.214 102.292 154.006 100.762 154.564 99.088L153.286 98.44ZM170.118 100.888C170.208 100.33 170.28 99.772 170.334 99.178H168.678C168.624 99.772 168.552 100.33 168.462 100.888H165.582V102.292H168.102C167.544 103.93 166.446 105.28 164.106 106.126C164.448 106.414 164.898 107.026 165.096 107.422C167.94 106.306 169.2 104.506 169.812 102.292H172.422C172.188 104.398 171.936 105.316 171.63 105.586C171.468 105.748 171.324 105.784 171.054 105.784C170.748 105.784 170.082 105.766 169.38 105.694C169.614 106.126 169.794 106.774 169.83 107.242C170.64 107.278 171.378 107.278 171.828 107.242C172.314 107.17 172.674 107.062 173.034 106.702C173.538 106.162 173.862 104.776 174.168 101.554C174.204 101.32 174.222 100.888 174.222 100.888H170.118ZM171.468 94.138C171.09 94.894 170.586 95.56 169.956 96.118C169.218 95.524 168.606 94.876 168.138 94.138H171.468ZM174.546 94.138V92.734H168.876C169.146 92.266 169.398 91.798 169.614 91.312L168.048 90.88C167.328 92.572 166.05 94.192 164.628 95.218C165.042 95.434 165.69 95.902 166.014 96.172C166.374 95.866 166.734 95.524 167.094 95.128C167.544 95.812 168.084 96.442 168.696 97.018C167.886 97.486 166.968 97.864 165.942 98.152C165.996 97.9 166.05 97.666 166.104 97.432L165.096 97.072L164.844 97.162H163.728L164.502 96.316C164.124 96.028 163.638 95.686 163.062 95.362C164.124 94.534 165.204 93.418 165.87 92.356L164.79 91.69L164.52 91.744H158.598V93.166H163.332C162.882 93.706 162.342 94.246 161.784 94.678C161.244 94.408 160.668 94.156 160.164 93.958L159.12 95.038C160.416 95.596 161.982 96.442 162.972 97.162H158.382V98.62H160.884C160.236 100.276 159.21 101.986 158.13 102.94C158.418 103.372 158.814 104.056 158.976 104.542C159.894 103.642 160.74 102.184 161.406 100.636V105.514C161.406 105.73 161.334 105.766 161.118 105.784C160.902 105.802 160.182 105.802 159.462 105.766C159.678 106.216 159.894 106.9 159.948 107.35C161.064 107.35 161.802 107.314 162.324 107.08C162.864 106.792 162.99 106.342 162.99 105.532V98.62H164.376C164.142 99.61 163.872 100.618 163.584 101.32L164.736 101.896C165.078 101.122 165.42 100.06 165.726 98.998C165.924 99.268 166.104 99.538 166.194 99.736C167.598 99.304 168.894 98.764 169.992 98.044C171.144 98.818 172.458 99.394 173.898 99.772C174.114 99.34 174.6 98.692 174.942 98.368C173.61 98.08 172.368 97.63 171.306 97.018C172.134 96.226 172.818 95.272 173.304 94.138H174.546ZM187.184 95.182L187.472 95.11C187.4 94.696 187.13 94.084 186.86 93.598H190.622C190.424 94.102 190.154 94.732 189.902 95.182H187.184ZM190.01 101.986H187.58V100.798H190.01V101.986ZM185.348 93.724C185.618 94.156 185.816 94.732 185.942 95.182H183.656V104.398H185.168V96.496H188.138V97.594H185.726V98.674H188.138V99.808H186.392V103.606H187.58V102.994H191.216V99.808H189.38V98.674H191.828V97.594H189.38V96.496H192.476V102.85C192.476 103.048 192.404 103.12 192.188 103.138C191.972 103.138 191.306 103.138 190.604 103.102C190.784 103.48 191 104.092 191.072 104.506C192.116 104.506 192.854 104.488 193.376 104.236C193.88 104.002 194.006 103.606 194.006 102.868V95.182H191.486C191.738 94.732 192.008 94.192 192.278 93.652L192.062 93.598H194.546V92.284H189.632C189.362 91.78 188.984 91.186 188.606 90.736L187.292 91.258C187.526 91.564 187.76 91.924 187.94 92.284H183.08V93.598H185.852L185.348 93.724ZM181.982 93.814C181.694 93.058 181.154 91.852 180.74 90.934L179.3 91.402C179.678 92.356 180.218 93.616 180.488 94.408L181.982 93.814ZM182.198 99.106L181.928 99.16H180.938C181.424 97.918 181.964 96.442 182.378 95.164H178.364V96.676H180.29C179.804 98.098 179.246 99.538 178.778 100.6H181.118C180.866 101.77 180.506 103.03 180.056 103.984C179.444 104.326 178.742 105.064 178.058 105.964L179.192 107.512C179.696 106.414 180.308 105.262 180.704 105.262C181.1 105.262 181.748 105.874 182.468 106.288C183.782 107.044 185.33 107.242 187.706 107.242C189.794 107.242 193.088 107.134 194.474 107.044C194.51 106.594 194.78 105.766 194.978 105.316C192.98 105.568 189.956 105.73 187.778 105.73C185.654 105.73 184.016 105.622 182.756 104.866C182.216 104.524 181.838 104.254 181.514 104.056C182.126 102.706 182.612 100.978 182.918 99.358L182.198 99.106ZM200.65 103.318H204.61V102.004H200.65V103.318ZM203.152 95.128H202.108V93.04H203.152V95.128ZM205.258 99.34C205.222 99.358 205.15 99.376 205.006 99.376H204.448C204.25 99.376 204.214 99.34 204.214 99.088V96.532H205.258V99.34ZM200.002 104.83V100.564C200.236 100.69 200.578 101.014 200.74 101.194C201.892 100.276 202.162 98.944 202.162 97.864V96.532H203.224V99.106C203.224 100.168 203.476 100.42 204.322 100.42H205.186H205.258V104.83H200.002ZM201.154 96.532V97.846C201.154 98.674 200.992 99.7 200.002 100.51V96.532H201.154ZM198.4 93.04H200.794V95.128H198.688V107.386H200.002V106.144H205.258V107.134H206.626V95.128H204.484V93.04H206.878V91.636H198.4V93.04ZM210.082 105.676C209.344 105.676 209.218 105.55 209.218 104.866V99.052H214.186V91.726H207.508V93.328H212.566V97.45H207.562V104.884C207.562 106.738 208.102 107.224 209.848 107.224H212.548C214.222 107.224 214.654 106.378 214.852 103.426C214.402 103.318 213.718 103.03 213.34 102.742C213.25 105.226 213.124 105.676 212.404 105.676H210.082Z" fill="#413D46"/>
<path d="M100.56 47.976H112.386V50.046H114.078V46.464H107.76C107.49 45.906 107.094 45.24 106.788 44.736L105.132 45.132C105.348 45.546 105.6 46.014 105.834 46.464H98.922V50.046H100.56V47.976ZM103.044 55.896C104.268 55.482 105.42 54.996 106.5 54.42C107.652 55.014 108.876 55.5 110.226 55.896H103.044ZM103.224 59.442V57.282H109.83V59.442H103.224ZM104.196 50.694H109.02C108.354 51.414 107.508 52.044 106.536 52.638C105.564 52.08 104.736 51.468 104.088 50.784L104.196 50.694ZM110.424 49.326L110.154 49.398H105.402C105.654 49.092 105.906 48.804 106.122 48.48L104.34 48.138C103.44 49.488 101.73 50.982 99.264 51.99C99.624 52.26 100.146 52.854 100.362 53.232C101.316 52.782 102.162 52.278 102.9 51.738C103.512 52.368 104.196 52.944 104.934 53.466C102.882 54.438 100.488 55.104 98.184 55.482C98.472 55.86 98.832 56.526 98.976 56.958C99.84 56.796 100.722 56.598 101.586 56.346V61.404H103.224V60.828H109.83V61.368H111.558V56.238C112.278 56.418 113.016 56.562 113.772 56.67C114.006 56.202 114.492 55.464 114.852 55.068C112.404 54.78 110.118 54.24 108.156 53.43C109.542 52.476 110.73 51.342 111.576 50.028L110.424 49.326ZM133.61 45.06H132.098V52.314C132.098 52.548 132.026 52.62 131.756 52.62C131.504 52.638 130.64 52.638 129.74 52.602C129.938 52.98 130.172 53.556 130.244 53.952C131.504 53.952 132.35 53.934 132.89 53.7C133.448 53.502 133.61 53.124 133.61 52.332V45.06ZM130.19 45.798H128.678V51.684H130.19V45.798ZM119.822 48.174C120.002 47.904 120.218 47.598 120.416 47.256H122.378V48.174H119.822ZM132.512 55.932C131.756 56.472 130.586 57.21 129.56 57.714C128.948 57.21 128.444 56.598 128.03 55.932H134.474V54.6H127.778C127.58 54.114 127.292 53.574 127.022 53.124L126.716 53.214C126.986 53.016 127.058 52.764 127.058 52.26V50.136H123.818V49.344H127.436V48.174H123.818V47.256H126.878V46.122H123.818V44.898H122.378V46.122H120.992C121.1 45.834 121.208 45.546 121.316 45.258L120.038 44.934C119.732 45.906 119.228 46.896 118.616 47.616C118.886 47.724 119.372 47.976 119.66 48.174H118.472V49.344H122.378V50.136H119.3V53.574H120.614V51.216H122.378V54.024H123.818V51.216H125.69V52.278C125.69 52.422 125.654 52.458 125.492 52.476C125.348 52.476 124.916 52.476 124.394 52.458C124.556 52.746 124.754 53.142 124.826 53.484C125.204 53.484 125.51 53.484 125.798 53.466L125.456 53.556C125.636 53.88 125.816 54.24 125.96 54.6H118.544V55.932H124.394C122.738 56.85 120.398 57.57 118.238 57.912C118.544 58.2 118.94 58.776 119.138 59.118C120.11 58.938 121.118 58.668 122.09 58.308V58.812C122.09 59.676 121.622 60.072 121.316 60.27C121.496 60.504 121.748 61.008 121.856 61.368V61.494C122.216 61.26 122.792 61.098 127.31 60.036C127.292 59.748 127.328 59.172 127.382 58.794L123.62 59.586V57.714C124.718 57.228 125.708 56.652 126.518 56.04C127.868 58.812 130.226 60.504 133.826 61.206C134.042 60.792 134.42 60.18 134.762 59.874C133.178 59.622 131.81 59.154 130.676 58.506C131.684 58.056 132.8 57.426 133.718 56.796L132.512 55.932ZM152.188 44.808C149.056 45.474 143.62 45.924 138.994 46.104C139.156 46.464 139.336 47.112 139.354 47.526C144.034 47.364 149.578 46.932 153.358 46.176L152.188 44.808ZM140.38 51.504H152.566V53.754H154.204V50.028H151.378C151.882 49.308 152.404 48.408 152.872 47.598L151.126 47.13C150.784 48.012 150.208 49.182 149.686 50.028H146.104L147.616 49.65C147.508 48.984 147.112 47.958 146.716 47.166L145.222 47.49C145.6 48.3 145.942 49.362 146.032 50.028H142.144L143.116 49.722C142.918 49.11 142.45 48.156 141.964 47.472L140.506 47.886C140.902 48.534 141.316 49.398 141.532 50.028H138.814V53.754H140.38V51.504ZM149.524 54.78C148.768 55.86 147.76 56.724 146.536 57.426C145.24 56.706 144.178 55.824 143.386 54.78H149.524ZM150.91 53.178L150.604 53.232H141.154V54.78H141.928L141.604 54.924C142.468 56.22 143.566 57.336 144.88 58.236C142.99 59.028 140.794 59.532 138.418 59.82C138.778 60.18 139.228 60.9 139.39 61.332C141.946 60.918 144.394 60.27 146.5 59.226C148.498 60.252 150.856 60.936 153.52 61.314C153.754 60.828 154.186 60.108 154.546 59.73C152.17 59.478 150.046 58.974 148.21 58.236C149.83 57.12 151.18 55.698 152.044 53.862L150.91 53.178ZM164.538 50.388H166.932V52.314H164.538V50.388ZM164.538 53.664H166.932V55.59H164.538V53.664ZM164.538 47.112H166.932V49.002H164.538V47.112ZM163.116 45.654V57.066H168.408V45.654H163.116ZM166.212 57.948C166.914 58.83 167.76 60.054 168.12 60.81L169.47 59.982C169.056 59.262 168.174 58.074 167.49 57.246L166.212 57.948ZM163.746 57.336C163.26 58.542 162.378 59.766 161.478 60.576C161.838 60.792 162.486 61.206 162.792 61.476C163.71 60.576 164.682 59.136 165.276 57.75L163.746 57.336ZM172.584 44.898V59.442C172.584 59.73 172.476 59.82 172.206 59.82C171.918 59.838 171 59.838 169.992 59.802C170.208 60.27 170.442 60.972 170.478 61.404C171.918 61.404 172.818 61.35 173.358 61.098C173.916 60.828 174.114 60.36 174.114 59.424V44.898H172.584ZM169.56 46.734V56.976H171.018V46.734H169.56ZM158.94 46.266C159.912 46.77 161.154 47.58 161.712 48.156L162.72 46.824C162.108 46.23 160.866 45.51 159.876 45.078L158.94 46.266ZM158.184 51.054C159.21 51.504 160.47 52.26 161.064 52.8L162.036 51.45C161.424 50.892 160.146 50.226 159.12 49.83L158.184 51.054ZM158.526 60.324L160.038 61.188C160.794 59.514 161.64 57.39 162.306 55.5L160.938 54.618C160.218 56.67 159.246 58.938 158.526 60.324ZM185.438 55.392C185.24 54.438 184.754 52.872 184.268 51.666L183.008 52.044C183.188 52.512 183.368 53.052 183.512 53.574L180.848 53.916C182.306 52.332 183.746 50.37 184.916 48.408L183.494 47.544C183.098 48.336 182.63 49.128 182.144 49.848L180.398 49.992C181.388 48.696 182.378 47.04 183.152 45.438L181.658 44.808C180.902 46.752 179.624 48.786 179.246 49.29C178.85 49.83 178.544 50.19 178.202 50.262C178.382 50.676 178.616 51.414 178.706 51.72C178.976 51.594 179.372 51.504 181.136 51.306C180.524 52.152 180.002 52.818 179.714 53.106C179.138 53.736 178.706 54.168 178.31 54.276C178.49 54.69 178.742 55.482 178.832 55.806C179.21 55.59 179.84 55.446 183.872 54.852C183.98 55.23 184.052 55.572 184.106 55.86L185.438 55.392ZM179.03 56.472C178.886 57.93 178.634 59.514 178.238 60.594C178.58 60.702 179.264 60.918 179.57 61.08C179.966 59.964 180.272 58.272 180.416 56.724L179.03 56.472ZM181.19 56.67C181.406 57.894 181.604 59.514 181.64 60.558L183.008 60.27C182.936 59.208 182.72 57.642 182.504 56.418L181.19 56.67ZM183.224 56.31C183.53 57.264 183.908 58.524 184.052 59.334L185.348 58.884C185.186 58.074 184.808 56.868 184.448 55.932L183.224 56.31ZM187.724 56.4H191.972V59.568H187.724V56.4ZM191.972 47.328V50.334H187.724V47.328H191.972ZM191.972 54.906H187.724V51.828H191.972V54.906ZM193.574 59.568V45.798H186.194V59.568H184.7V61.08H194.744V59.568H193.574ZM210.496 55.608V58.938H202.702V55.608H210.496ZM201.01 61.386H202.702V60.486H210.496V61.314H212.26V54.114H201.01V61.386ZM203.044 50.694C204.34 49.794 205.564 48.75 206.608 47.598C207.886 48.858 209.128 49.848 210.442 50.694H203.044ZM206.734 44.844C204.898 47.616 201.568 49.902 198.22 51.216C198.688 51.63 199.156 52.26 199.444 52.71C200.326 52.332 201.19 51.846 202.036 51.342V52.242H211V51.054C211.9 51.594 212.818 52.062 213.772 52.53C214.006 51.99 214.492 51.378 214.942 51C212.278 49.938 209.83 48.57 207.634 46.41C207.85 46.14 208.03 45.87 208.21 45.6L206.734 44.844Z" fill="#413D46"/>
</svg>
