<svg width="533" height="298" viewBox="0 0 533 298" fill="none" xmlns="http://www.w3.org/2000/svg">
<path opacity="0.2" d="M337 293.182L74 293.182C54.1177 293.182 38 277.065 38 257.182V238" stroke="#413D46" stroke-width="8" stroke-linecap="round"/>
<path d="M129.424 196.912H118.456V195.832H129.424V196.912ZM129.424 199.192H118.456V198.088H129.424V199.192ZM131.68 194.608H116.296V200.416H131.68V194.608ZM134.752 201.328H113.32V202.96H134.752V201.328ZM117.976 208.6V207.472H122.896V208.6H117.976ZM117.976 205.144H122.896V206.248H117.976V205.144ZM130.144 206.248H125.056V205.144H130.144V206.248ZM130.144 208.6H125.056V207.472H130.144V208.6ZM125.056 213.616V212.464H132.808V210.952H125.056V209.872H132.328V203.872H115.864V209.872H122.896V210.952H115.264V212.464H122.896V213.616H113.224V215.32H134.848V213.616H125.056ZM145.224 193.984C143.736 197.536 141.264 201.016 138.72 203.2C139.128 203.728 139.752 204.928 139.944 205.456C140.928 204.544 141.888 203.464 142.8 202.264V215.872H144.912V199.192C145.8 197.728 146.616 196.192 147.264 194.656L145.224 193.984ZM153.12 213.184C151.92 213.184 151.68 212.92 151.68 211.576V202.744H160.128V200.608H151.68V194.272H149.544V211.528C149.544 214.408 150.288 215.2 152.928 215.2H157.224C159.936 215.2 160.488 213.616 160.8 209.128C160.224 208.984 159.312 208.552 158.784 208.144C158.592 212.176 158.376 213.184 157.08 213.184H153.12ZM168.248 199.336H172.952V200.752H168.248V199.336ZM172.952 196.408V197.896H168.248V196.408H172.952ZM173.576 206.368C173.696 206.632 173.84 206.944 173.984 207.256L171.992 207.424C173.168 206.536 174.32 205.48 175.376 204.352L174.2 203.536C173.888 203.944 173.552 204.328 173.216 204.712L171.656 204.784C172.28 204.208 172.88 203.488 173.432 202.768L172.544 202.312H175.04V194.824H166.136V215.92H168.248V202.312H171.968C171.416 203.224 170.6 204.088 170.36 204.304C170.096 204.544 169.832 204.688 169.592 204.736C169.784 205.096 169.976 205.816 170.048 206.128C170.288 206.032 170.672 205.96 172.064 205.84C171.488 206.392 171.032 206.776 170.792 206.944C170.312 207.304 169.88 207.544 169.52 207.568C169.688 207.952 169.88 208.648 169.952 208.936C170.288 208.792 170.888 208.672 174.416 208.312C174.488 208.552 174.584 208.768 174.656 208.984H173.672V211.144C173.672 211.264 173.672 211.384 173.672 211.504H171.776V209.368H170.336V212.824H173.312C172.952 213.472 172.232 214.072 170.816 214.504C171.128 214.768 171.632 215.392 171.824 215.776C174.824 214.72 175.256 213.016 175.256 211.192V208.984H174.944L175.88 208.624C175.64 208 175.136 206.872 174.704 206.032L173.576 206.368ZM181.64 213.52V209.368H180.128V211.504H178.208V208.984H176.6V215.56H178.208V212.824H180.128V213.52H181.64ZM179.024 200.752V199.336H183.872V200.752H179.024ZM183.872 196.408V197.896H179.024V196.408H183.872ZM186.008 194.824H176.912V202.312H178.4C177.872 203.248 177.032 204.136 176.792 204.328C176.528 204.568 176.288 204.712 176.024 204.76C176.192 205.144 176.384 205.84 176.48 206.152C176.696 206.032 177.08 205.96 178.496 205.84C177.944 206.392 177.464 206.776 177.248 206.944C176.744 207.352 176.336 207.568 175.976 207.64C176.144 207.976 176.336 208.696 176.384 208.984C176.744 208.816 177.344 208.696 180.872 208.312C180.992 208.624 181.112 208.888 181.184 209.104L182.336 208.648C182.096 207.976 181.568 206.848 181.088 206.032L179.984 206.416C180.128 206.656 180.272 206.968 180.416 207.28L178.448 207.448C179.6 206.56 180.776 205.456 181.832 204.328L180.656 203.512C180.344 203.944 179.984 204.328 179.624 204.712L178.112 204.784C178.688 204.208 179.312 203.512 179.84 202.792L178.928 202.312H183.872V213.208C183.872 213.544 183.776 213.64 183.44 213.664C183.152 213.664 182.144 213.664 181.184 213.64C181.472 214.216 181.76 215.224 181.832 215.824C183.368 215.824 184.4 215.776 185.12 215.392C185.816 215.032 186.008 214.384 186.008 213.232V194.824ZM210.112 197.416V198.928H208.456V197.416H210.112ZM210.112 202.168H208.456V200.608H210.112V202.168ZM206.704 198.928H203.248V200.608H206.704V202.168H203.944V203.824H206.704V205.288H203.872V207.04H206.704V208.624H203.368V210.376H206.704V212.944H208.456V210.376H212.488V208.624H208.456V207.04H212.008V205.288H208.456V203.824H211.72V200.608H212.968V198.928H211.72V195.76H208.456V193.864H206.704V195.76H203.944V197.416H206.704V198.928ZM198.424 211.456L196 212.032V205.936H198.352V204.04H196V201.76H197.728V199.888H193.288C193.912 199.024 194.56 198.064 195.136 197.032C196.336 198.04 197.56 199.24 198.328 200.176L199.12 198.304C198.376 197.44 197.176 196.36 195.952 195.424C196.096 195.112 196.24 194.776 196.36 194.488L194.944 193.72C194.008 195.976 192.448 198.112 190.936 199.48C191.176 200.032 191.56 201.28 191.656 201.736C191.92 201.472 192.208 201.208 192.472 200.896V201.76H194.44V204.04H191.392V205.936H194.44V212.392C193.192 212.68 192.04 212.944 191.176 213.136L191.536 215.128C193.48 214.624 196.072 213.928 198.544 213.232L198.424 211.456ZM191.968 207.4C192.28 208.768 192.592 210.568 192.664 211.744L193.96 211.264C193.84 210.136 193.528 208.36 193.192 207.04L191.968 207.4ZM197.464 211.456C197.8 210.4 198.208 208.72 198.568 207.28L197.176 206.8C197.008 208.048 196.648 209.848 196.36 211L197.464 211.456ZM202.432 202.408L202.144 202.456H201.04C201.832 200.368 202.72 197.704 203.44 195.52H198.952V197.44H201.04C200.272 199.816 199.336 202.408 198.592 204.208H201.712C201.544 205.912 201.304 207.424 200.992 208.744C200.68 208.048 200.392 207.208 200.176 206.296L198.736 206.872C199.144 208.48 199.672 209.824 200.272 210.904C199.624 212.512 198.76 213.688 197.656 214.432C198.016 214.816 198.448 215.464 198.688 215.944C199.816 215.08 200.704 214.024 201.4 212.584C203.416 214.936 206.104 215.512 209.176 215.512H212.488C212.584 215.008 212.848 214.144 213.112 213.688C212.272 213.712 209.92 213.712 209.296 213.712C206.512 213.712 203.968 213.16 202.144 210.784C202.864 208.648 203.272 205.936 203.464 202.528L202.432 202.408ZM224.808 204.208L222.336 204.856V200.632H224.856V198.544H222.336V193.864H220.152V198.568H217.2V200.632H220.152V205.456C218.952 205.744 217.848 206.008 216.936 206.224L217.512 208.36C218.352 208.144 219.216 207.904 220.152 207.64V213.328C220.152 213.664 220.032 213.784 219.672 213.784C219.384 213.808 218.376 213.808 217.32 213.784C217.608 214.336 217.896 215.272 217.992 215.8C219.624 215.824 220.704 215.752 221.4 215.416C222.096 215.08 222.336 214.48 222.336 213.328V207.016C223.248 206.752 224.16 206.488 225.072 206.224L224.808 204.208ZM235.176 204.832C234.36 206.752 233.16 208.408 231.672 209.776C230.28 208.36 229.224 206.704 228.456 204.832H235.176ZM236.568 202.72L236.184 202.792H232.776V199.504H238.32V197.464H232.776V193.864H230.568V197.464H225.192V199.504H230.568V202.792H225.624V204.832H226.584L226.272 204.928C227.184 207.328 228.408 209.392 229.992 211.144C228.144 212.392 226.056 213.304 223.824 213.856C224.232 214.336 224.784 215.296 225.024 215.872C227.424 215.176 229.656 214.12 231.576 212.68C233.328 214.144 235.368 215.224 237.792 215.92C238.104 215.344 238.728 214.456 239.232 214.024C236.952 213.424 234.984 212.488 233.328 211.24C235.44 209.224 237.048 206.608 238.008 203.296L236.568 202.72ZM262.4 204.232C263.264 204.232 264.176 204.208 264.632 204.064C264.536 203.584 264.464 202.744 264.416 202.168C263.912 202.264 262.952 202.312 262.352 202.312H258.32C257.552 202.312 257.384 202 257.384 201.136V198.928H263.576V197.008H257.384V193.912H255.176V201.088C255.176 203.392 255.824 204.232 258.272 204.232H262.4ZM246.632 204.232H251.096V207.616C250.28 206.968 248.864 205.984 247.784 205.312L246.632 206.368C247.76 207.136 249.272 208.24 250.04 208.936L251.096 207.88V208.768C249.368 209.632 247.688 210.496 246.44 211.048C246.584 209.992 246.632 208.96 246.632 208.024V204.232ZM253.208 202.36H244.568V208C244.568 210.04 244.448 212.608 243.104 214.432C243.536 214.72 244.376 215.536 244.664 215.968C245.624 214.72 246.104 213.088 246.368 211.48L246.992 213.064C248.24 212.296 249.656 211.408 251.096 210.472V213.664C251.096 213.952 251 214.048 250.688 214.048C250.376 214.072 249.392 214.072 248.384 214.024C248.672 214.504 248.984 215.296 249.08 215.8C250.568 215.8 251.624 215.776 252.32 215.488C252.992 215.176 253.208 214.672 253.208 213.664V202.36ZM249.944 196.288C250.352 196.936 250.784 197.704 251.216 198.448L246.92 198.76C248.024 197.536 249.176 196.048 250.112 194.56L247.832 193.888C246.872 195.784 245.336 197.68 244.88 198.184C244.4 198.688 243.992 199.048 243.608 199.144C243.848 199.696 244.184 200.728 244.304 201.184C244.928 200.944 245.84 200.8 252.128 200.224C252.44 200.8 252.68 201.352 252.824 201.784L254.744 200.968C254.168 199.552 252.848 197.296 251.744 195.616L249.944 196.288ZM258.632 213.76C257.576 213.76 257.384 213.616 257.384 212.8V209.632H263.792V207.64H257.384V205H255.176V212.824C255.176 215.056 255.824 215.704 258.344 215.704H262.232C264.32 215.704 264.92 214.864 265.184 211.72C264.56 211.624 263.672 211.264 263.216 210.904C263.12 213.328 262.928 213.76 262.04 213.76H258.632Z" fill="#413D46"/>
<path d="M131.176 129.848H123.88V128.264H131.176V129.848ZM131.176 132.944H123.88V131.36H131.176V132.944ZM133.312 126.632H121.84V134.6H133.312V126.632ZM120.448 138.176L120.136 136.16L117.832 136.832V132.608H120.376V130.544H117.832V125.912H115.792V130.544H113.008V132.608H115.792V137.432C114.664 137.744 113.608 138.032 112.768 138.248L113.272 140.408L115.792 139.64V145.208C115.792 145.544 115.672 145.64 115.384 145.64C115.12 145.64 114.232 145.64 113.272 145.616C113.56 146.192 113.824 147.152 113.872 147.68C115.384 147.68 116.344 147.608 116.992 147.248C117.616 146.912 117.832 146.312 117.832 145.208V138.992L120.448 138.176ZM128.56 142.16H133.36V140.384H128.56V137.888H134.56V136.064H120.712V137.888H126.472V144.896C125.32 144.344 124.408 143.312 123.784 141.584C123.976 140.792 124.12 139.952 124.24 139.064L122.224 138.824C121.84 142.208 120.808 144.896 118.72 146.552C119.224 146.84 120.064 147.536 120.4 147.896C121.576 146.84 122.464 145.472 123.112 143.792C124.672 146.96 127.168 147.56 130.504 147.56H134.632C134.704 147.008 134.992 146.072 135.256 145.592C134.368 145.616 131.248 145.616 130.552 145.616C129.856 145.616 129.208 145.592 128.56 145.496V142.16ZM160.8 135.368H155.784V126.296H153.504V135.368H146.76V129.848C148.44 129.272 150 128.648 151.344 127.952L149.712 126.128C147.288 127.568 143.184 128.912 139.44 129.776C139.752 130.256 140.112 131.072 140.232 131.6C141.624 131.288 143.088 130.928 144.528 130.52V135.368H139.248V137.504H144.48C144.264 140.72 143.208 143.912 139.032 146.216C139.536 146.6 140.304 147.416 140.616 147.92C145.392 145.232 146.52 141.392 146.712 137.504H153.504V147.872H155.784V137.504H160.8V135.368ZM186.344 131.48C186.032 130.4 185.288 128.648 184.544 127.328L182.936 127.88C183.632 129.224 184.352 131.024 184.616 132.152L186.344 131.48ZM180.032 128.312H177.608C177.368 127.592 177.032 126.68 176.72 125.984L174.848 126.32C175.088 126.92 175.376 127.664 175.592 128.312H172.904V130.064H180.032V128.312ZM170.024 131.84H167.888V128.84H170.024V131.84ZM167.888 138.56H170.024V141.536C169.304 141.704 168.56 141.848 167.888 141.968V138.56ZM170.024 136.712H167.888V133.688H170.024V136.712ZM172.76 128.84V126.848H165.08V128.84H166.208V142.304C165.704 142.4 165.272 142.448 164.84 142.52L165.272 144.44C166.688 144.128 168.344 143.744 170.024 143.384V147.92H171.752V128.84H172.76ZM175.064 142.928V141.008H177.944V142.928H175.064ZM177.944 137.6V139.448H175.064V137.6H177.944ZM185.048 135.92C184.592 137.432 183.992 138.848 183.272 140.144C183.08 138.632 182.912 136.832 182.792 134.888H186.92V132.992H182.696C182.6 130.784 182.528 128.36 182.528 125.864H180.608C180.656 128.384 180.704 130.784 180.824 132.992H178.712C178.952 132.272 179.192 131.336 179.456 130.496L177.704 130.184C177.584 131 177.32 132.128 177.08 132.992H175.544C175.448 132.2 175.184 131.072 174.92 130.208L173.36 130.472C173.576 131.24 173.792 132.224 173.888 132.992H172.472V134.888H180.92C181.088 137.816 181.352 140.384 181.736 142.448C181.088 143.264 180.368 144.056 179.648 144.728V136.016H173.336V146.192H175.064V144.488H177.944V145.088H179.24C178.64 145.616 178.016 146.072 177.368 146.48C177.824 146.816 178.4 147.344 178.664 147.728C179.912 146.888 181.136 145.832 182.24 144.608C182.864 146.648 183.68 147.824 184.856 147.848C185.672 147.848 186.584 146.96 187.088 143.36C186.752 143.168 186.008 142.616 185.672 142.184C185.552 144.2 185.288 145.4 184.928 145.4C184.448 145.376 184.04 144.44 183.68 142.808C184.952 141.056 186.008 139.016 186.752 136.784L185.048 135.92ZM206.824 139.184C206.944 138.44 207.04 137.696 207.112 136.904H204.904C204.832 137.696 204.736 138.44 204.616 139.184H200.776V141.056H204.136C203.392 143.24 201.928 145.04 198.808 146.168C199.264 146.552 199.864 147.368 200.128 147.896C203.92 146.408 205.6 144.008 206.416 141.056H209.896C209.584 143.864 209.248 145.088 208.84 145.448C208.624 145.664 208.432 145.712 208.072 145.712C207.664 145.712 206.776 145.688 205.84 145.592C206.152 146.168 206.392 147.032 206.44 147.656C207.52 147.704 208.504 147.704 209.104 147.656C209.752 147.56 210.232 147.416 210.712 146.936C211.384 146.216 211.816 144.368 212.224 140.072C212.272 139.76 212.296 139.184 212.296 139.184H206.824ZM208.624 130.184C208.12 131.192 207.448 132.08 206.608 132.824C205.624 132.032 204.808 131.168 204.184 130.184H208.624ZM212.728 130.184V128.312H205.168C205.528 127.688 205.864 127.064 206.152 126.416L204.064 125.84C203.104 128.096 201.4 130.256 199.504 131.624C200.056 131.912 200.92 132.536 201.352 132.896C201.832 132.488 202.312 132.032 202.792 131.504C203.392 132.416 204.112 133.256 204.928 134.024C203.848 134.648 202.624 135.152 201.256 135.536C201.328 135.2 201.4 134.888 201.472 134.576L200.128 134.096L199.792 134.216H198.304L199.336 133.088C198.832 132.704 198.184 132.248 197.416 131.816C198.832 130.712 200.272 129.224 201.16 127.808L199.72 126.92L199.36 126.992H191.464V128.888H197.776C197.176 129.608 196.456 130.328 195.712 130.904C194.992 130.544 194.224 130.208 193.552 129.944L192.16 131.384C193.888 132.128 195.976 133.256 197.296 134.216H191.176V136.16H194.512C193.648 138.368 192.28 140.648 190.84 141.92C191.224 142.496 191.752 143.408 191.968 144.056C193.192 142.856 194.32 140.912 195.208 138.848V145.352C195.208 145.64 195.112 145.688 194.824 145.712C194.536 145.736 193.576 145.736 192.616 145.688C192.904 146.288 193.192 147.2 193.264 147.8C194.752 147.8 195.736 147.752 196.432 147.44C197.152 147.056 197.32 146.456 197.32 145.376V136.16H199.168C198.856 137.48 198.496 138.824 198.112 139.76L199.648 140.528C200.104 139.496 200.56 138.08 200.968 136.664C201.232 137.024 201.472 137.384 201.592 137.648C203.464 137.072 205.192 136.352 206.656 135.392C208.192 136.424 209.944 137.192 211.864 137.696C212.152 137.12 212.8 136.256 213.256 135.824C211.48 135.44 209.824 134.84 208.408 134.024C209.512 132.968 210.424 131.696 211.072 130.184H212.728ZM228.912 131.576L229.296 131.48C229.2 130.928 228.84 130.112 228.48 129.464H233.496C233.232 130.136 232.872 130.976 232.536 131.576H228.912ZM232.68 140.648H229.44V139.064H232.68V140.648ZM226.464 129.632C226.824 130.208 227.088 130.976 227.256 131.576H224.208V143.864H226.224V133.328H230.184V134.792H226.968V136.232H230.184V137.744H227.856V142.808H229.44V141.992H234.288V137.744H231.84V136.232H235.104V134.792H231.84V133.328H235.968V141.8C235.968 142.064 235.872 142.16 235.584 142.184C235.296 142.184 234.408 142.184 233.472 142.136C233.712 142.64 234 143.456 234.096 144.008C235.488 144.008 236.472 143.984 237.168 143.648C237.84 143.336 238.008 142.808 238.008 141.824V131.576H234.648C234.984 130.976 235.344 130.256 235.704 129.536L235.416 129.464H238.728V127.712H232.176C231.816 127.04 231.312 126.248 230.808 125.648L229.056 126.344C229.368 126.752 229.68 127.232 229.92 127.712H223.44V129.464H227.136L226.464 129.632ZM221.976 129.752C221.592 128.744 220.872 127.136 220.32 125.912L218.4 126.536C218.904 127.808 219.624 129.488 219.984 130.544L221.976 129.752ZM222.264 136.808L221.904 136.88H220.584C221.232 135.224 221.952 133.256 222.504 131.552H217.152V133.568H219.72C219.072 135.464 218.328 137.384 217.704 138.8H220.824C220.488 140.36 220.008 142.04 219.408 143.312C218.592 143.768 217.656 144.752 216.744 145.952L218.256 148.016C218.928 146.552 219.744 145.016 220.272 145.016C220.8 145.016 221.664 145.832 222.624 146.384C224.376 147.392 226.44 147.656 229.608 147.656C232.392 147.656 236.784 147.512 238.632 147.392C238.68 146.792 239.04 145.688 239.304 145.088C236.64 145.424 232.608 145.64 229.704 145.64C226.872 145.64 224.688 145.496 223.008 144.488C222.288 144.032 221.784 143.672 221.352 143.408C222.168 141.608 222.816 139.304 223.224 137.144L222.264 136.808ZM246.2 142.424H251.48V140.672H246.2V142.424ZM249.536 131.504H248.144V128.72H249.536V131.504ZM252.344 137.12C252.296 137.144 252.2 137.168 252.008 137.168H251.264C251 137.168 250.952 137.12 250.952 136.784V133.376H252.344V137.12ZM245.336 144.44V138.752C245.648 138.92 246.104 139.352 246.32 139.592C247.856 138.368 248.216 136.592 248.216 135.152V133.376H249.632V136.808C249.632 138.224 249.968 138.56 251.096 138.56H252.248H252.344V144.44H245.336ZM246.872 133.376V135.128C246.872 136.232 246.656 137.6 245.336 138.68V133.376H246.872ZM243.2 128.72H246.392V131.504H243.584V147.848H245.336V146.192H252.344V147.512H254.168V131.504H251.312V128.72H254.504V126.848H243.2V128.72ZM258.776 145.568C257.792 145.568 257.624 145.4 257.624 144.488V136.736H264.248V126.968H255.344V129.104H262.088V134.6H255.416V144.512C255.416 146.984 256.136 147.632 258.464 147.632H262.064C264.296 147.632 264.872 146.504 265.136 142.568C264.536 142.424 263.624 142.04 263.12 141.656C263 144.968 262.832 145.568 261.872 145.568H258.776Z" fill="#413D46"/>
<path d="M116.08 61.968H131.848V64.728H134.104V59.952H125.68C125.32 59.208 124.792 58.32 124.384 57.648L122.176 58.176C122.464 58.728 122.8 59.352 123.112 59.952H113.896V64.728H116.08V61.968ZM119.392 72.528C121.024 71.976 122.56 71.328 124 70.56C125.536 71.352 127.168 72 128.968 72.528H119.392ZM119.632 77.256V74.376H128.44V77.256H119.632ZM120.928 65.592H127.36C126.472 66.552 125.344 67.392 124.048 68.184C122.752 67.44 121.648 66.624 120.784 65.712L120.928 65.592ZM129.232 63.768L128.872 63.864H122.536C122.872 63.456 123.208 63.072 123.496 62.64L121.12 62.184C119.92 63.984 117.64 65.976 114.352 67.32C114.832 67.68 115.528 68.472 115.816 68.976C117.088 68.376 118.216 67.704 119.2 66.984C120.016 67.824 120.928 68.592 121.912 69.288C119.176 70.584 115.984 71.472 112.912 71.976C113.296 72.48 113.776 73.368 113.968 73.944C115.12 73.728 116.296 73.464 117.448 73.128V79.872H119.632V79.104H128.44V79.824H130.744V72.984C131.704 73.224 132.688 73.416 133.696 73.56C134.008 72.936 134.656 71.952 135.136 71.424C131.872 71.04 128.824 70.32 126.208 69.24C128.056 67.968 129.64 66.456 130.768 64.704L129.232 63.768ZM159.48 58.08H157.464V67.752C157.464 68.064 157.368 68.16 157.008 68.16C156.672 68.184 155.52 68.184 154.32 68.136C154.584 68.64 154.896 69.408 154.992 69.936C156.672 69.936 157.8 69.912 158.52 69.6C159.264 69.336 159.48 68.832 159.48 67.776V58.08ZM154.92 59.064H152.904V66.912H154.92V59.064ZM141.096 62.232C141.336 61.872 141.624 61.464 141.888 61.008H144.504V62.232H141.096ZM158.016 72.576C157.008 73.296 155.448 74.28 154.08 74.952C153.264 74.28 152.592 73.464 152.04 72.576H160.632V70.8H151.704C151.44 70.152 151.056 69.432 150.696 68.832L150.288 68.952C150.648 68.688 150.744 68.352 150.744 67.68V64.848H146.424V63.792H151.248V62.232H146.424V61.008H150.504V59.496H146.424V57.864H144.504V59.496H142.656C142.8 59.112 142.944 58.728 143.088 58.344L141.384 57.912C140.976 59.208 140.304 60.528 139.488 61.488C139.848 61.632 140.496 61.968 140.88 62.232H139.296V63.792H144.504V64.848H140.4V69.432H142.152V66.288H144.504V70.032H146.424V66.288H148.92V67.704C148.92 67.896 148.872 67.944 148.656 67.968C148.464 67.968 147.888 67.968 147.192 67.944C147.408 68.328 147.672 68.856 147.768 69.312C148.272 69.312 148.68 69.312 149.064 69.288L148.608 69.408C148.848 69.84 149.088 70.32 149.28 70.8H139.392V72.576H147.192C144.984 73.8 141.864 74.76 138.984 75.216C139.392 75.6 139.92 76.368 140.184 76.824C141.48 76.584 142.824 76.224 144.12 75.744V76.416C144.12 77.568 143.496 78.096 143.088 78.36C143.328 78.672 143.664 79.344 143.808 79.824V79.992C144.288 79.68 145.056 79.464 151.08 78.048C151.056 77.664 151.104 76.896 151.176 76.392L146.16 77.448V74.952C147.624 74.304 148.944 73.536 150.024 72.72C151.824 76.416 154.968 78.672 159.768 79.608C160.056 79.056 160.56 78.24 161.016 77.832C158.904 77.496 157.08 76.872 155.568 76.008C156.912 75.408 158.4 74.568 159.624 73.728L158.016 72.576ZM183.584 57.744C179.408 58.632 172.16 59.232 165.992 59.472C166.208 59.952 166.448 60.816 166.472 61.368C172.712 61.152 180.104 60.576 185.144 59.568L183.584 57.744ZM167.84 66.672H184.088V69.672H186.272V64.704H182.504C183.176 63.744 183.872 62.544 184.496 61.464L182.168 60.84C181.712 62.016 180.944 63.576 180.248 64.704H175.472L177.488 64.2C177.344 63.312 176.816 61.944 176.288 60.888L174.296 61.32C174.8 62.4 175.256 63.816 175.376 64.704H170.192L171.488 64.296C171.224 63.48 170.6 62.208 169.952 61.296L168.008 61.848C168.536 62.712 169.088 63.864 169.376 64.704H165.752V69.672H167.84V66.672ZM180.032 71.04C179.024 72.48 177.68 73.632 176.048 74.568C174.32 73.608 172.904 72.432 171.848 71.04H180.032ZM181.88 68.904L181.472 68.976H168.872V71.04H169.904L169.472 71.232C170.624 72.96 172.088 74.448 173.84 75.648C171.32 76.704 168.392 77.376 165.224 77.76C165.704 78.24 166.304 79.2 166.52 79.776C169.928 79.224 173.192 78.36 176 76.968C178.664 78.336 181.808 79.248 185.36 79.752C185.672 79.104 186.248 78.144 186.728 77.64C183.56 77.304 180.728 76.632 178.28 75.648C180.44 74.16 182.24 72.264 183.392 69.816L181.88 68.904ZM199.384 65.184H202.576V67.752H199.384V65.184ZM199.384 69.552H202.576V72.12H199.384V69.552ZM199.384 60.816H202.576V63.336H199.384V60.816ZM197.488 58.872V74.088H204.544V58.872H197.488ZM201.616 75.264C202.552 76.44 203.68 78.072 204.16 79.08L205.96 77.976C205.408 77.016 204.232 75.432 203.32 74.328L201.616 75.264ZM198.328 74.448C197.68 76.056 196.504 77.688 195.304 78.768C195.784 79.056 196.648 79.608 197.056 79.968C198.28 78.768 199.576 76.848 200.368 75L198.328 74.448ZM210.112 57.864V77.256C210.112 77.64 209.968 77.76 209.608 77.76C209.224 77.784 208 77.784 206.656 77.736C206.944 78.36 207.256 79.296 207.304 79.872C209.224 79.872 210.424 79.8 211.144 79.464C211.888 79.104 212.152 78.48 212.152 77.232V57.864H210.112ZM206.08 60.312V73.968H208.024V60.312H206.08ZM191.92 59.688C193.216 60.36 194.872 61.44 195.616 62.208L196.96 60.432C196.144 59.64 194.488 58.68 193.168 58.104L191.92 59.688ZM190.912 66.072C192.28 66.672 193.96 67.68 194.752 68.4L196.048 66.6C195.232 65.856 193.528 64.968 192.16 64.44L190.912 66.072ZM191.368 78.432L193.384 79.584C194.392 77.352 195.52 74.52 196.408 72L194.584 70.824C193.624 73.56 192.328 76.584 191.368 78.432ZM226.584 71.856C226.32 70.584 225.672 68.496 225.024 66.888L223.344 67.392C223.584 68.016 223.824 68.736 224.016 69.432L220.464 69.888C222.408 67.776 224.328 65.16 225.888 62.544L223.992 61.392C223.464 62.448 222.84 63.504 222.192 64.464L219.864 64.656C221.184 62.928 222.504 60.72 223.536 58.584L221.544 57.744C220.536 60.336 218.832 63.048 218.328 63.72C217.8 64.44 217.392 64.92 216.936 65.016C217.176 65.568 217.488 66.552 217.608 66.96C217.968 66.792 218.496 66.672 220.848 66.408C220.032 67.536 219.336 68.424 218.952 68.808C218.184 69.648 217.608 70.224 217.08 70.368C217.32 70.92 217.656 71.976 217.776 72.408C218.28 72.12 219.12 71.928 224.496 71.136C224.64 71.64 224.736 72.096 224.808 72.48L226.584 71.856ZM218.04 73.296C217.848 75.24 217.512 77.352 216.984 78.792C217.44 78.936 218.352 79.224 218.76 79.44C219.288 77.952 219.696 75.696 219.888 73.632L218.04 73.296ZM220.92 73.56C221.208 75.192 221.472 77.352 221.52 78.744L223.344 78.36C223.248 76.944 222.96 74.856 222.672 73.224L220.92 73.56ZM223.632 73.08C224.04 74.352 224.544 76.032 224.736 77.112L226.464 76.512C226.248 75.432 225.744 73.824 225.264 72.576L223.632 73.08ZM229.632 73.2H235.296V77.424H229.632V73.2ZM235.296 61.104V65.112H229.632V61.104H235.296ZM235.296 71.208H229.632V67.104H235.296V71.208ZM237.432 77.424V59.064H227.592V77.424H225.6V79.44H238.992V77.424H237.432ZM259.328 72.144V76.584H248.936V72.144H259.328ZM246.68 79.848H248.936V78.648H259.328V79.752H261.68V70.152H246.68V79.848ZM249.392 65.592C251.12 64.392 252.752 63 254.144 61.464C255.848 63.144 257.504 64.464 259.256 65.592H249.392ZM254.312 57.792C251.864 61.488 247.424 64.536 242.96 66.288C243.584 66.84 244.208 67.68 244.592 68.28C245.768 67.776 246.92 67.128 248.048 66.456V67.656H260V66.072C261.2 66.792 262.424 67.416 263.696 68.04C264.008 67.32 264.656 66.504 265.256 66C261.704 64.584 258.44 62.76 255.512 59.88C255.8 59.52 256.04 59.16 256.28 58.8L254.312 57.792Z" fill="#413D46"/>
</svg>
