<svg width="124" height="68" viewBox="0 0 124 68" fill="none" xmlns="http://www.w3.org/2000/svg">
<path fill-rule="evenodd" clip-rule="evenodd" d="M42.7858 61.8177C42.4614 61.9699 42.1038 62.0461 41.7132 62.0461C41.2034 62.0461 40.7465 61.9335 40.3426 61.7084C39.9387 61.4833 39.6226 61.1671 39.3942 60.7599C39.1657 60.3527 39.0515 59.8843 39.0515 59.3546C39.0515 58.8249 39.1657 58.3581 39.3942 57.9542C39.6226 57.5503 39.9387 57.2358 40.3426 57.0107C40.7465 56.7856 41.2034 56.673 41.7132 56.673C42.0906 56.673 42.4382 56.7442 42.756 56.8866C43.0738 57.0289 43.3387 57.2392 43.5506 57.5172V54.6172H44.504V61.9865H43.5903V61.1522C43.3784 61.4436 43.1103 61.6654 42.7858 61.8177ZM2.03614 61.9865V59.881H3.75432C4.65479 59.881 5.36325 59.6658 5.8797 59.2354C6.39614 58.805 6.65437 58.2125 6.65437 57.4576C6.65437 56.7028 6.39614 56.1102 5.8797 55.6799C5.36325 55.2495 4.65479 55.0343 3.75432 55.0343H1.04297V61.9865H2.03614ZM3.72452 59.0169H2.03614V55.8984H3.72452C4.35353 55.8984 4.83356 56.0325 5.16462 56.3006C5.49567 56.5688 5.6612 56.9544 5.6612 57.4576C5.6612 57.9609 5.49567 58.3465 5.16462 58.6147C4.83356 58.8828 4.35353 59.0169 3.72452 59.0169ZM11.7344 61.6985C11.3206 61.9302 10.8522 62.0461 10.3291 62.0461C9.80602 62.0461 9.33592 61.9302 8.91879 61.6985C8.50166 61.4667 8.17557 61.1473 7.94052 60.7401C7.70547 60.3329 7.58795 59.871 7.58795 59.3546C7.58795 58.8382 7.70547 58.3763 7.94052 57.9691C8.17557 57.5619 8.50166 57.2441 8.91879 57.0157C9.33592 56.7873 9.80602 56.673 10.3291 56.673C10.8522 56.673 11.3206 56.7873 11.7344 57.0157C12.1482 57.2441 12.4727 57.5619 12.7077 57.9691C12.9428 58.3763 13.0603 58.8382 13.0603 59.3546C13.0603 59.871 12.9428 60.3329 12.7077 60.7401C12.4727 61.1473 12.1482 61.4667 11.7344 61.6985ZM10.3291 61.2118C9.99141 61.2118 9.6885 61.134 9.42034 60.9784C9.15219 60.8228 8.94031 60.6043 8.78471 60.3229C8.62912 60.0415 8.55132 59.7188 8.55132 59.3546C8.55132 58.9904 8.62912 58.6677 8.78471 58.3863C8.94031 58.1049 9.15219 57.888 9.42034 57.7357C9.6885 57.5834 9.99141 57.5073 10.3291 57.5073C10.6668 57.5073 10.9697 57.5834 11.2378 57.7357C11.506 57.888 11.7162 58.1049 11.8685 58.3863C12.0208 58.6677 12.0969 58.9904 12.0969 59.3546C12.0969 59.7188 12.0208 60.0415 11.8685 60.3229C11.7162 60.6043 11.506 60.8228 11.2378 60.9784C10.9697 61.134 10.6668 61.2118 10.3291 61.2118ZM17.9467 57.994L16.4073 61.9865H15.4936L13.537 56.7227H14.4408L15.9703 60.9139L17.5594 56.7227H18.3638L19.9231 60.9337L21.4923 56.7227H22.3464L20.3799 61.9865H19.4662L17.9467 57.994ZM25.6537 62.0461C26.0907 62.0461 26.4863 61.9733 26.8405 61.8276C27.1947 61.6819 27.491 61.47 27.7294 61.192L27.203 60.5762C26.819 60.9999 26.3125 61.2118 25.6835 61.2118C25.167 61.2118 24.735 61.0711 24.3874 60.7897C24.0398 60.5083 23.8362 60.1359 23.7766 59.6724H28.0472C28.0604 59.5532 28.0671 59.4572 28.0671 59.3844C28.0671 58.8547 27.9562 58.3846 27.7344 57.9741C27.5126 57.5636 27.2047 57.2441 26.8107 57.0157C26.4168 56.7873 25.9682 56.673 25.465 56.673C24.9618 56.673 24.5099 56.7873 24.1093 57.0157C23.7087 57.2441 23.3942 57.5636 23.1658 57.9741C22.9374 58.3846 22.8231 58.8448 22.8231 59.3546C22.8231 59.871 22.9407 60.3345 23.1757 60.745C23.4108 61.1555 23.7435 61.475 24.1739 61.7034C24.6042 61.9319 25.0975 62.0461 25.6537 62.0461ZM23.7766 58.9871H27.1534C27.1004 58.5435 26.92 58.181 26.6121 57.8996C26.3042 57.6182 25.9218 57.4775 25.465 57.4775C25.0081 57.4775 24.6257 57.6166 24.3179 57.8946C24.01 58.1727 23.8296 58.5369 23.7766 58.9871ZM30.3414 61.9865V59.3645C30.3414 58.7951 30.4887 58.3565 30.7834 58.0486C31.078 57.7407 31.4836 57.5868 32 57.5868C32.0927 57.5868 32.1655 57.5901 32.2185 57.5967V56.673C31.755 56.673 31.3611 56.7525 31.0366 56.9114C30.7122 57.0703 30.4672 57.3021 30.3017 57.6066V56.7227H29.388V61.9865H30.3414ZM36.9907 61.8276C36.6365 61.9733 36.2408 62.0461 35.8038 62.0461C35.2477 62.0461 34.7544 61.9319 34.324 61.7034C33.8937 61.475 33.5609 61.1555 33.3259 60.745C33.0908 60.3345 32.9733 59.871 32.9733 59.3546C32.9733 58.8448 33.0875 58.3846 33.316 57.9741C33.5444 57.5636 33.8589 57.2441 34.2595 57.0157C34.66 56.7873 35.1119 56.673 35.6151 56.673C36.1184 56.673 36.5669 56.7873 36.9609 57.0157C37.3548 57.2441 37.6627 57.5636 37.8845 57.9741C38.1063 58.3846 38.2172 58.8547 38.2172 59.3844C38.2172 59.4572 38.2106 59.5532 38.1974 59.6724H33.9268C33.9864 60.1359 34.1899 60.5083 34.5376 60.7897C34.8852 61.0711 35.3172 61.2118 35.8336 61.2118C36.4627 61.2118 36.9692 60.9999 37.3532 60.5762L37.8796 61.192C37.6412 61.47 37.3449 61.6819 36.9907 61.8276ZM37.3035 58.9871H33.9268C33.9797 58.5369 34.1602 58.1727 34.468 57.8946C34.7759 57.6166 35.1583 57.4775 35.6151 57.4775C36.072 57.4775 36.4544 57.6182 36.7623 57.8996C37.0701 58.181 37.2506 58.5435 37.3035 58.9871ZM41.7927 61.2118C41.455 61.2118 41.1521 61.134 40.8839 60.9784C40.6157 60.8228 40.4039 60.6043 40.2483 60.3229C40.0927 60.0415 40.0149 59.7188 40.0149 59.3546C40.0149 58.9904 40.0927 58.6677 40.2483 58.3863C40.4039 58.1049 40.6157 57.888 40.8839 57.7357C41.1521 57.5834 41.455 57.5073 41.7927 57.5073C42.1237 57.5073 42.425 57.5834 42.6964 57.7357C42.9679 57.888 43.1798 58.1049 43.3321 58.3863C43.4843 58.6677 43.5605 58.9904 43.5605 59.3546C43.5605 59.7188 43.4843 60.0415 43.3321 60.3229C43.1798 60.6043 42.9679 60.8228 42.6964 60.9784C42.425 61.134 42.1237 61.2118 41.7927 61.2118ZM53.1446 61.7084C52.7407 61.9335 52.2838 62.0461 51.774 62.0461C51.3833 62.0461 51.0258 61.9699 50.7014 61.8177C50.3769 61.6654 50.1088 61.4436 49.8969 61.1522V61.9865H48.9832V54.6172H49.9366V57.5172C50.1485 57.2392 50.4133 57.0289 50.7312 56.8866C51.049 56.7442 51.3966 56.673 51.774 56.673C52.2838 56.673 52.7407 56.7856 53.1446 57.0107C53.5485 57.2358 53.8646 57.5503 54.093 57.9542C54.3215 58.3581 54.4357 58.8249 54.4357 59.3546C54.4357 59.8843 54.3215 60.3527 54.093 60.7599C53.8646 61.1671 53.5485 61.4833 53.1446 61.7084ZM51.6945 61.2118C51.3635 61.2118 51.0622 61.134 50.7908 60.9784C50.5193 60.8228 50.3074 60.6043 50.1551 60.3229C50.0028 60.0415 49.9267 59.7188 49.9267 59.3546C49.9267 58.9904 50.0028 58.6677 50.1551 58.3863C50.3074 58.1049 50.5193 57.888 50.7908 57.7357C51.0622 57.5834 51.3635 57.5073 51.6945 57.5073C52.0322 57.5073 52.3351 57.5834 52.6033 57.7357C52.8714 57.888 53.0833 58.1049 53.2389 58.3863C53.3945 58.6677 53.4723 58.9904 53.4723 59.3546C53.4723 59.7188 53.3945 60.0415 53.2389 60.3229C53.0833 60.6043 52.8714 60.8228 52.6033 60.9784C52.3351 61.134 52.0322 61.2118 51.6945 61.2118ZM57.0725 63.6451C56.7713 63.8636 56.4088 63.9728 55.985 63.9728C55.7268 63.9728 55.4769 63.9314 55.2352 63.8487C54.9935 63.7659 54.7932 63.6451 54.6343 63.4862L55.0415 62.7711C55.313 63.0293 55.6275 63.1584 55.985 63.1584C56.2168 63.1584 56.4104 63.0972 56.566 62.9747C56.7216 62.8522 56.8623 62.642 56.9881 62.344L57.157 61.9766L54.833 56.7227H55.8261L57.6635 60.9337L59.481 56.7227H60.4146L57.8621 62.5129C57.637 63.0492 57.3738 63.4266 57.0725 63.6451Z" fill="white"/>
<path fill-rule="evenodd" clip-rule="evenodd" d="M71.7228 53.4349C72.0405 52.3436 72.7308 51.4375 73.6305 50.8355C72.9324 50.4297 72.1265 50.1953 71.2707 50.1953H64.2553C64.0914 50.1953 63.97 50.3475 64.0065 50.5075L64.0313 50.6162C64.5244 52.7752 66.4448 54.3063 68.6592 54.3063H71.493C71.493 54.3063 71.7115 53.4736 71.7228 53.4349ZM84.1596 50.1953H76.4504C74.3512 50.1953 72.5136 51.5848 71.9298 53.591C71.925 53.6072 71.9198 53.6231 71.9146 53.639L71.9146 53.639L71.9146 53.639L71.9146 53.639C71.9074 53.6611 71.9002 53.6832 71.8943 53.7058L71.7362 54.305L70.9723 57.6218C71.5766 55.6587 73.3901 54.305 75.4591 54.305H78.0449H79.7508C81.9323 54.305 83.8351 52.8228 84.3692 50.7077L84.4156 50.5239C84.4576 50.3573 84.3315 50.1953 84.1596 50.1953ZM91.0824 54.9564H88.3339L88.593 53.0786H96.2131L95.9549 54.9564H93.2053L92.1058 62.7867H89.9828L91.0824 54.9564ZM105.214 53.0786L103.846 62.7867H101.934L103.036 54.9713C103.189 53.8858 104.118 53.0786 105.214 53.0786ZM105.976 58.1274H107.215L106.565 62.7867H108.446L109.095 58.1274H110.485L110.71 56.5721H109.319L109.445 55.6593C109.504 55.2585 109.606 54.9701 109.773 54.8403C109.94 54.7112 110.069 54.6694 110.485 54.6694H110.97L111.192 53.0786H110.256C109.746 53.0786 109.369 53.1555 109.039 53.285C108.708 53.4148 108.443 53.592 108.243 53.8175C108.042 54.0431 107.894 54.3042 107.799 54.6005C107.702 54.8973 107.629 55.2126 107.579 55.5465L107.44 56.5721H106.2L105.976 58.1274ZM112.164 56.572H114.043L113.169 62.7866H111.29L112.164 56.572ZM112.505 53.7426C112.43 53.8761 112.379 54.0181 112.354 54.1685C112.337 54.319 112.348 54.461 112.386 54.5945C112.423 54.7283 112.484 54.8431 112.568 54.9391C112.651 55.0353 112.755 55.1123 112.881 55.1709C113.006 55.2294 113.144 55.2585 113.294 55.2585C113.445 55.2585 113.59 55.2294 113.733 55.1709C113.875 55.1123 114.002 55.0353 114.114 54.9391C114.228 54.8431 114.321 54.7283 114.397 54.5945C114.471 54.461 114.517 54.319 114.535 54.1685C114.576 53.8677 114.507 53.6111 114.327 53.398C114.148 53.1847 113.908 53.0786 113.608 53.0786C113.457 53.0786 113.311 53.1079 113.169 53.1662C113.026 53.2247 112.899 53.3022 112.787 53.398C112.674 53.494 112.58 53.6089 112.505 53.7426ZM115.496 56.572H117.3L117.174 57.4508H117.199C117.274 57.3342 117.374 57.2171 117.5 57.1002C117.625 56.9831 117.767 56.8789 117.926 56.7868C118.084 56.6951 118.265 56.6198 118.464 56.5613C118.665 56.5031 118.878 56.4737 119.104 56.4737C119.58 56.4737 119.955 56.547 120.231 56.6928C120.507 56.8391 120.708 57.0417 120.833 57.3004C120.957 57.5595 121.025 57.8643 121.033 58.2149C121.041 58.566 121.016 58.9461 120.957 59.3552L120.484 62.7866H118.605L119.028 59.7312C119.054 59.5558 119.074 59.3742 119.092 59.1863C119.108 58.9982 119.095 58.8249 119.054 58.6663C119.012 58.5076 118.932 58.3779 118.815 58.2778C118.698 58.1775 118.518 58.1273 118.277 58.1273C118.034 58.1273 117.832 58.1712 117.669 58.2588C117.506 58.3468 117.374 58.4639 117.274 58.6099C117.174 58.756 117.099 58.9213 117.049 59.1047C116.998 59.2883 116.962 59.4807 116.936 59.6809L116.498 62.7866H114.619L115.496 56.572ZM97.3913 61.4967C97.8306 61.4967 98.206 61.3445 98.5176 61.0397C98.6397 60.9203 98.7429 60.7831 98.8288 60.6294C98.9617 60.3906 99.0516 60.1109 99.0969 59.789C99.1383 59.4944 99.1244 59.2315 99.0579 58.9993C99.013 58.843 98.9447 58.7002 98.851 58.572C98.6179 58.254 98.284 58.0946 97.8491 58.0946C97.4144 58.0946 97.0386 58.2493 96.7217 58.5586C96.4046 58.8678 96.2105 59.278 96.1387 59.789C96.0667 60.3 96.1476 60.7123 96.3816 61.0263C96.6153 61.34 96.9519 61.4967 97.3913 61.4967ZM99.4259 57.3145L99.5293 56.5802H101.428L100.556 62.7866H98.6569L98.7509 62.1172C98.2657 62.6025 97.6112 62.8448 96.7886 62.8448C95.964 62.8448 95.3507 62.5269 94.9484 61.8912C94.5461 61.2555 94.405 60.5107 94.525 59.6563C94.645 58.8021 94.998 58.0746 95.5841 57.4737C96.1701 56.8725 96.8553 56.572 97.6405 56.572C98.4733 56.572 99.0682 56.8196 99.4259 57.3145ZM70.7765 58.4765C71.3863 56.3191 73.2909 54.6547 75.3693 54.6447H75.8805L74.1691 62.0391C73.6755 64.1977 71.7551 65.7284 69.5404 65.728L69.4288 65.7278C69.2649 65.7278 69.1436 65.5756 69.1801 65.4156L70.7765 58.4765ZM122.28 62.0254H122.175V61.8053H122.28C122.294 61.8053 122.308 61.8056 122.322 61.806C122.33 61.8063 122.339 61.8067 122.347 61.8071C122.369 61.8085 122.389 61.8126 122.407 61.82C122.425 61.8274 122.439 61.8385 122.45 61.8533C122.462 61.8682 122.467 61.8885 122.467 61.9144C122.467 61.9402 122.462 61.9607 122.45 61.9755C122.439 61.9903 122.425 62.0014 122.407 62.0089C122.389 62.0163 122.369 62.021 122.347 62.0227C122.324 62.0245 122.302 62.0254 122.28 62.0254ZM122.334 61.683H122.03V62.4697H122.175V62.1478H122.28L122.476 62.4697H122.628L122.424 62.1365C122.478 62.1304 122.523 62.1101 122.558 62.0754C122.594 62.0409 122.611 61.989 122.611 61.9201C122.611 61.8434 122.589 61.7849 122.544 61.7443C122.499 61.7035 122.429 61.683 122.334 61.683ZM121.773 62.3013C121.743 62.2323 121.728 62.1589 121.728 62.081C121.728 62.0034 121.743 61.9298 121.773 61.8608C121.802 61.7917 121.843 61.7314 121.894 61.6803C121.945 61.6291 122.005 61.5888 122.074 61.5589C122.144 61.5294 122.217 61.5146 122.295 61.5146C122.373 61.5146 122.446 61.5294 122.515 61.5589C122.584 61.5888 122.644 61.6291 122.696 61.6803C122.747 61.7314 122.787 61.7917 122.817 61.8608C122.846 61.9298 122.861 62.0034 122.861 62.081C122.861 62.1589 122.846 62.2323 122.817 62.3013C122.787 62.3706 122.747 62.4305 122.696 62.4818C122.644 62.5331 122.584 62.5735 122.515 62.603C122.446 62.6327 122.373 62.6475 122.295 62.6475C122.217 62.6475 122.144 62.6327 122.074 62.603C122.005 62.5735 121.945 62.5331 121.894 62.4818C121.843 62.4305 121.802 62.3706 121.773 62.3013ZM121.661 61.8135C121.625 61.8969 121.606 61.986 121.606 62.081C121.606 62.1759 121.625 62.2652 121.661 62.3484C121.697 62.4319 121.747 62.5047 121.809 62.5669C121.871 62.6293 121.944 62.6787 122.027 62.715C122.111 62.7515 122.2 62.7696 122.295 62.7696C122.39 62.7696 122.479 62.7515 122.562 62.715C122.646 62.6787 122.718 62.6293 122.781 62.5669C122.843 62.5047 122.892 62.4319 122.929 62.3484C122.965 62.2652 122.984 62.1759 122.984 62.081C122.984 61.986 122.965 61.8969 122.929 61.8135C122.892 61.73 122.843 61.6574 122.781 61.5952C122.718 61.5328 122.646 61.4836 122.562 61.4469C122.479 61.4106 122.39 61.3925 122.295 61.3925C122.2 61.3925 122.111 61.4106 122.027 61.4469C121.944 61.4836 121.871 61.5328 121.809 61.5952C121.747 61.6574 121.697 61.73 121.661 61.8135Z" fill="white"/>
<path fill-rule="evenodd" clip-rule="evenodd" d="M86.944 16V42.28H81.544V16H86.944ZM6.76 42.28V17.08H1V42.28H6.76ZM19.3 42.28V32.452C19.3 29.896 20.668 28.744 22.648 28.744C24.376 28.744 25.78 29.788 25.78 32.02V42.28H31.18V31.228C31.18 26.368 28.084 23.776 24.448 23.776C22.072 23.776 20.272 24.64 19.3 25.972V24.28H13.9V42.28H19.3ZM51.856 36.88C51.856 41.02 48.256 42.784 44.368 42.784C40.768 42.784 38.032 41.416 36.628 38.5L41.308 35.836C41.776 37.204 42.784 37.96 44.368 37.96C45.664 37.96 46.312 37.564 46.312 36.844C46.312 36.1301 45.1608 35.8093 43.6884 35.3991C41.0772 34.6715 37.456 33.6625 37.456 29.68C37.456 25.756 40.768 23.776 44.512 23.776C47.428 23.776 50.02 25.072 51.532 27.628L46.924 30.112C46.42 29.176 45.7 28.528 44.512 28.528C43.576 28.528 43 28.888 43 29.536C43 30.2684 44.1283 30.5652 45.5795 30.9468C48.1939 31.6342 51.856 32.5972 51.856 36.88ZM64.036 42.784C66.412 42.784 68.212 41.92 69.184 40.588V42.28H74.584V24.28H69.184V34.108C69.184 36.664 67.816 37.816 65.836 37.816C64.108 37.816 62.704 36.772 62.704 34.54V24.28H57.304V35.332C57.304 40.192 60.4 42.784 64.036 42.784ZM101.608 42.784C104.02 42.784 105.784 41.956 106.972 40.588V42.28H112.372V24.28H106.972V25.972C105.784 24.604 104.02 23.776 101.608 23.776C96.892 23.776 93.004 27.916 93.004 33.28C93.004 38.644 96.892 42.784 101.608 42.784ZM98.404 33.28C98.404 35.98 100.204 37.672 102.688 37.672C105.172 37.672 106.972 35.98 106.972 33.28C106.972 30.58 105.172 28.888 102.688 28.888C100.204 28.888 98.404 30.58 98.404 33.28Z" fill="white"/>
</svg>
