<?xml version="1.0" encoding="utf-8"?>
<!-- Generator: Adobe Illustrator 25.2.3, SVG Export Plug-In . SVG Version: 6.00 Build 0)  -->
<svg version="1.1" id="Layer_1" xmlns="http://www.w3.org/2000/svg" xmlns:xlink="http://www.w3.org/1999/xlink" x="0px" y="0px"
	 viewBox="0 0 124 68" style="enable-background:new 0 0 124 68;" xml:space="preserve">
<style type="text/css">
	.st0{fill:none;}
	.st1{enable-background:new    ;}
	.st2{fill:#413D46;}
	.st3{fill-rule:evenodd;clip-rule:evenodd;fill:#413D46;}
</style>
<g id="logo_Insula_cn">
	<g>
		<rect id="Rectangle" y="0" class="st0" width="124" height="68"/>
		<g id="Group-5" transform="translate(0.000000, 16.000000)">
			<g id="powered-by-Talfin" transform="translate(0.000000, 34.000000)">
				<g class="st1">
					<path class="st2" d="M5.9,5.7c0.5,0.4,0.8,1,0.8,1.8c0,0.8-0.3,1.3-0.8,1.8C5.4,9.7,4.7,9.9,3.8,9.9H2V12H1V5h2.7
						C4.7,5,5.4,5.2,5.9,5.7z M5.2,8.6C5.5,8.3,5.7,8,5.7,7.5c0-0.5-0.2-0.9-0.5-1.2C4.8,6,4.4,5.9,3.7,5.9H2V9h1.7
						C4.4,9,4.8,8.9,5.2,8.6z"/>
					<path class="st2" d="M8.8,11.7c-0.4-0.2-0.7-0.6-1-1c-0.2-0.4-0.4-0.9-0.4-1.4s0.1-1,0.4-1.4c0.2-0.4,0.6-0.7,1-1
						s0.9-0.3,1.4-0.3s1,0.1,1.4,0.3c0.4,0.2,0.7,0.5,1,1c0.2,0.4,0.4,0.9,0.4,1.4s-0.1,1-0.4,1.4c-0.2,0.4-0.6,0.7-1,1
						c-0.4,0.2-0.9,0.3-1.4,0.3S9.2,11.9,8.8,11.7z M11.1,11c0.3-0.2,0.5-0.4,0.6-0.7c0.2-0.3,0.2-0.6,0.2-1s-0.1-0.7-0.2-1
						c-0.2-0.3-0.4-0.5-0.6-0.7s-0.6-0.2-0.9-0.2c-0.3,0-0.6,0.1-0.9,0.2S8.8,8.1,8.7,8.4C8.5,8.7,8.4,9,8.4,9.4s0.1,0.7,0.2,1
						C8.8,10.6,9,10.8,9.3,11s0.6,0.2,0.9,0.2C10.5,11.2,10.9,11.1,11.1,11z"/>
					<path class="st2" d="M22.1,6.7l-2,5.3h-0.9l-1.5-4l-1.5,4h-0.9l-2-5.3h0.9l1.5,4.2l1.6-4.2h0.8l1.6,4.2l1.6-4.2H22.1z"/>
					<path class="st2" d="M27.6,9.7h-4.3c0.1,0.5,0.3,0.8,0.6,1.1c0.3,0.3,0.8,0.4,1.3,0.4c0.6,0,1.1-0.2,1.5-0.6l0.5,0.6
						c-0.2,0.3-0.5,0.5-0.9,0.6C26.1,12,25.7,12,25.2,12c-0.6,0-1-0.1-1.5-0.3c-0.4-0.2-0.8-0.5-1-1c-0.2-0.4-0.4-0.9-0.4-1.4
						c0-0.5,0.1-1,0.3-1.4c0.2-0.4,0.5-0.7,0.9-1c0.4-0.2,0.9-0.3,1.4-0.3c0.5,0,1,0.1,1.3,0.3c0.4,0.2,0.7,0.5,0.9,1
						c0.2,0.4,0.3,0.9,0.3,1.4C27.6,9.5,27.6,9.6,27.6,9.7z M23.9,7.9c-0.3,0.3-0.5,0.6-0.5,1.1h3.4c-0.1-0.4-0.2-0.8-0.5-1.1
						S25.5,7.5,25,7.5C24.6,7.5,24.2,7.6,23.9,7.9z"/>
					<path class="st2" d="M30.6,6.9c0.3-0.2,0.7-0.2,1.2-0.2v0.9c-0.1,0-0.1,0-0.2,0c-0.5,0-0.9,0.2-1.2,0.5
						c-0.3,0.3-0.4,0.7-0.4,1.3V12h-1V6.7h0.9v0.9C30,7.3,30.3,7.1,30.6,6.9z"/>
					<path class="st2" d="M37.7,9.7h-4.3c0.1,0.5,0.3,0.8,0.6,1.1c0.3,0.3,0.8,0.4,1.3,0.4c0.6,0,1.1-0.2,1.5-0.6l0.5,0.6
						c-0.2,0.3-0.5,0.5-0.9,0.6C36.1,12,35.7,12,35.3,12c-0.6,0-1-0.1-1.5-0.3c-0.4-0.2-0.8-0.5-1-1c-0.2-0.4-0.4-0.9-0.4-1.4
						c0-0.5,0.1-1,0.3-1.4c0.2-0.4,0.5-0.7,0.9-1c0.4-0.2,0.9-0.3,1.4-0.3c0.5,0,1,0.1,1.3,0.3c0.4,0.2,0.7,0.5,0.9,1
						c0.2,0.4,0.3,0.9,0.3,1.4C37.7,9.5,37.7,9.6,37.7,9.7z M33.9,7.9c-0.3,0.3-0.5,0.6-0.5,1.1h3.4c-0.1-0.4-0.2-0.8-0.5-1.1
						s-0.7-0.4-1.1-0.4C34.6,7.5,34.2,7.6,33.9,7.9z"/>
					<path class="st2" d="M44,4.6V12h-0.9v-0.8c-0.2,0.3-0.5,0.5-0.8,0.7S41.6,12,41.2,12c-0.5,0-1-0.1-1.4-0.3
						c-0.4-0.2-0.7-0.5-0.9-0.9s-0.3-0.9-0.3-1.4s0.1-1,0.3-1.4s0.5-0.7,0.9-0.9c0.4-0.2,0.9-0.3,1.4-0.3c0.4,0,0.7,0.1,1,0.2
						s0.6,0.4,0.8,0.6V4.6H44z M42.2,11c0.3-0.2,0.5-0.4,0.6-0.7c0.2-0.3,0.2-0.6,0.2-1s-0.1-0.7-0.2-1c-0.2-0.3-0.4-0.5-0.6-0.7
						s-0.6-0.2-0.9-0.2c-0.3,0-0.6,0.1-0.9,0.2s-0.5,0.4-0.6,0.7c-0.2,0.3-0.2,0.6-0.2,1s0.1,0.7,0.2,1c0.2,0.3,0.4,0.5,0.6,0.7
						s0.6,0.2,0.9,0.2C41.6,11.2,41.9,11.1,42.2,11z"/>
					<path class="st2" d="M52.6,7C53,7.2,53.3,7.5,53.6,8s0.3,0.9,0.3,1.4s-0.1,1-0.3,1.4s-0.5,0.7-0.9,0.9
						c-0.4,0.2-0.9,0.3-1.4,0.3c-0.4,0-0.7-0.1-1.1-0.2c-0.3-0.2-0.6-0.4-0.8-0.7V12h-0.9V4.6h1v2.9c0.2-0.3,0.5-0.5,0.8-0.6
						s0.7-0.2,1-0.2C51.7,6.7,52.2,6.8,52.6,7z M52.1,11c0.3-0.2,0.5-0.4,0.6-0.7c0.2-0.3,0.2-0.6,0.2-1s-0.1-0.7-0.2-1
						c-0.2-0.3-0.4-0.5-0.6-0.7s-0.6-0.2-0.9-0.2c-0.3,0-0.6,0.1-0.9,0.2s-0.5,0.4-0.6,0.7c-0.2,0.3-0.2,0.6-0.2,1s0.1,0.7,0.2,1
						c0.2,0.3,0.4,0.5,0.6,0.7s0.6,0.2,0.9,0.2C51.5,11.2,51.8,11.1,52.1,11z"/>
					<path class="st2" d="M59.7,6.7l-2.6,5.8c-0.2,0.5-0.5,0.9-0.8,1.1c-0.3,0.2-0.7,0.3-1.1,0.3c-0.3,0-0.5,0-0.8-0.1
						s-0.4-0.2-0.6-0.4l0.4-0.7c0.3,0.3,0.6,0.4,0.9,0.4c0.2,0,0.4-0.1,0.6-0.2c0.2-0.1,0.3-0.3,0.4-0.6l0.2-0.4l-2.3-5.3h1l1.8,4.2
						l1.8-4.2H59.7z"/>
				</g>
				<g id="Group-23" transform="translate(64.555920, 0.000000)">
					<path id="Combined-Shape" class="st3" d="M12.2,4.6l-1.8,7.6c-0.5,2.1-2.3,3.7-4.5,3.8l-0.2,0l-0.1,0c-0.1,0-0.3-0.1-0.3-0.3
						l0-0.1l1.6-7.1c0.6-2.1,2.4-3.8,4.5-3.9l0.2,0H12.2z M30.2,7.7l-0.1,0.7c0,0.1,0,0.2,0.2,0.2l0,0h1c0.1,0,0.2,0,0.3-0.1
						c0.1,0,0.2-0.2,0.2-0.5l0,0l0.5,0.2l0.5-0.4c0.4,0.3,0.7,0.7,1,1l0,0l-0.6,0.5C33,9,32.7,8.7,32.4,8.4C32.3,8.7,32.2,8.9,32,9
						c-0.2,0.1-0.4,0.1-0.7,0.1l0,0h-0.9c-0.1,0.1-0.2,0.2-0.3,0.3l0,0h2.6L32.7,10c-0.3,0.4-0.8,0.7-1.3,1c0.7,0.2,1.4,0.4,2.2,0.4
						l0,0l-0.3,0.7c-1.1-0.1-2.1-0.3-2.9-0.7c-0.8,0.3-1.9,0.5-3.1,0.7l0,0l-0.2-0.7c1-0.1,1.8-0.3,2.5-0.5
						c-0.3-0.2-0.5-0.4-0.7-0.6c-0.3,0.2-0.6,0.3-1,0.5l0,0l-0.3-0.7c0.3-0.1,0.6-0.2,0.9-0.4c-0.1-0.1-0.2-0.2-0.3-0.3l0,0l0.6-0.4
						c0.1,0.1,0.2,0.2,0.3,0.3c0.2-0.1,0.4-0.3,0.6-0.5c-0.2-0.1-0.3-0.3-0.3-0.5l0,0l0.1-0.8H30.2z M46.8,10.8c0.1,0,0.2,0,0.3,0.1
						c0.1,0,0.2,0.1,0.2,0.2c0.1,0.1,0.1,0.1,0.2,0.2c0,0.1,0.1,0.2,0.1,0.3c0,0.1,0,0.2-0.1,0.3c0,0.1-0.1,0.2-0.2,0.2
						c-0.1,0.1-0.1,0.1-0.2,0.2c-0.1,0-0.2,0.1-0.3,0.1s-0.2,0-0.3-0.1c-0.1,0-0.2-0.1-0.2-0.2c-0.1-0.1-0.1-0.1-0.2-0.2
						c0-0.1-0.1-0.2-0.1-0.3c0-0.1,0-0.2,0.1-0.3c0-0.1,0.1-0.2,0.2-0.2c0.1-0.1,0.1-0.1,0.2-0.2C46.6,10.8,46.7,10.8,46.8,10.8z
						 M27.6,3.3l0.7,0.4c-0.3,0.7-0.6,1.3-1,2l0,0l-0.9,6.6h-0.9l0.7-5.1c-0.1,0.1-0.1,0.1-0.2,0.2c-0.3,0.4-0.9,0.4-1.2,0.1
						c0.9-0.7,1.8-2.2,2-2.6C27.2,4.3,27.4,3.8,27.6,3.3L27.6,3.3z M41,3.7l-0.1,0.8h-0.5l-1.1,7.7h-0.8l0.3-1.8
						c-0.8,0.3-1.6,0.5-2.4,0.7l-0.1-0.9l0.6-0.1l0.8-5.6h-0.4l0.1-0.8H41z M45.4,8l-0.1,0.8h-3.1l-0.4,0.6h2.9
						c-0.2,1.3-0.5,2.1-0.7,2.3c-0.3,0.2-0.7,0.4-1.3,0.4c-0.4,0-0.8,0-1.1-0.1l-0.2-0.8c0.4,0,0.8,0.1,1.2,0.1
						c0.4,0,0.7-0.1,0.8-0.2c0.1-0.1,0.2-0.5,0.3-1h-3.1l0.7-1.4h-1.2L40.2,8H45.4z M46.8,10.9c-0.1,0-0.2,0-0.2,0
						c-0.1,0-0.1,0.1-0.2,0.1c-0.1,0.1-0.1,0.1-0.1,0.2c0,0.1,0,0.1,0,0.2c0,0.1,0,0.2,0,0.2c0,0.1,0.1,0.1,0.1,0.2
						c0.1,0.1,0.1,0.1,0.2,0.1c0.1,0,0.1,0,0.2,0s0.2,0,0.2,0c0.1,0,0.1-0.1,0.2-0.1c0.1-0.1,0.1-0.1,0.1-0.2c0-0.1,0-0.1,0-0.2
						c0-0.1,0-0.2,0-0.2c0-0.1-0.1-0.1-0.1-0.2C47.1,11.1,47.1,11,47,11C46.9,10.9,46.8,10.9,46.8,10.9z M46.8,11.1
						c0.1,0,0.2,0,0.2,0.1c0,0,0.1,0.1,0.1,0.2c0,0.1,0,0.1-0.1,0.2c0,0-0.1,0.1-0.1,0.1l0.2,0.3h-0.2l-0.2-0.3h-0.1v0.3h-0.1v-0.8
						H46.8z M31.7,10.1h-2.1c0.3,0.2,0.6,0.5,1,0.6C31,10.5,31.4,10.3,31.7,10.1L31.7,10.1z M39,8.5h-1.1l-0.2,1.4
						c0.4-0.1,0.8-0.2,1.2-0.4L39,8.5z M28.9,7.8l0.4,0.4C28.9,8.7,28.5,9,28,9.3l0,0l-0.4-0.6C28.1,8.5,28.5,8.2,28.9,7.8L28.9,7.8
						z M34.4,3.6l-0.1,0.7h-2.6c0,0.1-0.1,0.2-0.1,0.3l0,0h2.2l-0.3,2.3h0.8l-0.2,1.2h-0.8l0.1-0.6h-2.1c0.2,0.2,0.3,0.4,0.5,0.6
						l0,0l-0.6,0.3c-0.1-0.3-0.3-0.5-0.5-0.7l0,0L31,7.5h-2.4l-0.1,0.6h-0.8l0.2-1.2h0.8l0.3-2.3h1.6l0,0l0.1-0.3l0,0l-2.3,0
						l0.1-0.7H34.4z M39.3,6.5h-1.1L38,7.7h1.1L39.3,6.5z M20.6,0c0.2,0,0.3,0.1,0.3,0.3l0,0.1l0,0.2c-0.5,2.1-2.4,3.6-4.5,3.7
						l-0.2,0h-4.4c-2,0-3.8,1.3-4.5,3.2L7.1,7.6l0.8-3.4l0.2-0.6l0-0.1c0.6-2,2.3-3.4,4.4-3.5l0.2,0H20.6z M43.9,3.4l-0.1,0.7h1.8
						l-0.5,3.4h-4.4l0.5-3.4H43c0.1-0.4,0.4-0.7,0.8-0.7H43.9z M32.5,6.6h-3l0,0.3h3L32.5,6.6z M44.5,6.2h-1l-0.1,0.6h1L44.5,6.2z
						 M42.7,6.2h-1l-0.1,0.6h1L42.7,6.2z M32.6,5.9h-3l0,0.3h3L32.6,5.9z M39.6,4.5h-1.1l-0.2,1.2h1.1L39.6,4.5z M44.7,4.8h-1
						l-0.1,0.7h1L44.7,4.8z M42.9,4.8h-1l-0.1,0.7h1L42.9,4.8z M32.7,5.1h-3l0,0.3h3L32.7,5.1z M7.4,0c0.9,0,1.7,0.2,2.4,0.7
						c-0.9,0.6-1.6,1.5-2,2.7c0,0-0.2,0.7-0.2,0.9l0,0H4.8c-2.2,0-4.1-1.5-4.7-3.6L0,0.4l0-0.1C0,0.2,0.1,0,0.2,0l0.1,0H7.4z"/>
				</g>
			</g>
			<g id="logo_Insula">
				<g>
					<path id="path-1" class="st2" d="M6.8,26.3V1.1H1v25.2H6.8z M19.3,26.3v-9.8c0-2.6,1.4-3.7,3.3-3.7c1.7,0,3.1,1,3.1,3.3v10.3
						h5.4V15.2c0-4.9-3.1-7.5-6.7-7.5c-2.4,0-4.2,0.9-5.1,2.2V8.3h-5.4v18H19.3z M44.4,26.8c3.9,0,7.5-1.8,7.5-5.9
						c0-6.7-8.9-5.3-8.9-7.3c0-0.6,0.6-1,1.5-1c1.2,0,1.9,0.6,2.4,1.6l4.6-2.5c-1.5-2.6-4.1-3.9-7-3.9c-3.7,0-7.1,2-7.1,5.9
						c0,6.2,8.9,5.2,8.9,7.2c0,0.7-0.6,1.1-1.9,1.1c-1.6,0-2.6-0.8-3.1-2.1l-4.7,2.7C38,25.4,40.8,26.8,44.4,26.8z M64,26.8
						c2.4,0,4.2-0.9,5.1-2.2v1.7h5.4v-18h-5.4v9.8c0,2.6-1.4,3.7-3.3,3.7c-1.7,0-3.1-1-3.1-3.3V8.3h-5.4v11.1
						C57.3,24.2,60.4,26.8,64,26.8z M86.9,26.3V0h-5.4v26.3H86.9z M101.6,26.8c2.4,0,4.2-0.8,5.4-2.2v1.7h5.4v-18H107V10
						c-1.2-1.4-3-2.2-5.4-2.2c-4.7,0-8.6,4.1-8.6,9.5S96.9,26.8,101.6,26.8z M102.7,21.7c-2.5,0-4.3-1.7-4.3-4.4s1.8-4.4,4.3-4.4
						c2.5,0,4.3,1.7,4.3,4.4S105.2,21.7,102.7,21.7z"/>
				</g>
				<g>
					<path id="path-1_1_" d="M6.8,26.3V1.1H1v25.2H6.8z M19.3,26.3v-9.8c0-2.6,1.4-3.7,3.3-3.7c1.7,0,3.1,1,3.1,3.3v10.3h5.4V15.2
						c0-4.9-3.1-7.5-6.7-7.5c-2.4,0-4.2,0.9-5.1,2.2V8.3h-5.4v18H19.3z M44.4,26.8c3.9,0,7.5-1.8,7.5-5.9c0-6.7-8.9-5.3-8.9-7.3
						c0-0.6,0.6-1,1.5-1c1.2,0,1.9,0.6,2.4,1.6l4.6-2.5c-1.5-2.6-4.1-3.9-7-3.9c-3.7,0-7.1,2-7.1,5.9c0,6.2,8.9,5.2,8.9,7.2
						c0,0.7-0.6,1.1-1.9,1.1c-1.6,0-2.6-0.8-3.1-2.1l-4.7,2.7C38,25.4,40.8,26.8,44.4,26.8z M64,26.8c2.4,0,4.2-0.9,5.1-2.2v1.7h5.4
						v-18h-5.4v9.8c0,2.6-1.4,3.7-3.3,3.7c-1.7,0-3.1-1-3.1-3.3V8.3h-5.4v11.1C57.3,24.2,60.4,26.8,64,26.8z M86.9,26.3V0h-5.4v26.3
						H86.9z M101.6,26.8c2.4,0,4.2-0.8,5.4-2.2v1.7h5.4v-18H107V10c-1.2-1.4-3-2.2-5.4-2.2c-4.7,0-8.6,4.1-8.6,9.5
						S96.9,26.8,101.6,26.8z M102.7,21.7c-2.5,0-4.3-1.7-4.3-4.4s1.8-4.4,4.3-4.4c2.5,0,4.3,1.7,4.3,4.4S105.2,21.7,102.7,21.7z"/>
				</g>
			</g>
		</g>
	</g>
</g>
</svg>
