<?xml version="1.0" encoding="UTF-8"?>
<svg width="124px" height="68px" viewBox="0 0 124 68" version="1.1" xmlns="http://www.w3.org/2000/svg" xmlns:xlink="http://www.w3.org/1999/xlink">
    <title>logo_Insula_en</title>
    <defs>
        <path d="M6.76,26.28 L6.76,1.08 L1,1.08 L1,26.28 L6.76,26.28 Z M19.3,26.28 L19.3,16.452 C19.3,13.896 20.668,12.744 22.648,12.744 C24.376,12.744 25.78,13.788 25.78,16.02 L25.78,26.28 L31.18,26.28 L31.18,15.228 C31.18,10.368 28.084,7.776 24.448,7.776 C22.072,7.776 20.272,8.64 19.3,9.972 L19.3,8.28 L13.9,8.28 L13.9,26.28 L19.3,26.28 Z M44.368,26.784 C48.256,26.784 51.856,25.02 51.856,20.88 C51.856,14.22 43,15.588 43,13.536 C43,12.888 43.576,12.528 44.512,12.528 C45.7,12.528 46.42,13.176 46.924,14.112 L51.532,11.628 C50.02,9.072 47.428,7.776 44.512,7.776 C40.768,7.776 37.456,9.756 37.456,13.68 C37.456,19.908 46.312,18.864 46.312,20.844 C46.312,21.564 45.664,21.96 44.368,21.96 C42.784,21.96 41.776,21.204 41.308,19.836 L36.628,22.5 C38.032,25.416 40.768,26.784 44.368,26.784 Z M64.036,26.784 C66.412,26.784 68.212,25.92 69.184,24.588 L69.184,26.28 L74.584,26.28 L74.584,8.28 L69.184,8.28 L69.184,18.108 C69.184,20.664 67.816,21.816 65.836,21.816 C64.108,21.816 62.704,20.772 62.704,18.54 L62.704,8.28 L57.304,8.28 L57.304,19.332 C57.304,24.192 60.4,26.784 64.036,26.784 Z M86.944,26.28 L86.944,5.32907052e-14 L81.544,5.32907052e-14 L81.544,26.28 L86.944,26.28 Z M101.608,26.784 C104.02,26.784 105.784,25.956 106.972,24.588 L106.972,26.28 L112.372,26.28 L112.372,8.28 L106.972,8.28 L106.972,9.972 C105.784,8.604 104.02,7.776 101.608,7.776 C96.892,7.776 93.004,11.916 93.004,17.28 C93.004,22.644 96.892,26.784 101.608,26.784 Z M102.688,21.672 C100.204,21.672 98.404,19.98 98.404,17.28 C98.404,14.58 100.204,12.888 102.688,12.888 C105.172,12.888 106.972,14.58 106.972,17.28 C106.972,19.98 105.172,21.672 102.688,21.672 Z" id="path-1"></path>
    </defs>
    <g id="logo_Insula_en" stroke="none" stroke-width="1" fill="none" fill-rule="evenodd">
        <g>
            <rect id="Rectangle" opacity="0.6" x="0" y="0" width="124" height="68"></rect>
            <g id="Group-5" transform="translate(0.000000, 16.000000)">
                <g id="powered-by-Talfin-EN" transform="translate(0.000000, 34.195122)" fill="#413D46">
                    <path d="M2.0359944,11.791214 L2.0359944,9.68569789 L3.75417504,9.68569789 C4.65464736,9.68569789 5.3631072,9.47051149 5.87955456,9.04013869 C6.39600192,8.60976589 6.6542256,8.01717565 6.6542256,7.26236797 C6.6542256,6.50756029 6.39600192,5.91497005 5.87955456,5.48459725 C5.3631072,5.05422445 4.65464736,4.83903805 3.75417504,4.83903805 L3.75417504,4.83903805 L1.0428264,4.83903805 L1.0428264,11.791214 L2.0359944,11.791214 Z M3.72438,8.82164173 L2.0359944,8.82164173 L2.0359944,5.70309421 L3.72438,5.70309421 C4.3533864,5.70309421 4.8334176,5.83717189 5.1644736,6.10532725 C5.4955296,6.37348261 5.6610576,6.75916285 5.6610576,7.26236797 C5.6610576,7.76557309 5.4955296,8.15125333 5.1644736,8.41940869 C4.8334176,8.68756405 4.3533864,8.82164173 3.72438,8.82164173 L3.72438,8.82164173 Z M10.3289472,11.8508041 C10.8520157,11.8508041 11.3204599,11.7349345 11.7342799,11.5031953 C12.1480999,11.2714561 12.4725348,10.9519871 12.7075846,10.5447882 C12.9426343,10.1375893 13.0601592,9.67576621 13.0601592,9.15931885 C13.0601592,8.64287149 12.9426343,8.18104837 12.7075846,7.77384949 C12.4725348,7.36665061 12.1480999,7.04883685 11.7342799,6.82040821 C11.3204599,6.59197957 10.8520157,6.47776525 10.3289472,6.47776525 C9.80587872,6.47776525 9.3357792,6.59197957 8.91864864,6.82040821 C8.50151808,7.04883685 8.17542792,7.36665061 7.94037816,7.77384949 C7.7053284,8.18104837 7.58780352,8.64287149 7.58780352,9.15931885 C7.58780352,9.67576621 7.7053284,10.1375893 7.94037816,10.5447882 C8.17542792,10.9519871 8.50151808,11.2714561 8.91864864,11.5031953 C9.3357792,11.7349345 9.80587872,11.8508041 10.3289472,11.8508041 Z M10.3289472,11.016543 C9.99127008,11.016543 9.68835384,10.9387448 9.42019848,10.7831485 C9.15204312,10.6275522 8.94016728,10.4090552 8.78457096,10.1276576 C8.62897464,9.84626005 8.55117648,9.52348045 8.55117648,9.15931885 C8.55117648,8.79515725 8.62897464,8.47237765 8.78457096,8.19098005 C8.94016728,7.90958245 9.15204312,7.69274077 9.42019848,7.54045501 C9.68835384,7.38816925 9.99127008,7.31202637 10.3289472,7.31202637 C10.6666243,7.31202637 10.9695406,7.38816925 11.2376959,7.54045501 C11.5058513,7.69274077 11.7160718,7.90958245 11.8683576,8.19098005 C12.0206434,8.47237765 12.0967862,8.79515725 12.0967862,9.15931885 C12.0967862,9.52348045 12.0206434,9.84626005 11.8683576,10.1276576 C11.7160718,10.4090552 11.5058513,10.6275522 11.2376959,10.7831485 C10.9695406,10.9387448 10.6666243,11.016543 10.3289472,11.016543 Z M16.4071354,11.791214 L17.9465458,7.79867869 L19.4660928,11.791214 L20.3798074,11.791214 L22.34628,6.52742365 L21.4921555,6.52742365 L19.9229501,10.738456 L18.3636763,6.52742365 L17.5592102,6.52742365 L15.9701414,10.7185926 L14.4406627,6.52742365 L13.5368798,6.52742365 L15.4934208,11.791214 L16.4071354,11.791214 Z M25.6535294,11.8508041 C26.0905234,11.8508041 26.4861353,11.7779718 26.8403652,11.6323072 C27.1945951,11.4866425 27.4908902,11.2747667 27.7292506,10.9966796 L27.7292506,10.9966796 L27.2028715,10.3809155 C26.8188466,10.8046672 26.3123309,11.016543 25.6833245,11.016543 C25.1668771,11.016543 24.734849,10.8758442 24.3872402,10.5944466 C24.0396314,10.313049 23.836032,9.94061101 23.7764419,9.47713261 L23.7764419,9.47713261 L28.0470643,9.47713261 C28.0603066,9.35795245 28.0669277,9.26194621 28.0669277,9.18911389 C28.0669277,8.65942429 27.9560239,8.18932477 27.7342164,7.77881533 C27.5124089,7.36830589 27.2045268,7.04883685 26.8105702,6.82040821 C26.4166135,6.59197957 25.9680326,6.47776525 25.4648275,6.47776525 C24.9616224,6.47776525 24.509731,6.59197957 24.1091532,6.82040821 C23.7085754,7.04883685 23.3940722,7.36830589 23.1656436,7.77881533 C22.937215,8.18932477 22.8230006,8.64949261 22.8230006,9.15931885 C22.8230006,9.67576621 22.9405255,10.1392446 23.1755753,10.549754 C23.410625,10.9602635 23.7433363,11.2797325 24.1737091,11.5081612 C24.6040819,11.7365898 25.0973554,11.8508041 25.6535294,11.8508041 Z M27.1532131,8.79184669 L23.7764419,8.79184669 C23.8294109,8.34161053 24.0098364,7.97744893 24.3177185,7.69936189 C24.6256006,7.42127485 25.0079702,7.28223133 25.4648275,7.28223133 C25.9216848,7.28223133 26.3040545,7.42293013 26.6119366,7.70432773 C26.9198186,7.98572533 27.1002442,8.34823165 27.1532131,8.79184669 L27.1532131,8.79184669 Z M30.3412824,11.791214 L30.3412824,9.16925053 C30.3412824,8.59983421 30.4886023,8.16118501 30.7832422,7.85330293 C31.077882,7.54542085 31.4834256,7.39147981 31.999873,7.39147981 C32.0925686,7.39147981 32.165401,7.39479037 32.2183699,7.40141149 L32.2183699,7.40141149 L32.2183699,6.47776525 C31.7548915,6.47776525 31.3609349,6.55721869 31.0365,6.71612557 C30.7120651,6.87503245 30.4670837,7.10677165 30.3015557,7.41134317 L30.3015557,7.41134317 L30.3015557,6.52742365 L29.3878411,6.52742365 L29.3878411,11.791214 L30.3412824,11.791214 Z M35.8037064,11.8508041 C36.2407003,11.8508041 36.6363122,11.7779718 36.9905422,11.6323072 C37.3447721,11.4866425 37.6410672,11.2747667 37.8794275,10.9966796 L37.8794275,10.9966796 L37.3530485,10.3809155 C36.9690235,10.8046672 36.4625078,11.016543 35.8335014,11.016543 C35.3170541,11.016543 34.885026,10.8758442 34.5374172,10.5944466 C34.1898084,10.313049 33.986209,9.94061101 33.9266189,9.47713261 L33.9266189,9.47713261 L38.1972413,9.47713261 C38.2104835,9.35795245 38.2171046,9.26194621 38.2171046,9.18911389 C38.2171046,8.65942429 38.1062009,8.18932477 37.8843934,7.77881533 C37.6625858,7.36830589 37.3547038,7.04883685 36.9607471,6.82040821 C36.5667905,6.59197957 36.1182096,6.47776525 35.6150045,6.47776525 C35.1117994,6.47776525 34.6599079,6.59197957 34.2593302,6.82040821 C33.8587524,7.04883685 33.5442492,7.36830589 33.3158206,7.77881533 C33.0873919,8.18932477 32.9731776,8.64949261 32.9731776,9.15931885 C32.9731776,9.67576621 33.0907025,10.1392446 33.3257522,10.549754 C33.560802,10.9602635 33.8935133,11.2797325 34.3238861,11.5081612 C34.7542589,11.7365898 35.2475323,11.8508041 35.8037064,11.8508041 Z M37.3033901,8.79184669 L33.9266189,8.79184669 C33.9795878,8.34161053 34.1600134,7.97744893 34.4678954,7.69936189 C34.7757775,7.42127485 35.1581472,7.28223133 35.6150045,7.28223133 C36.0718618,7.28223133 36.4542314,7.42293013 36.7621135,7.70432773 C37.0699956,7.98572533 37.2504211,8.34823165 37.3033901,8.79184669 L37.3033901,8.79184669 Z M41.713056,11.8508041 C42.1037021,11.8508041 42.4612426,11.7746612 42.7856774,11.6223755 C43.1101123,11.4700897 43.3782677,11.2482822 43.5901435,10.9569529 L43.5901435,10.9569529 L43.5901435,11.791214 L44.5038581,11.791214 L44.5038581,4.42190749 L43.5504168,4.42190749 L43.5504168,7.32195805 C43.338541,7.04387101 43.0736962,6.83365045 42.7558824,6.69129637 C42.4380686,6.54894229 42.0904598,6.47776525 41.713056,6.47776525 C41.2032298,6.47776525 40.7463725,6.59032429 40.3424842,6.81544237 C39.9385958,7.04056045 39.6224374,7.35506365 39.3940087,7.75895197 C39.1655801,8.16284029 39.0513658,8.62962925 39.0513658,9.15931885 C39.0513658,9.68900845 39.1655801,10.1574527 39.3940087,10.5646516 C39.6224374,10.9718504 39.9385958,11.2880089 40.3424842,11.513127 C40.7463725,11.7382451 41.2032298,11.8508041 41.713056,11.8508041 Z M41.7925094,11.016543 C41.4548323,11.016543 41.1519161,10.9387448 40.8837607,10.7831485 C40.6156054,10.6275522 40.4037295,10.4090552 40.2481332,10.1276576 C40.0925369,9.84626005 40.0147387,9.52348045 40.0147387,9.15931885 C40.0147387,8.79515725 40.0925369,8.47237765 40.2481332,8.19098005 C40.4037295,7.90958245 40.6156054,7.69274077 40.8837607,7.54045501 C41.1519161,7.38816925 41.4548323,7.31202637 41.7925094,7.31202637 C42.1235654,7.31202637 42.4248264,7.38816925 42.6962923,7.54045501 C42.9677582,7.69274077 43.1796341,7.90958245 43.3319198,8.19098005 C43.4842056,8.47237765 43.5603485,8.79515725 43.5603485,9.15931885 C43.5603485,9.52348045 43.4842056,9.84626005 43.3319198,10.1276576 C43.1796341,10.4090552 42.9677582,10.6275522 42.6962923,10.7831485 C42.4248264,10.9387448 42.1235654,11.016543 41.7925094,11.016543 Z M51.7738478,11.8508041 C52.2836741,11.8508041 52.7405314,11.7382451 53.1444197,11.513127 C53.548308,11.2880089 53.8644665,10.9718504 54.0928951,10.5646516 C54.3213238,10.1574527 54.4355381,9.68900845 54.4355381,9.15931885 C54.4355381,8.62962925 54.3213238,8.16284029 54.0928951,7.75895197 C53.8644665,7.35506365 53.548308,7.04056045 53.1444197,6.81544237 C52.7405314,6.59032429 52.2836741,6.47776525 51.7738478,6.47776525 C51.396444,6.47776525 51.0488352,6.54894229 50.7310214,6.69129637 C50.4132077,6.83365045 50.1483629,7.04387101 49.936487,7.32195805 L49.936487,7.32195805 L49.936487,4.42190749 L48.9830458,4.42190749 L48.9830458,11.791214 L49.8967603,11.791214 L49.8967603,10.9569529 C50.1086362,11.2482822 50.3767915,11.4700897 50.7012264,11.6223755 C51.0256613,11.7746612 51.3832018,11.8508041 51.7738478,11.8508041 Z M51.6943944,11.016543 C51.3633384,11.016543 51.0620774,10.9387448 50.7906115,10.7831485 C50.5191456,10.6275522 50.3072698,10.4090552 50.154984,10.1276576 C50.0026982,9.84626005 49.9265554,9.52348045 49.9265554,9.15931885 C49.9265554,8.79515725 50.0026982,8.47237765 50.154984,8.19098005 C50.3072698,7.90958245 50.5191456,7.69274077 50.7906115,7.54045501 C51.0620774,7.38816925 51.3633384,7.31202637 51.6943944,7.31202637 C52.0320715,7.31202637 52.3349878,7.38816925 52.6031431,7.54045501 C52.8712985,7.69274077 53.0831743,7.90958245 53.2387706,8.19098005 C53.394367,8.47237765 53.4721651,8.79515725 53.4721651,9.15931885 C53.4721651,9.52348045 53.394367,9.84626005 53.2387706,10.1276576 C53.0831743,10.4090552 52.8712985,10.6275522 52.6031431,10.7831485 C52.3349878,10.9387448 52.0320715,11.016543 51.6943944,11.016543 Z M55.9848802,13.77755 C56.4086318,13.77755 56.7711382,13.6683016 57.0723991,13.4498046 C57.3736601,13.2313076 57.6368496,12.8539038 57.8619677,12.3175931 L57.8619677,12.3175931 L60.4144094,6.52742365 L59.4808315,6.52742365 L57.6633341,10.738456 L55.8259733,6.52742365 L54.8328053,6.52742365 L57.1568184,11.7812824 L56.9879798,12.1487545 C56.8621786,12.4467049 56.7214798,12.6569255 56.5658834,12.7794162 C56.4102871,12.9019069 56.2166194,12.9631523 55.9848802,12.9631523 C55.6273397,12.9631523 55.3128365,12.8340404 55.0413706,12.5758168 L55.0413706,12.5758168 L54.6341717,13.2908977 C54.7930786,13.4498046 54.9933674,13.57064 55.2350383,13.653404 C55.4767092,13.736168 55.7266565,13.77755 55.9848802,13.77755 Z" id="Poweredby" fill-rule="nonzero"></path>
                    <path d="M75.8806049,4.44940488 L74.1691902,11.8437463 C73.6755317,14.0023805 71.7551415,15.5331122 69.5405073,15.532722 L69.5405073,15.532722 L69.4288976,15.5325268 C69.2649951,15.5325268 69.1436293,15.3803317 69.1801171,15.2203317 L69.1801171,15.2203317 L70.7766049,8.28120976 C71.386361,6.12374634 73.2909463,4.4593561 75.3693854,4.44940488 L75.3693854,4.44940488 L75.8806049,4.44940488 Z M97.6405659,6.37670244 C98.4733463,6.37670244 99.0682732,6.6243122 99.4259317,7.11914146 L99.4259317,7.11914146 L99.5293463,6.38489756 L101.427883,6.38489756 L100.555688,12.5913366 L98.6569561,12.5913366 L98.7510049,11.9218732 C98.2657366,12.4071415 97.6112976,12.6494829 96.7886634,12.6494829 C95.964078,12.6494829 95.3508098,12.3316293 94.9484683,11.695922 C94.5461268,11.0602146 94.4050537,10.3154341 94.5250537,9.46099512 C94.6450537,8.60675122 94.9980293,7.87933659 95.5841756,7.27836098 C96.1701268,6.67719024 96.8553951,6.37670244 97.6405659,6.37670244 Z M96.2131512,2.88327805 L95.9550049,4.76113171 L93.2053463,4.76113171 L92.1058341,12.5913756 L89.9829073,12.5913756 L91.0824195,4.76113171 L88.3339317,4.76113171 L88.5930537,2.88327805 L96.2131512,2.88327805 Z M105.213912,2.88327805 L103.845717,12.5913756 L101.934302,12.5913756 L103.035766,4.77596098 C103.181093,3.74477073 104.02676,2.96469561 105.050813,2.88926607 L105.213912,2.88327805 Z M111.192215,2.88327805 L110.970556,4.47410732 L110.485483,4.47410732 C110.068702,4.47410732 109.940117,4.51586341 109.772702,4.64503415 C109.605678,4.77479024 109.50441,5.06318049 109.445483,5.46396098 L109.318849,6.37674146 L110.709678,6.37674146 L110.485483,7.93205854 L109.094654,7.93205854 L108.445678,12.5913756 L106.565483,12.5913756 L107.215434,7.93205854 L105.975629,7.93205854 L106.20002,6.37674146 L107.439629,6.37674146 L107.579532,5.35118049 C107.629483,5.01732683 107.701873,4.70200976 107.798654,4.40522927 C107.894459,4.10883902 108.042361,3.84776585 108.243337,3.62220488 C108.443141,3.3966439 108.708117,3.21947317 109.038654,3.08971707 C109.3688,2.9601561 109.745971,2.88327805 110.255629,2.88327805 L111.192215,2.88327805 Z M114.042634,6.37670244 L113.169268,12.5913366 L111.290049,12.5913366 L112.16361,6.37670244 L114.042634,6.37670244 Z M119.103707,6.27836098 C119.58,6.27836098 119.95522,6.35172683 120.231512,6.49748293 C120.506829,6.64382439 120.70761,6.84636098 120.833073,7.10509268 C120.957366,7.36421463 121.024683,7.66899512 121.032878,8.01962927 C121.041073,8.37065366 121.016488,8.75075122 120.957366,9.15992195 L120.483805,12.5913366 L118.604585,12.5913366 L119.02839,9.53592195 C119.053756,9.36050732 119.074244,9.17884878 119.09161,8.99094634 C119.107805,8.80284878 119.095512,8.62958049 119.053756,8.47094634 C119.012,8.3123122 118.93239,8.1825561 118.815317,8.08245854 C118.697854,7.98216585 118.518537,7.93201951 118.27678,7.93201951 C118.034244,7.93201951 117.832293,7.97592195 117.669171,8.06353171 C117.506049,8.15153171 117.374537,8.26860488 117.274439,8.4145561 C117.173756,8.56070244 117.09922,8.72597073 117.049268,8.90938537 C116.998146,9.09299512 116.961659,9.28538537 116.936098,9.48558049 L116.498439,12.5913366 L114.61922,12.5913366 L115.496293,6.37670244 L117.3,6.37670244 L117.173756,7.25553171 L117.199317,7.25553171 C117.274439,7.13884878 117.374537,7.02177561 117.5,6.90489756 C117.625268,6.78782439 117.767122,6.68362927 117.926146,6.59153171 C118.084195,6.49982439 118.264683,6.42450732 118.464488,6.36597073 C118.665268,6.30782439 118.878341,6.27836098 119.103707,6.27836098 Z M122.294849,11.1971512 C122.390068,11.1971512 122.479044,11.2152976 122.562361,11.2515902 C122.645678,11.2882732 122.718459,11.3374439 122.780702,11.3998829 C122.843141,11.4621268 122.892507,11.5347122 122.928995,11.6182244 C122.965288,11.7015415 122.983629,11.7907122 122.983629,11.8857366 C122.983629,11.9805659 122.965288,12.0699317 122.928995,12.1530537 C122.892507,12.2365659 122.843141,12.3093463 122.780702,12.3715902 C122.718459,12.4340293 122.645678,12.4833951 122.562361,12.5196878 C122.479044,12.5561756 122.390068,12.574322 122.294849,12.574322 C122.199824,12.574322 122.110654,12.5561756 122.027337,12.5196878 C121.94402,12.4833951 121.871239,12.4340293 121.808995,12.3715902 C121.746751,12.3093463 121.69719,12.2365659 121.660898,12.1530537 C121.624605,12.0699317 121.606263,11.9805659 121.606263,11.8857366 C121.606263,11.7907122 121.624605,11.7015415 121.660898,11.6182244 C121.69719,11.5347122 121.746751,11.4621268 121.808995,11.3998829 C121.871239,11.3374439 121.94402,11.2882732 122.027337,11.2515902 C122.110654,11.2152976 122.199824,11.1971512 122.294849,11.1971512 Z M122.294849,11.3192976 C122.21719,11.3192976 122.143824,11.3341268 122.074556,11.3635902 C122.005483,11.3934439 121.945385,11.4338341 121.894068,11.4849561 C121.842946,11.536078 121.802556,11.5963707 121.772702,11.6654439 C121.743239,11.7345171 121.72841,11.808078 121.72841,11.8857366 C121.72841,11.9635902 121.743239,12.0369561 121.772702,12.1060293 C121.802556,12.1752976 121.842946,12.2352 121.894068,12.2865171 C121.945385,12.3378341 122.005483,12.3782244 122.074556,12.4076878 C122.143824,12.4373463 122.21719,12.4521756 122.294849,12.4521756 C122.372702,12.4521756 122.446068,12.4373463 122.515141,12.4076878 C122.58441,12.3782244 122.644312,12.3378341 122.695629,12.2865171 C122.746946,12.2352 122.787337,12.1752976 122.8168,12.1060293 C122.846459,12.0369561 122.861288,11.9635902 122.861288,11.8857366 C122.861288,11.808078 122.846459,11.7345171 122.8168,11.6654439 C122.787337,11.5963707 122.746946,11.536078 122.695629,11.4849561 C122.644312,11.4338341 122.58441,11.3934439 122.515141,11.3635902 C122.446068,11.3341268 122.372702,11.3192976 122.294849,11.3192976 Z M122.333678,11.4876878 C122.428702,11.4876878 122.498751,11.5081756 122.54402,11.5489561 C122.588898,11.5895415 122.611337,11.648078 122.611337,11.724761 C122.611337,11.793639 122.59358,11.8455415 122.558263,11.880078 C122.522751,11.9148098 122.478263,11.9351024 122.42441,11.9411512 L122.628117,12.2744195 L122.476312,12.2744195 L122.28002,11.9524683 L122.174654,11.9524683 L122.174654,12.2744195 L122.030068,12.2744195 L122.030068,11.4876878 L122.333678,11.4876878 Z M97.8491512,7.89923902 C97.4144195,7.89923902 97.0386146,8.05397073 96.7217366,8.36323902 C96.4046634,8.67250732 96.2105171,9.08265366 96.1387122,9.59367805 C96.0667122,10.1047024 96.1476878,10.5169951 96.381639,10.8309463 C96.6153951,11.1447024 96.9519805,11.3013854 97.3913951,11.3013854 C97.8306146,11.3013854 98.2060293,11.1491902 98.517639,10.8444098 C98.6397854,10.7249951 98.7430049,10.5878244 98.8288585,10.4340683 C98.9617366,10.195239 99.0516878,9.91562927 99.0969561,9.59367805 C99.138322,9.2990439 99.1244683,9.03621463 99.0579317,8.80401951 C99.0130537,8.64772683 98.944761,8.50489756 98.8511024,8.37670244 C98.6179317,8.05865366 98.284078,7.89923902 97.8491512,7.89923902 Z M84.1596878,0 C84.3315902,0 84.457639,0.16195122 84.4156878,0.328585366 L84.4156878,0.328585366 L84.3692488,0.512390244 C83.8352,2.6275122 81.9323707,4.10965854 79.7509073,4.10965854 L79.7509073,4.10965854 L75.4592,4.10965854 C73.3901268,4.10965854 71.5766634,5.46341463 70.9723707,7.42653659 L70.9723707,7.42653659 L71.7362732,4.10965854 L71.894322,3.51043902 C71.9044683,3.47160976 71.9185171,3.43434146 71.9298341,3.39570732 C72.513639,1.38946341 74.3512976,0 76.4504195,0 L76.4504195,0 Z M113.607805,2.88327805 C113.908488,2.88327805 114.148098,2.98942439 114.327415,3.20269268 C114.506927,3.41576585 114.57639,3.67235122 114.534634,3.97322927 C114.517268,4.12366829 114.471415,4.26571707 114.396878,4.39918049 C114.321366,4.53303415 114.227707,4.64776585 114.114537,4.74376585 C114.002341,4.83996098 113.874927,4.91703415 113.733073,4.97557073 C113.590439,5.03410732 113.444683,5.06318049 113.293659,5.06318049 C113.143805,5.06318049 113.006244,5.03410732 112.88078,4.97557073 C112.755317,4.91703415 112.651317,4.83996098 112.567805,4.74376585 C112.484098,4.64776585 112.423024,4.53303415 112.386146,4.39918049 C112.348488,4.26571707 112.337366,4.12366829 112.354537,3.97322927 C112.379122,3.82279024 112.430049,3.68074146 112.504585,3.54727805 C112.579902,3.41361951 112.673756,3.29869268 112.786927,3.20269268 C112.899122,3.1068878 113.026537,3.02942439 113.169366,2.9708878 C113.311024,2.91254634 113.45678,2.88327805 113.607805,2.88327805 Z M71.2707707,1.13686838e-13 C72.1265756,1.13686838e-13 72.9324293,0.234341463 73.6305756,0.640195122 C72.7308683,1.24214634 72.0405268,2.14829268 71.7228683,3.23960976 C71.7115512,3.2782439 71.4930146,4.11102439 71.4930146,4.11102439 L71.4930146,4.11102439 L68.6592585,4.11102439 C66.4448195,4.11102439 64.5244293,2.57990244 64.0313561,0.420878049 L64.0313561,0.420878049 L64.0065756,0.312195122 C63.9700878,0.152195122 64.0914537,1.13686838e-13 64.2553561,1.13686838e-13 L64.2553561,1.13686838e-13 Z" id="Combined-Shape"></path>
                </g>
                <g id="logo_Insula" fill-rule="nonzero">
                    <use fill="#413D46" xlink:href="#path-1"></use>
                    <use fill="#000000" xlink:href="#path-1"></use>
                </g>
            </g>
        </g>
    </g>
</svg>