<svg xmlns="http://www.w3.org/2000/svg" width="112" height="28" viewBox="0 0 112 28">
    <g fill="none" fill-rule="evenodd">
        <g fill="#F6F2EE" fill-rule="nonzero">
            <g>
                <g>
                    <path d="M5.76 26.28V1.08H0v25.2h5.76zm12.54 0v-9.828c0-2.556 1.368-3.708 3.348-3.708 1.728 0 3.132 1.044 3.132 3.276v10.26h5.4V15.228c0-4.86-3.096-7.452-6.732-7.452-2.376 0-4.176.864-5.148 2.196V8.28h-5.4v18h5.4zm25.068.504c3.888 0 7.488-1.764 7.488-5.904 0-6.66-8.856-5.292-8.856-7.344 0-.648.576-1.008 1.512-1.008 1.188 0 1.908.648 2.412 1.584l4.608-2.484c-1.512-2.556-4.104-3.852-7.02-3.852-3.744 0-7.056 1.98-7.056 5.904 0 6.228 8.856 5.184 8.856 7.164 0 .72-.648 1.116-1.944 1.116-1.584 0-2.592-.756-3.06-2.124l-4.68 2.664c1.404 2.916 4.14 4.284 7.74 4.284zm19.668 0c2.376 0 4.176-.864 5.148-2.196v1.692h5.4v-18h-5.4v9.828c0 2.556-1.368 3.708-3.348 3.708-1.728 0-3.132-1.044-3.132-3.276V8.28h-5.4v11.052c0 4.86 3.096 7.452 6.732 7.452zm22.908-.504V0h-5.4v26.28h5.4zm14.664.504c2.412 0 4.176-.828 5.364-2.196v1.692h5.4v-18h-5.4v1.692c-1.188-1.368-2.952-2.196-5.364-2.196-4.716 0-8.604 4.14-8.604 9.504s3.888 9.504 8.604 9.504zm1.08-5.112c-2.484 0-4.284-1.692-4.284-4.392s1.8-4.392 4.284-4.392 4.284 1.692 4.284 4.392-1.8 4.392-4.284 4.392z" transform="translate(-57 -4591) translate(0 3844.13) translate(57 747)"/>
                </g>
            </g>
        </g>
    </g>
</svg>
