<svg width="231" height="48" viewBox="0 0 231 48" fill="none" xmlns="http://www.w3.org/2000/svg">
<g clip-path="url(#clip0_539_4802)">
<path d="M134.997 38.9134C134.732 38.1004 132.891 38.2257 129.488 37.5176C126.582 36.9144 124.131 36.011 123.433 35.5244C122.761 35.0698 123.034 32.5608 122.025 29.7953C121.309 27.8254 120.21 26.1586 119.998 24.413C119.698 21.9594 118.331 21.4436 118.18 18.9929C118.063 17.0375 117.066 15.4173 116.618 12.2759C116.312 10.1137 115.76 8.00684 115.219 5.93785C114.527 3.30062 115.094 -0.021421 113.299 1.34528C112.307 2.09711 110.58 6.90532 109.696 12.1332C108.701 18.0108 106.592 18.8559 105.862 24.1216C105.795 24.6636 106.796 24.9667 106.796 25.4155C106.796 25.8642 104.676 25.7215 104.347 27.8225C104.05 29.7108 102.986 31.4767 103.108 33.7876C103.213 35.7954 102.997 36.454 102.561 36.6259C100.935 37.2612 97.9103 37.4535 96.7469 37.6342C94.199 38.0334 92.7913 38.4122 92.5732 39.4555C92.3608 40.4783 94.2398 41.2651 95.5777 41.3205C97.4624 41.3962 100.141 41.0028 102.163 40.7027C104.181 40.4025 107.188 40.184 112.113 40.4317C117.034 40.6794 123.118 42.0257 124.936 42.4453C126.966 42.9145 130.881 43.0776 132.612 42.3783C134.68 41.5448 135.264 39.7235 134.997 38.9134ZM113.052 26.9658C113.104 26.7559 113.36 26.7122 113.602 26.6744C113.759 26.651 114.047 26.6073 114.46 26.549C114.884 26.4879 115.169 26.4412 115.318 26.4063C115.542 26.3567 115.658 26.3451 115.961 25.9109C116.263 25.4767 116.781 24.7278 116.923 24.5587C117.066 24.3897 117.194 24.2936 117.389 24.3402C117.584 24.3868 117.633 24.6432 117.685 25.0337C117.738 25.4184 117.88 26.3975 117.921 26.5957C117.959 26.7909 118.031 26.9803 118.38 27.2339C118.727 27.4874 119.663 28.1605 119.832 28.3004C120 28.4432 120.015 28.5772 119.989 28.6996C119.96 28.8249 119.913 28.9269 119.334 28.9998C118.756 29.0726 117.883 29.2096 117.7 29.2387C117.517 29.2708 117.357 29.3524 117.107 29.7079C116.856 30.0634 116.257 30.9056 116.115 31.0804C115.975 31.2582 115.867 31.3602 115.623 31.3019C115.373 31.2407 115.312 30.3082 115.239 29.772C115.164 29.2387 115.149 28.79 114.797 28.5335C114.442 28.2713 113.392 27.5107 113.212 27.3708C113.064 27.2572 113.017 27.1115 113.052 26.9658ZM104.708 30.7103C104.652 30.5501 104.801 30.4102 104.943 30.2849C105.036 30.2004 105.208 30.0488 105.452 29.8361C105.702 29.6146 105.871 29.4631 105.952 29.3786C106.077 29.2504 106.147 29.1921 106.162 28.7783C106.173 28.3674 106.197 27.6564 106.217 27.4845C106.237 27.3155 106.281 27.1931 106.429 27.1435C106.578 27.0911 106.72 27.2368 106.918 27.467C107.116 27.7001 107.628 28.2771 107.735 28.3907C107.843 28.5044 107.971 28.5976 108.308 28.6122C108.643 28.6297 109.541 28.6705 109.71 28.6909C109.882 28.7113 109.949 28.7929 109.984 28.8861C110.018 28.9794 110.03 29.0668 109.681 29.3611C109.335 29.6525 108.82 30.1159 108.715 30.2149C108.611 30.314 108.541 30.4364 108.526 30.7774C108.515 31.1154 108.48 31.9197 108.462 32.0974C108.445 32.2723 108.419 32.3859 108.233 32.4529C108.044 32.5171 107.607 31.9342 107.331 31.6166C107.055 31.299 106.857 31.0134 106.514 30.993C106.17 30.9726 105.161 30.9231 104.984 30.9085C104.835 30.8968 104.742 30.8182 104.708 30.7103ZM119.279 35.2067C117.383 35.4836 114.858 35.434 112.392 36.2937C108.605 37.6138 106.389 36.6405 105.74 35.6934C105.109 34.7725 106.112 34.1926 106.834 35.0261C107.61 35.9236 109.498 34.758 111.758 33.6914C114.544 32.3743 118.116 33.942 119.16 33.8022C120.219 33.6565 120.268 32.6919 120.786 32.8667C121.309 33.0445 121.202 34.927 119.279 35.2067Z" fill="#F5F2ED"/>
</g>
<path opacity="0.4" fill-rule="evenodd" clip-rule="evenodd" d="M170.15 15.2753C172.051 14.2503 173.253 12.6839 173.645 10.5519C173.926 9.02235 173.284 7.88078 171.87 7.24445C170.985 6.84625 170.057 6.77742 169.11 6.92201C168.938 6.94803 168.737 7.01357 168.621 7.13148C167.534 8.24242 166.528 9.41495 166.036 10.9303C165.707 11.9435 165.707 12.9589 166.08 13.9621C166.555 15.2387 167.699 15.8925 169.244 15.63C169.291 15.6122 169.352 15.5919 169.423 15.5682C169.622 15.5026 169.898 15.4114 170.15 15.2753ZM172.997 4.32023C173.342 4.49048 173.687 4.66083 174 4.87798C175.983 6.25439 176.872 8.19071 176.47 10.5473C175.895 13.9114 173.925 16.2519 170.764 17.5502C170.063 17.8377 169.3 17.9596 168.532 17.925C166.344 17.8256 164.632 16.3955 164.116 14.2454C163.779 12.8426 163.89 11.4669 164.461 10.1481C164.642 9.72939 164.875 9.33322 165.108 8.93734C165.198 8.7836 165.289 8.62991 165.376 8.47495C165.441 8.36027 165.514 8.25018 165.614 8.09772C165.671 8.01243 165.736 7.91387 165.814 7.79383C165.635 7.86611 165.476 7.92929 165.329 7.98727C165.044 8.10047 164.808 8.19385 164.577 8.29644C160.644 10.0411 157.404 12.6806 154.671 15.9729C153.603 17.26 152.671 18.6434 151.793 20.0652C151.426 20.6587 151.058 21.2522 150.663 21.8273C150.477 22.0994 150.255 22.3612 150.001 22.57C149.235 23.2011 148.214 22.8164 148.097 21.8398C148.048 21.4275 148.095 20.9917 148.166 20.5784C148.353 19.4941 148.759 18.479 149.236 17.4929C150.424 15.0375 152.017 12.8673 153.934 10.9373C156.624 8.22958 159.775 6.22277 163.347 4.88358C164.169 4.5753 165.007 4.29699 165.855 4.07138C166.877 3.79965 167.912 3.60072 168.978 3.54835C169.95 2.13868 171.144 0.598578 171.961 0.210589C173.177 -0.367443 173.755 0.301822 172.66 1.51882C172.234 1.99277 171.604 2.8366 170.994 3.68932C171.508 3.79273 172.185 3.94556 172.563 4.10168C172.706 4.17683 172.851 4.24852 172.997 4.32023ZM182.45 17.1717L185.112 16.1997L187.007 13.7868L188.003 16.7171L190.381 18.4097L187.72 19.3817L185.771 21.9184L184.937 19.0135L182.45 17.1717ZM196.96 40.4438L196.96 40.4439C197.041 40.4791 197.13 40.5178 197.233 40.559C196.993 42.1044 196.1 43.0391 194.95 43.7683C194.558 44.0167 194.117 44.209 193.674 44.3552C191.224 45.1655 188.794 45.0469 186.409 44.0908C185.526 43.737 184.76 43.2176 184.271 42.3432C183.325 40.6555 183.936 39.0321 185.802 38.5446C186.534 38.3539 187.323 38.3085 188.083 38.3246C188.846 38.3407 189.622 38.4498 190.362 38.6349C191.977 39.0383 193.583 39.4771 195.188 39.916C195.641 40.0397 196.093 40.1634 196.546 40.2863C196.678 40.3219 196.804 40.3766 196.959 40.4438L196.959 40.4438L196.96 40.4438ZM217.995 31.1633C218.572 31.0991 219.066 30.8988 219.268 30.3099C219.254 30.2712 219.245 30.2342 219.236 30.2C219.219 30.1332 219.205 30.0772 219.17 30.0402C218.966 29.8234 218.756 29.6113 218.533 29.414C218.005 28.9467 217.661 28.363 217.454 27.701C217.04 26.3763 217.478 25.4324 218.761 24.9268C219.839 24.5013 220.932 24.5088 222.005 24.965C223.062 25.4143 223.86 26.1754 224.472 27.1286C226.331 30.0247 226.216 33.5749 224.184 36.3949C222.333 38.9636 219.817 40.5452 216.788 41.3607C214.915 41.8649 213.005 42.0098 211.073 41.9272C207.977 41.7944 204.986 41.1087 202.033 40.2188C201.843 40.1614 201.658 40.0876 201.473 40.0138C201.388 39.9795 201.302 39.9452 201.215 39.9125C201.209 39.8337 201.203 39.7622 201.197 39.6955C201.185 39.5685 201.175 39.4587 201.172 39.3486C201.057 35.3271 199.182 32.2795 195.973 29.9779C194.15 28.6697 192.115 27.7932 189.984 27.1306C187.246 26.2792 184.449 25.6883 181.607 25.3118C174.961 24.4318 168.393 24.7634 161.924 26.5845C160.194 27.0716 158.502 27.6612 156.922 28.5297C155.87 29.1074 154.854 29.745 154.062 30.6617C153.733 31.0437 153.445 31.4838 153.236 31.9419C152.961 32.5427 153.123 33.1039 153.598 33.5775C154.025 34.0037 154.541 34.1812 155.117 34.0758C155.66 33.9767 156.194 33.814 156.721 33.6457C157.199 33.4931 157.673 33.3288 158.147 33.1645C159.005 32.8674 159.863 32.5704 160.739 32.3431C167.493 30.5909 174.352 29.913 181.317 30.5223C184.256 30.7792 187.166 31.2351 190 32.0987C191.355 32.5117 192.648 33.0644 193.831 33.8469C195.336 34.8426 196.449 36.1577 197.017 37.8945L197.03 37.9344C197.091 38.1158 197.158 38.3161 196.888 38.5077L196.473 38.3834L196.472 38.3831C196.189 38.2985 195.894 38.2101 195.598 38.1227C195.105 37.9769 194.612 37.8266 194.12 37.6763L194.12 37.6763L194.119 37.6762C192.938 37.3156 191.756 36.955 190.559 36.6561C189.53 36.3992 188.458 36.2931 187.398 36.1959C186.545 36.1176 185.691 36.2424 184.865 36.4917C182.155 37.3108 180.799 39.8097 181.595 42.5296C182.075 44.1701 183.099 45.4148 184.57 46.2319C188.173 48.2335 191.948 48.554 195.808 47.0995C198.065 46.2487 199.689 44.6622 200.616 42.4038C200.679 42.2508 200.749 42.1008 200.827 41.936L200.827 41.9356C200.866 41.8529 200.906 41.7664 200.949 41.6739C201.109 41.7168 201.265 41.7575 201.417 41.7974L201.417 41.7974L201.417 41.7974C201.735 41.8808 202.039 41.9603 202.34 42.0481C204.475 42.6702 206.63 43.1982 208.828 43.5391C210.859 43.8539 212.901 44.015 214.958 43.8938C217.455 43.7462 219.862 43.2179 222.131 42.1413C224.852 40.8502 227.109 39.0209 228.712 36.4337C231.79 31.4643 230.487 24.796 226.203 21.5028C223.641 19.5328 220.815 19.0408 217.745 20.0368C216.321 20.4985 215.182 21.3799 214.28 22.5663C212.38 25.0661 212.975 28.73 215.577 30.4904C216.299 30.9792 217.102 31.2631 217.995 31.1633ZM171.553 41.7899C171.505 41.8024 171.441 41.8223 171.366 41.8459C171.147 41.9148 170.827 42.0152 170.5 42.0547C168.865 42.2523 167.636 41.4833 167.387 40.1484C167.079 38.4907 168.115 36.6614 169.642 36.1657C171.113 35.6881 172.771 36.361 173.352 37.6715C173.939 38.9926 173.197 40.8772 171.553 41.7899ZM159.84 41.7135C159.806 41.7225 159.76 41.7368 159.706 41.7538L159.706 41.7538C159.549 41.8033 159.32 41.8754 159.085 41.9036C157.912 42.0452 157.03 41.4935 156.852 40.5361C156.631 39.3471 157.374 38.0349 158.47 37.6792C159.525 37.3366 160.714 37.8191 161.131 38.7591C161.552 39.707 161.02 41.0591 159.84 41.7135Z" fill="#D8D8D8"/>
<path opacity="0.4" fill-rule="evenodd" clip-rule="evenodd" d="M58.2229 15.6299C59.7675 15.8922 60.9117 15.2386 61.3865 13.962C61.7596 12.9589 61.7596 11.9435 61.4306 10.9302C60.9387 9.41516 59.9327 8.24248 58.8457 7.13142C58.7301 7.01326 58.5284 6.94815 58.3569 6.92178C57.41 6.77726 56.4821 6.84619 55.597 7.24449C54.1826 7.8807 53.5408 9.02226 53.8219 10.552C54.2137 12.6839 55.4157 14.2504 57.3166 15.2754C57.5691 15.4116 57.8459 15.503 58.0446 15.5686C58.1155 15.592 58.1765 15.6121 58.2229 15.6299ZM78.2314 17.4931C78.7084 18.479 79.1142 19.4941 79.3009 20.5782C79.3718 20.9917 79.4188 21.4275 79.3692 21.8401C79.2527 22.8165 78.232 23.2012 77.4658 22.57C77.2124 22.361 76.9901 22.0993 76.8037 21.8274C76.4092 21.2522 76.0406 20.6589 75.6741 20.0652C74.7964 18.6435 73.8637 17.2599 72.7954 15.9729C70.0631 12.6807 66.8228 10.0412 62.8901 8.29648C62.6614 8.19495 62.4285 8.10265 62.1474 7.99118C61.9984 7.93213 61.8359 7.8677 61.6532 7.79367C61.7311 7.91443 61.7966 8.0134 61.8532 8.09901C61.9536 8.25073 62.0262 8.36046 62.0908 8.47498C62.1782 8.63011 62.2687 8.784 62.3593 8.93792C62.592 9.33365 62.8249 9.72968 63.006 10.1479C63.5773 11.467 63.6881 12.8427 63.3515 14.2453C62.8352 16.3953 61.1222 17.8256 58.9346 17.9247C58.1667 17.9597 57.4043 17.838 56.7031 17.5502C53.5415 16.2521 51.5716 13.9112 50.9972 10.5472C50.5948 8.19071 51.4837 6.25445 53.4668 4.87817C53.7805 4.6602 54.1271 4.48925 54.4735 4.31839C54.6177 4.24723 54.762 4.17609 54.9038 4.10156C55.282 3.94561 55.9584 3.79251 56.4729 3.68928C55.8631 2.83645 55.2334 1.99283 54.8069 1.51862C53.712 0.301784 54.29 -0.367458 55.5065 0.210624C56.323 0.598448 57.5173 2.13863 58.4884 3.54826C59.5545 3.60067 60.5897 3.79982 61.6119 4.07139C62.4601 4.29691 63.2979 4.57515 64.12 4.88356C67.6922 6.22268 70.8424 8.22946 73.5328 10.9372C75.4502 12.8675 77.0434 15.0375 78.2314 17.4931ZM44.634 17.9476C44.6219 19.3814 43.3689 20.6586 41.8297 20.8066C40.2314 20.9597 38.5534 19.6942 38.1761 18.0508C37.8725 16.7276 38.6944 15.532 40.273 15.0623C40.5881 14.9685 40.9207 14.9334 41.1491 14.9093C41.228 14.901 41.2945 14.894 41.3435 14.8863C43.2155 15.0686 44.6461 16.5021 44.634 17.9476ZM32.9902 21.8164C32.9813 22.8449 32.0826 23.7612 30.9784 23.867C29.832 23.9772 28.6282 23.0691 28.3579 21.8904C28.1401 20.941 28.7295 20.0837 29.8619 19.7467C30.0872 19.6796 30.3252 19.6544 30.4891 19.6371C30.5462 19.631 30.5943 19.6259 30.6297 19.6203C31.9727 19.7512 32.9991 20.7793 32.9902 21.8164ZM36.7256 44.3552C36.2832 44.2091 35.8424 44.0169 35.4502 43.7682C34.2997 43.0393 33.4071 42.1045 33.1673 40.5589C33.2707 40.5174 33.3609 40.4783 33.4429 40.4428L33.4432 40.4427C33.5975 40.3759 33.7231 40.3215 33.8539 40.2861C34.3111 40.162 34.7682 40.0371 35.2253 39.9122L35.2301 39.9109L35.2303 39.9108L35.2303 39.9108C36.8298 39.4737 38.4295 39.0366 40.0377 38.6347C40.7786 38.4499 41.5544 38.3409 42.3168 38.3247C43.0771 38.3085 43.8662 38.354 44.5975 38.5448C46.4642 39.0321 47.0748 40.6555 46.1294 42.343C45.6395 43.2175 44.8741 43.7371 43.9913 44.0909C41.6061 45.047 39.1758 45.1655 36.7256 44.3552ZM11.8673 29.414C11.6444 29.6116 11.4338 29.8234 11.23 30.0404C11.195 30.0772 11.1807 30.1334 11.1637 30.2004C11.155 30.2346 11.1457 30.2715 11.1325 30.31C11.3338 30.8989 11.8286 31.099 12.4049 31.1635C13.2979 31.2629 14.101 30.9793 14.8235 30.4904C17.4252 28.7301 18.02 25.066 16.1198 22.5663C15.2182 21.3799 14.0788 20.4988 12.6555 20.037C9.58533 19.0409 6.75873 19.5329 4.19666 21.5028C-0.086578 24.796 -1.38952 31.4643 1.68826 36.4339C3.29067 39.0207 5.54788 40.8502 8.26905 42.1413C10.538 43.2181 12.9448 43.7463 15.4424 43.8937C17.4992 44.015 19.5405 43.8543 21.5719 43.5389C23.7701 43.1981 25.9257 42.6702 28.0597 42.0483C28.3607 41.9604 28.6642 41.881 28.9825 41.7978L28.9828 41.7977L28.983 41.7976C29.1352 41.7578 29.2909 41.7171 29.4512 41.6741C29.4937 41.767 29.5345 41.8537 29.5735 41.9367C29.6509 42.1014 29.7213 42.2511 29.784 42.404C30.7107 44.6624 32.3347 46.2489 34.5922 47.0995C38.4518 48.5539 42.2276 48.2334 45.8303 46.2321C47.3009 45.4151 48.325 44.17 48.8052 42.5298C49.6013 39.8096 48.245 37.3109 45.535 36.4917C44.7093 36.2424 43.8554 36.1175 43.0021 36.196C41.9424 36.2932 40.8697 36.3993 39.8411 36.6559C38.6421 36.9555 37.4584 37.3168 36.2747 37.6781L36.2746 37.6781C35.7839 37.8279 35.2933 37.9777 34.8015 38.123C34.4708 38.2207 34.1404 38.3197 33.8275 38.4135L33.5119 38.508C33.2419 38.3159 33.3094 38.1155 33.3704 37.934L33.3836 37.8947C33.951 36.1579 35.0638 34.8426 36.569 33.8471C37.7522 33.0645 39.045 32.5118 40.4004 32.0986C43.2336 31.235 46.144 30.7795 49.0834 30.5222C56.0478 29.913 62.9071 30.5908 69.6609 32.3432C70.5369 32.5704 71.3946 32.8674 72.2526 33.1645L72.2527 33.1646L72.2529 33.1646C72.7272 33.3289 73.2017 33.4932 73.6793 33.6458C74.2061 33.8141 74.74 33.9767 75.2827 34.0761C75.8587 34.1813 76.3748 34.0037 76.8022 33.5775C77.2769 33.1039 77.4386 32.5426 77.1642 31.942C76.9549 31.4837 76.6672 31.0437 76.3376 30.662C75.5462 29.745 74.5301 29.1075 73.4786 28.5297C71.8978 27.6613 70.2062 27.0715 68.4764 26.5846C62.0071 24.7636 55.4393 24.432 48.7938 25.3118C45.9516 25.6882 43.1545 26.279 40.4156 27.1309C38.2848 27.7931 36.2505 28.6698 34.4271 29.9778C31.2181 32.2796 29.3423 35.327 29.228 39.3484C29.2248 39.4586 29.2149 39.5687 29.2034 39.6958L29.2034 39.6959C29.1974 39.7626 29.1909 39.834 29.1848 39.9126C29.0982 39.9453 29.0121 39.9796 28.9261 40.014L28.9258 40.0141L28.9257 40.0141C28.7411 40.0879 28.5565 40.1616 28.3671 40.2187C25.4144 41.1087 22.423 41.7945 19.3271 41.9273C17.3944 42.0098 15.4853 41.865 13.6117 41.3606C10.5828 40.5453 8.06676 38.9638 6.21602 36.3951C4.18364 33.5749 4.06932 30.0245 5.928 27.1287C6.53962 26.1755 7.33796 25.4141 8.3948 24.965C9.46815 24.5089 10.5606 24.5012 11.6393 24.9269C12.9216 25.4325 13.3598 26.3765 12.9461 27.701C12.7393 28.363 12.3945 28.9468 11.8673 29.414ZM67.5345 39.0663L64.8728 38.0944L62.9773 35.6817L61.9814 38.6118L59.6032 40.3044L62.265 41.2764L64.2129 43.813L65.0477 40.9079L67.5345 39.0663Z" fill="#D8D8D8"/>
<defs>
<clipPath id="clip0_539_4802">
<rect width="42.5051" height="41.8285" fill="white" transform="translate(92.5518 1.02734)"/>
</clipPath>
</defs>
</svg>
